<svg width="130" height="33" viewBox="0 0 130 33" fill="none" xmlns="http://www.w3.org/2000/svg">
<g filter="url(#filter0_d_7_58)">
<path fill-rule="evenodd" clip-rule="evenodd" d="M22.7039 5.69112C22.7039 8.81998 20.1659 11.3565 17.0349 11.3565C13.9039 11.3565 11.3658 8.81998 11.3658 5.69112C11.3658 2.56289 13.9039 0.0263672 17.0349 0.0263672C20.1659 0.0263672 22.7039 2.56289 22.7039 5.69112ZM9.67045 12.7729C6.53949 12.7729 4.00131 15.3086 4.00131 18.4375C4.00131 21.5661 6.53949 24.1024 9.67045 24.1024C12.8015 24.1024 15.3398 21.5661 15.3398 18.4375C15.3398 15.3086 12.8015 12.7729 9.67045 12.7729ZM24.3993 12.7724C21.2683 12.7724 18.7302 15.3086 18.7302 18.4375C18.7302 21.5661 21.2683 24.1024 24.3993 24.1024C27.5303 24.1024 30.0684 21.5661 30.0684 18.4375C30.0684 15.3086 27.5303 12.7724 24.3993 12.7724Z" fill="#40A2D5"/>
<path fill-rule="evenodd" clip-rule="evenodd" d="M50.015 18.3723C50.0889 19.2127 50.7616 20.2824 51.9271 20.2824H52.609C52.8733 20.2824 53.09 20.0659 53.09 19.8016V4.81562H53.0871C53.0732 4.56316 52.8645 4.36096 52.609 4.36096H50.496C50.2405 4.36096 50.0318 4.56316 50.0176 4.81562H50.015V6.03332C48.7204 4.43872 46.6793 3.77686 44.6324 3.77686C39.9799 3.77686 36.2083 7.5485 36.2083 12.2013C36.2083 16.8544 39.9799 20.6262 44.6324 20.6262V20.6266C46.6793 20.6266 48.9099 19.8325 50.0148 18.3704L50.015 18.3723ZM44.6407 17.6777C41.6818 17.6777 39.2829 15.2261 39.2829 12.2013C39.2829 9.17712 41.6818 6.72536 44.6407 6.72536C47.5996 6.72536 49.9981 9.17712 49.9981 12.2013C49.9981 15.2261 47.5996 17.6777 44.6407 17.6777Z" fill="#40A2D5"/>
<path fill-rule="evenodd" clip-rule="evenodd" d="M84.4408 18.3718C84.5147 19.2122 85.1874 20.282 86.3528 20.282H87.0347C87.2991 20.282 87.5155 20.0654 87.5155 19.8011V4.81514H87.5128C87.499 4.56267 87.29 4.36047 87.0347 4.36047H84.9217C84.6662 4.36047 84.4575 4.56267 84.4432 4.81514H84.4408V6.03283C83.146 4.43823 81.1049 3.77637 79.058 3.77637C74.4055 3.77637 70.6341 7.54801 70.6341 12.2009C70.6341 16.854 74.4055 20.6257 79.058 20.6257V20.6261C81.1049 20.6261 83.3357 19.832 84.4405 18.3699L84.4408 18.3718ZM79.0662 17.6772C76.1075 17.6772 73.7085 15.2256 73.7085 12.2009C73.7085 9.17664 76.1075 6.72488 79.0662 6.72488C82.0253 6.72488 84.4237 9.17664 84.4237 12.2009C84.4237 15.2256 82.0253 17.6772 79.0662 17.6772Z" fill="#40A2D5"/>
<path fill-rule="evenodd" clip-rule="evenodd" d="M122.925 18.3718C122.999 19.2122 123.671 20.282 124.837 20.282H125.519C125.783 20.282 126 20.0654 126 19.8011V4.81514H125.997C125.983 4.56267 125.774 4.36047 125.519 4.36047H123.406C123.15 4.36047 122.941 4.56267 122.927 4.81514H122.925V6.03283C121.63 4.43823 119.589 3.77637 117.542 3.77637C112.89 3.77637 109.118 7.54801 109.118 12.2009C109.118 16.854 112.89 20.6257 117.542 20.6257V20.6261C119.589 20.6261 121.82 19.832 122.924 18.3699L122.925 18.3718ZM117.55 17.6772C114.591 17.6772 112.193 15.2256 112.193 12.2009C112.193 9.17664 114.591 6.72488 117.55 6.72488C120.509 6.72488 122.908 9.17664 122.908 12.2009C122.908 15.2256 120.509 17.6772 117.55 17.6772Z" fill="#40A2D5"/>
<path fill-rule="evenodd" clip-rule="evenodd" d="M106.445 18.8882L106.444 11.1336H106.445C106.445 6.76237 103.687 3.81348 99.2896 3.81348C97.1904 3.81348 95.4696 5.02734 94.8619 6.07007C94.7306 5.25473 94.2976 4.3977 92.9553 4.3977H92.2711C92.0065 4.3977 91.7904 4.61436 91.7904 4.87872V18.4103V18.4124V19.8659H91.7931C91.8069 20.118 92.0158 20.3205 92.2714 20.3205H94.3844C94.4167 20.3205 94.4484 20.3166 94.4791 20.3106C94.4931 20.3079 94.5061 20.3024 94.5197 20.2986C94.5354 20.2937 94.5518 20.29 94.5667 20.2839C94.5855 20.2761 94.6025 20.2656 94.6201 20.2559C94.6286 20.2506 94.6376 20.2469 94.6459 20.2414C94.667 20.2279 94.6863 20.2115 94.705 20.1947C94.708 20.1917 94.7118 20.1896 94.7148 20.1868C94.7358 20.1665 94.755 20.1441 94.772 20.1208L94.7721 20.1204C94.8251 20.0478 94.8572 19.9603 94.8624 19.8659H94.8651V11.0134C94.8651 8.66571 96.7685 6.76237 99.1163 6.76237C101.464 6.76237 103.367 8.66571 103.367 11.0134L103.369 18.4129L103.37 18.4103C103.37 18.4169 103.371 18.4236 103.371 18.4307V19.8659H103.374C103.388 20.118 103.596 20.3205 103.852 20.3205H105.965C105.997 20.3205 106.029 20.3166 106.06 20.3106C106.072 20.3083 106.084 20.3033 106.096 20.2999C106.113 20.2949 106.131 20.2905 106.147 20.2839C106.165 20.2767 106.18 20.2668 106.197 20.2575C106.207 20.2519 106.217 20.2478 106.227 20.2414C106.246 20.2286 106.264 20.2132 106.282 20.1978C106.286 20.1937 106.291 20.1907 106.295 20.1864C106.316 20.1671 106.333 20.1463 106.35 20.1244C106.351 20.1227 106.352 20.1215 106.353 20.1198C106.405 20.0478 106.437 19.961 106.443 19.8672C106.443 19.8666 106.443 19.8659 106.443 19.8659H106.446V18.8884L106.445 18.8882Z" fill="#40A2D5"/>
<path fill-rule="evenodd" clip-rule="evenodd" d="M58.1369 16.2257C59.5475 17.203 61.0872 17.6776 62.5668 17.6776C63.9764 17.6776 65.4337 16.9468 65.4337 15.6749C65.4337 13.9767 62.2583 13.7125 60.2632 13.0344C58.2677 12.3563 56.549 10.9545 56.549 8.68449C56.549 5.21097 59.6439 3.77637 62.5326 3.77637C64.3628 3.77637 66.2512 4.37991 67.4755 5.24448C67.8971 5.56397 67.6403 5.93077 67.6403 5.93077L66.4717 7.59994C66.3404 7.78795 66.1107 7.95037 65.781 7.74689C65.4513 7.54354 64.2949 6.725 62.5326 6.725C60.7701 6.725 59.7085 7.53893 59.7085 8.54777C59.7085 9.75754 61.0883 10.138 62.7045 10.5504C65.5208 11.3096 68.5931 12.2221 68.5931 15.6749C68.5931 18.7353 65.7306 20.6266 62.5668 20.6266C60.1693 20.6266 58.1281 19.9432 56.4161 18.6868C56.0595 18.3299 56.3086 17.9985 56.3086 17.9985L57.4715 16.3378C57.7081 16.0272 58.0064 16.1356 58.1369 16.2257Z" fill="#40A2D5"/>
</g>
<defs>
<filter id="filter0_d_7_58" x="0.00131226" y="0.0263672" width="129.999" height="32.0759" filterUnits="userSpaceOnUse" color-interpolation-filters="sRGB">
<feFlood flood-opacity="0" result="BackgroundImageFix"/>
<feColorMatrix in="SourceAlpha" type="matrix" values="0 0 0 0 0 0 0 0 0 0 0 0 0 0 0 0 0 0 127 0" result="hardAlpha"/>
<feOffset dy="4"/>
<feGaussianBlur stdDeviation="2"/>
<feComposite in2="hardAlpha" operator="out"/>
<feColorMatrix type="matrix" values="0 0 0 0 0 0 0 0 0 0 0 0 0 0 0 0 0 0 0.25 0"/>
<feBlend mode="normal" in2="BackgroundImageFix" result="effect1_dropShadow_7_58"/>
<feBlend mode="normal" in="SourceGraphic" in2="effect1_dropShadow_7_58" result="shape"/>
</filter>
</defs>
</svg>
