<svg width="74" height="76" viewBox="0 0 74 76" fill="none" xmlns="http://www.w3.org/2000/svg">
<path d="M6.46763 59.4318L36.8337 76L67.3561 59.2074L73.046 12.3611L36.7953 0L0.775574 12.5838L6.46763 59.4318Z" fill="#B3B3B3"/>
<path d="M36.7114 72.0415L64.1506 56.966L69.4533 15.0685L36.7114 3.98438V72.0415Z" fill="#A6120D"/>
<path d="M36.7109 72.0418V3.9834L4.81763 15.2686L9.6951 57.1665L36.7109 72.0418Z" fill="#DD1B16"/>
<path d="M45.724 40.2148L36.7114 44.3985H27.2121L22.7467 55.4861L14.441 55.6388L36.7114 6.45605L45.724 40.2148ZM44.8528 38.1084L36.771 22.2256L30.142 37.8351H36.7109L44.8528 38.1084Z" fill="#F2F2F2"/>
<path d="M44.2926 37.8472H36.7279L36.7109 44.3886L47.1711 44.3985L52.0599 55.6405L60.0071 55.7866L36.7109 6.45605L36.7706 22.2256L44.2926 37.8472Z" fill="#B3B3B3"/>
</svg>
