<svg width="54" height="54" viewBox="0 0 54 54" fill="none" xmlns="http://www.w3.org/2000/svg">
<path d="M30.648 34.0723V49.1523C30.648 51.2323 28.984 53.0003 26.8 53.0003C24.616 53.0003 22.952 51.3363 22.952 49.1523V34.0723" stroke="#1C2034" stroke-width="2" stroke-miterlimit="10"/>
<path d="M18.272 40.728C10.992 37.504 6 30.224 6 21.8C6 10.36 15.36 1 26.8 1C38.24 1 47.6 10.36 47.6 21.8C47.6 30.224 42.608 37.504 35.328 40.728" stroke="#1C2034" stroke-width="2" stroke-miterlimit="10"/>
<path d="M26.7996 34.1758C33.6922 34.1758 39.2796 28.5883 39.2796 21.6958C39.2796 14.8033 33.6922 9.21582 26.7996 9.21582C19.9071 9.21582 14.3196 14.8033 14.3196 21.6958C14.3196 28.5883 19.9071 34.1758 26.7996 34.1758Z" stroke="#C79939" stroke-width="2" stroke-miterlimit="10"/>
<path d="M33.6642 17.6396L25.4482 25.8556L19.9362 20.3436" stroke="#138B44" stroke-width="2" stroke-miterlimit="10"/>
</svg>
