<svg width="1440" height="87" viewBox="0 0 1440 87" fill="none" xmlns="http://www.w3.org/2000/svg">
<path opacity="0.6" fill-rule="evenodd" clip-rule="evenodd" d="M946.947 39.3214C946.769 39.8443 946.201 40.124 945.678 39.9461V39.9461L945.678 39.9461L945.677 39.9459L945.675 39.945L945.664 39.9415L945.622 39.9272L945.453 39.8702C945.303 39.8197 945.079 39.7446 944.783 39.6462C944.259 39.4719 943.975 38.9058 944.15 38.3817C944.324 37.8577 944.89 37.5741 945.414 37.7484C945.712 37.8475 945.939 37.9234 946.091 37.9746L946.263 38.0327L946.307 38.0475L946.318 38.0513L946.321 38.0523L946.322 38.0526L946.322 38.0526L946.322 38.0527V38.0527L946 38.9994L946.322 38.0527C946.845 38.2305 947.125 38.7986 946.947 39.3214ZM940.331 37.1454C940.164 37.6718 939.601 37.963 939.075 37.7957C938.494 37.6111 937.877 37.4163 937.226 37.2117C936.699 37.0462 936.406 36.4848 936.572 35.9579C936.738 35.431 937.299 35.1381 937.826 35.3037C938.479 35.5089 939.098 35.7044 939.681 35.8896C940.207 36.0568 940.498 36.6191 940.331 37.1454ZM932.777 34.784C932.616 35.3123 932.057 35.61 931.529 35.449C930.9 35.2573 930.253 35.0608 929.588 34.86C929.059 34.7004 928.76 34.1424 928.919 33.6136C929.079 33.0849 929.637 32.7857 930.166 32.9453C930.833 33.1467 931.482 33.3437 932.112 33.5359C932.641 33.6969 932.938 34.2557 932.777 34.784ZM925.143 32.4891C924.987 33.019 924.431 33.3224 923.901 33.1667C923.274 32.9823 922.635 32.7954 921.984 32.6061C921.454 32.4517 921.149 31.8967 921.304 31.3664C921.458 30.8362 922.013 30.5314 922.543 30.6858C923.195 30.8755 923.836 31.0629 924.465 31.2478C924.995 31.4034 925.298 31.9592 925.143 32.4891ZM917.456 30.2615C917.305 30.7929 916.753 31.1016 916.221 30.9511C915.603 30.7758 914.977 30.5992 914.343 30.4212C913.811 30.2719 913.501 29.7198 913.65 29.1881C913.8 28.6564 914.352 28.3464 914.883 28.4957C915.519 28.6741 916.146 28.8512 916.766 29.0268C917.298 29.1773 917.606 29.7301 917.456 30.2615ZM605.233 29.816C604.696 29.9448 604.157 29.6139 604.028 29.0769C603.899 28.5398 604.23 28 604.767 27.8712L604.968 28.7108L604.767 27.8711L604.767 27.8711L604.768 27.8709L604.771 27.8702L604.783 27.8673L604.83 27.8561L605.014 27.8123C605.177 27.7737 605.419 27.7164 605.738 27.6417C606.276 27.5157 606.814 27.8496 606.94 28.3873C607.066 28.925 606.732 29.463 606.195 29.589C605.877 29.6633 605.637 29.7201 605.475 29.7584L605.294 29.8016L605.248 29.8124L605.237 29.8151L605.234 29.8158M605.233 29.816C605.233 29.816 605.233 29.816 605.234 29.8159L605.233 29.816ZM909.822 28.1276C909.676 28.6604 909.127 28.9743 908.594 28.8287C907.955 28.6542 907.31 28.4788 906.66 28.3026C906.126 28.1583 905.811 27.6092 905.956 27.0761C906.1 26.543 906.649 26.2278 907.182 26.3721C907.834 26.5487 908.481 26.7245 909.121 26.8994C909.654 27.045 909.968 27.5949 909.822 28.1276ZM610.958 27.4724C610.838 26.9334 611.177 26.3989 611.716 26.2786C612.344 26.1384 613.012 25.9902 613.718 25.8345C614.257 25.7156 614.791 26.0564 614.91 26.5957C615.029 27.135 614.688 27.6687 614.149 27.7876C613.445 27.9429 612.779 28.0907 612.152 28.2306C611.613 28.3509 611.078 28.0114 610.958 27.4724ZM902.114 26.0508C901.974 26.5849 901.427 26.9039 900.893 26.7634C900.257 26.5961 899.617 26.4284 898.971 26.2603C898.437 26.1211 898.117 25.5749 898.256 25.0405C898.395 24.506 898.941 24.1857 899.476 24.325C900.122 24.4935 900.764 24.6616 901.401 24.8292C901.936 24.9697 902.255 25.5167 902.114 26.0508ZM618.92 25.7259C618.805 25.1858 619.149 24.6545 619.689 24.5391C620.34 24.4002 621.009 24.2579 621.697 24.1126C622.237 23.9984 622.768 24.3439 622.882 24.8842C622.996 25.4246 622.651 25.9552 622.11 26.0694C621.424 26.2144 620.756 26.3564 620.107 26.495C619.567 26.6104 619.035 26.266 618.92 25.7259ZM626.913 24.0448C626.802 23.5038 627.15 22.9753 627.691 22.8642C628.353 22.7283 629.028 22.5906 629.713 22.4513C630.255 22.3413 630.783 22.6909 630.893 23.2321C631.003 23.7733 630.653 24.3013 630.112 24.4112C629.427 24.5503 628.754 24.6878 628.093 24.8234C627.552 24.9344 627.024 24.5859 626.913 24.0448ZM894.405 24.0516C894.269 24.587 893.725 24.9113 893.19 24.7759C892.555 24.6153 891.917 24.4546 891.275 24.2938C890.739 24.1597 890.413 23.6167 890.547 23.0809C890.682 22.5452 891.225 22.2196 891.76 22.3537C892.404 22.5149 893.044 22.676 893.68 22.8369C894.216 22.9723 894.54 23.5162 894.405 24.0516ZM634.917 22.4261C634.81 21.8843 635.163 21.3584 635.704 21.2514C636.368 21.1205 637.039 20.9886 637.719 20.8557C638.261 20.7497 638.786 21.1033 638.892 21.6453C638.998 22.1873 638.645 22.7126 638.103 22.8185C637.424 22.9512 636.754 23.0829 636.092 23.2135C635.55 23.3205 635.024 22.9679 634.917 22.4261ZM886.687 22.1295C886.557 22.6662 886.016 22.9958 885.48 22.8656C884.838 22.7099 884.192 22.5543 883.544 22.3988C883.007 22.27 882.676 21.7302 882.805 21.1932C882.934 20.6561 883.474 20.3252 884.011 20.454C884.661 20.6099 885.307 20.7659 885.951 20.922C886.488 21.0521 886.817 21.5928 886.687 22.1295ZM642.957 20.8624C642.854 20.3198 643.211 19.7965 643.753 19.6935C644.411 19.5688 645.074 19.4435 645.744 19.3178C646.286 19.2158 646.809 19.5732 646.911 20.116C647.013 20.6588 646.656 21.1814 646.113 21.2834C645.445 21.4089 644.782 21.534 644.126 21.6585C643.584 21.7614 643.06 21.405 642.957 20.8624ZM878.939 20.2815C878.815 20.8195 878.277 21.1546 877.739 21.0299C877.092 20.8799 876.443 20.7302 875.79 20.5809C875.252 20.4576 874.915 19.9212 875.039 19.3829C875.162 18.8445 875.698 18.5081 876.237 18.6313C876.891 18.7811 877.542 18.9312 878.191 19.0815C878.729 19.2062 879.064 19.7435 878.939 20.2815ZM650.965 19.3661C650.866 18.8227 651.226 18.302 651.77 18.2031C652.435 18.0818 653.106 17.9603 653.781 17.8386C654.325 17.7406 654.845 18.1019 654.943 18.6454C655.041 19.1889 654.68 19.7089 654.136 19.8069C653.462 19.9284 652.792 20.0497 652.128 20.1707C651.585 20.2697 651.064 19.9094 650.965 19.3661ZM871.169 18.5128C871.05 19.0521 870.516 19.3929 869.977 19.2739C869.327 19.1307 868.676 18.9879 868.023 18.8457C867.483 18.7282 867.141 18.1955 867.258 17.6559C867.376 17.1162 867.908 16.774 868.448 16.8915C869.103 17.0341 869.756 17.1772 870.407 17.3208C870.947 17.4398 871.288 17.9735 871.169 18.5128ZM659.005 17.9251C658.91 17.381 659.274 16.8631 659.818 16.7682C660.493 16.6506 661.171 16.533 661.853 16.4153C662.397 16.3215 662.915 16.6866 663.008 17.2309C663.102 17.7752 662.737 18.2924 662.193 18.3863C661.512 18.5037 660.835 18.6211 660.162 18.7384C659.618 18.8333 659.1 18.4692 659.005 17.9251ZM863.379 16.8282C863.266 17.3688 862.736 17.7155 862.195 17.6026C861.548 17.4674 860.899 17.3329 860.249 17.1989C859.708 17.0876 859.36 16.5588 859.471 16.0178C859.583 15.4769 860.111 15.1287 860.652 15.24C861.305 15.3743 861.955 15.5093 862.604 15.6448C863.145 15.7578 863.492 16.2876 863.379 16.8282ZM667.073 16.5421C666.983 15.9973 667.351 15.4822 667.896 15.3915C668.559 15.2811 669.225 15.1708 669.895 15.0606C670.44 14.971 670.954 15.3401 671.044 15.8851C671.134 16.4301 670.764 16.9445 670.22 17.0341C669.551 17.144 668.886 17.2541 668.224 17.3643C667.679 17.455 667.164 17.0869 667.073 16.5421ZM675.12 15.2273C675.033 14.6818 675.406 14.1696 675.951 14.0833C676.619 13.9775 677.29 13.8721 677.963 13.7669C678.509 13.6817 679.02 14.0549 679.105 14.6006C679.19 15.1463 678.817 15.6577 678.271 15.743C677.6 15.8479 676.93 15.9531 676.264 16.0587C675.718 16.145 675.206 15.7728 675.12 15.2273ZM855.571 15.2328C855.465 15.7747 854.939 16.1277 854.397 16.0211C853.751 15.894 853.103 15.7677 852.454 15.6421C851.911 15.5372 851.557 15.0126 851.662 14.4704C851.767 13.9282 852.291 13.5736 852.833 13.6785C853.485 13.8045 854.134 13.9312 854.783 14.0587C855.325 14.1652 855.678 14.6909 855.571 15.2328ZM683.184 13.9765C683.102 13.4303 683.479 12.9212 684.025 12.8394C684.697 12.7387 685.372 12.6384 686.048 12.5386C686.595 12.4579 687.103 12.8355 687.184 13.3819C687.264 13.9282 686.887 14.4365 686.34 14.5171C685.665 14.6168 684.992 14.7169 684.321 14.8173C683.775 14.8991 683.266 14.5227 683.184 13.9765ZM847.753 13.7333C847.653 14.2765 847.132 14.636 846.589 14.5363C845.939 14.4171 845.289 14.2988 844.638 14.1815C844.094 14.0835 843.733 13.5635 843.831 13.02C843.929 12.4764 844.449 12.1152 844.993 12.2132C845.646 12.3309 846.298 12.4496 846.95 12.5692C847.493 12.6689 847.852 13.1901 847.753 13.7333ZM691.265 12.7932C691.188 12.2464 691.569 11.7406 692.115 11.6636C692.791 11.5684 693.468 11.4739 694.147 11.3799C694.694 11.3041 695.199 11.6861 695.274 12.2332C695.35 12.7803 694.968 13.2852 694.421 13.361C693.744 13.4547 693.068 13.5491 692.394 13.644C691.847 13.721 691.342 13.3401 691.265 12.7932ZM839.914 12.3344C839.822 12.8788 839.306 13.2453 838.761 13.1529C838.109 13.0422 837.457 12.9326 836.804 12.8241C836.259 12.7336 835.89 12.2186 835.981 11.6737C836.071 11.1289 836.586 10.7606 837.131 10.8512C837.787 10.9601 838.442 11.0701 839.096 11.1811C839.64 11.2735 840.007 11.7899 839.914 12.3344ZM699.358 11.682C699.286 11.1344 699.671 10.6322 700.219 10.5602C700.896 10.4713 701.574 10.383 702.254 10.2953C702.802 10.2247 703.303 10.6115 703.374 11.1593C703.444 11.707 703.057 12.2083 702.51 12.2789C701.832 12.3663 701.155 12.4544 700.479 12.5432C699.932 12.6151 699.43 12.2296 699.358 11.682ZM832.056 11.0434C831.972 11.5892 831.461 11.9631 830.915 11.8785C830.261 11.7772 829.606 11.6771 828.951 11.5781C828.405 11.4957 828.029 10.9861 828.112 10.44C828.194 9.89392 828.704 9.51809 829.25 9.60057C829.907 9.69987 830.564 9.8004 831.221 9.90211C831.767 9.98666 832.141 10.4976 832.056 11.0434ZM707.461 10.6475C707.395 10.0993 707.785 9.60086 708.333 9.53432C709.009 9.4523 709.686 9.37104 710.363 9.29056C710.912 9.22543 711.409 9.61722 711.474 10.1656C711.539 10.7141 711.148 11.2115 710.599 11.2766C709.923 11.3569 709.248 11.4379 708.574 11.5197C708.026 11.5863 707.528 11.1958 707.461 10.6475ZM824.179 9.86938C824.103 10.4164 823.597 10.7983 823.05 10.7222C822.394 10.6311 821.738 10.5413 821.082 10.4529C820.535 10.3791 820.151 9.87562 820.224 9.32828C820.298 8.78094 820.802 8.39702 821.349 8.47077C822.008 8.55957 822.667 8.64975 823.326 8.74128C823.873 8.81728 824.255 9.32235 824.179 9.86938ZM715.573 9.69521C715.513 9.14627 715.908 8.65203 716.457 8.59128C717.133 8.51649 717.809 8.44256 718.486 8.36953C719.036 8.31029 719.529 8.7074 719.588 9.2565C719.647 9.8056 719.25 10.2988 718.701 10.358C718.026 10.4308 717.351 10.5045 716.677 10.5791C716.128 10.6399 715.634 10.2441 715.573 9.69521ZM723.692 8.8314C723.637 8.28181 724.038 7.7921 724.588 7.73759C725.266 7.67039 725.944 7.60416 726.622 7.53895C727.172 7.48608 727.66 7.88889 727.713 8.43863C727.766 8.98838 727.363 9.4769 726.813 9.52976C726.137 9.59479 725.461 9.66082 724.785 9.72783C724.236 9.78233 723.746 9.38099 723.692 8.8314ZM816.282 8.82257C816.216 9.37081 815.717 9.7612 815.169 9.69452C814.511 9.61455 813.854 9.53607 813.197 9.45913C812.648 9.39492 812.256 8.89819 812.32 8.34965C812.384 7.80112 812.881 7.40849 813.429 7.4727C814.09 7.54998 814.75 7.62882 815.411 7.70915C815.959 7.77583 816.349 8.27432 816.282 8.82257ZM731.821 8.06267C731.773 7.51245 732.18 7.02772 732.731 6.97999C733.41 6.92108 734.089 6.86327 734.768 6.80658C735.319 6.76064 735.802 7.16957 735.848 7.71994C735.894 8.27031 735.485 8.75371 734.935 8.79965C734.258 8.85615 733.581 8.91378 732.903 8.97251C732.353 9.02024 731.869 8.61289 731.821 8.06267ZM808.369 7.91503C808.313 8.46443 807.821 8.86405 807.272 8.80762C806.613 8.73996 805.955 8.67397 805.297 8.60969C804.747 8.55599 804.345 8.06685 804.399 7.51719C804.453 6.96752 804.942 6.56547 805.492 6.61917C806.153 6.68377 806.814 6.75009 807.476 6.81809C808.026 6.87452 808.425 7.36564 808.369 7.91503ZM739.96 7.39747C739.92 6.84666 740.334 6.36746 740.885 6.32715C741.565 6.27736 742.245 6.22879 742.925 6.18148C743.476 6.14313 743.953 6.55867 743.992 7.10962C744.03 7.66058 743.615 8.1383 743.064 8.17665C742.386 8.22379 741.709 8.27219 741.031 8.32181C740.48 8.36213 740.001 7.94829 739.96 7.39747ZM800.44 7.16098C800.394 7.71142 799.912 8.12108 799.361 8.07599C798.702 8.02197 798.043 7.96981 797.385 7.91955C796.835 7.87748 796.422 7.39696 796.464 6.84628C796.506 6.2956 796.987 5.88329 797.538 5.92536C798.199 5.9759 798.862 6.02835 799.525 6.08267C800.075 6.12776 800.485 6.61054 800.44 7.16098ZM748.109 6.84586C748.077 6.29451 748.498 5.82149 749.049 5.78933C749.73 5.74962 750.41 5.71127 751.09 5.67432C751.641 5.64434 752.113 6.06709 752.143 6.61856C752.173 7.17003 751.75 7.64139 751.198 7.67137C750.521 7.70818 749.844 7.74638 749.165 7.78594C748.614 7.81809 748.141 7.3972 748.109 6.84586ZM792.497 6.57724C792.464 7.12857 791.991 7.5492 791.44 7.51675C790.78 7.47793 790.122 7.44117 789.464 7.40652C788.913 7.37745 788.489 6.90679 788.518 6.35527C788.547 5.80375 789.018 5.38023 789.57 5.4093C790.231 5.44416 790.894 5.48114 791.557 5.5202C792.108 5.55265 792.529 6.02591 792.497 6.57724ZM756.265 6.41971C756.242 5.86791 756.67 5.40186 757.222 5.37875C757.903 5.35025 758.583 5.32326 759.262 5.29781C759.814 5.27713 760.278 5.70776 760.298 6.25966C760.319 6.81156 759.888 7.27572 759.337 7.29641C758.661 7.32174 757.984 7.34862 757.306 7.377C756.754 7.40011 756.288 6.97151 756.265 6.41971ZM784.544 6.18393C784.525 6.73591 784.063 7.16859 783.511 7.15034C782.852 7.12855 782.194 7.10905 781.538 7.09189C780.986 7.07746 780.55 6.61819 780.565 6.06609C780.579 5.514 781.038 5.07814 781.59 5.09257C782.251 5.10986 782.914 5.12949 783.577 5.15143C784.129 5.16968 784.562 5.63195 784.544 6.18393ZM764.425 6.13324C764.412 5.58111 764.849 5.123 765.401 5.11003C766.081 5.09405 766.76 5.07976 767.437 5.06717C767.989 5.05692 768.445 5.49624 768.456 6.04843C768.466 6.60062 768.026 7.05657 767.474 7.06683C766.8 7.07935 766.125 7.09358 765.448 7.10948C764.896 7.12245 764.437 6.68538 764.425 6.13324ZM776.586 6.00524C776.584 6.55752 776.134 7.00349 775.582 7.00134C775.254 7.00007 774.926 6.99942 774.598 6.99942C774.262 6.99942 773.925 6.99989 773.588 7.00082C773.035 7.00235 772.586 6.55588 772.585 6.00359C772.583 5.45131 773.03 5.00236 773.582 5.00083C773.921 4.9999 774.26 4.99942 774.598 4.99942C774.928 4.99942 775.259 5.00007 775.59 5.00136C776.142 5.00351 776.588 5.45296 776.586 6.00524ZM188.947 32.0989C188.768 32.6214 188.199 32.8998 187.676 32.7208V32.7208L187.676 32.7208L187.676 32.7206L187.673 32.7197L187.662 32.716L187.619 32.7011L187.444 32.6416C187.288 32.589 187.056 32.5106 186.75 32.4082C186.226 32.2331 185.943 31.6664 186.119 31.1427C186.294 30.6189 186.86 30.3363 187.384 30.5115C187.693 30.6147 187.927 30.6939 188.085 30.7473L188.264 30.8079L188.309 30.8234L188.321 30.8274L188.324 30.8284L188.324 30.8287L188.325 30.8288L188.325 30.8288L188.325 30.8288L188.001 31.7748L188.325 30.8288C188.847 31.0078 189.126 31.5765 188.947 32.0989ZM182.302 29.9014C182.134 30.4276 181.572 30.7182 181.045 30.5504C180.436 30.356 179.787 30.1504 179.101 29.9344C178.574 29.7685 178.282 29.207 178.448 28.6802C178.613 28.1534 179.175 27.8609 179.702 28.0268C180.39 28.2435 181.041 28.4498 181.653 28.6449C182.179 28.8127 182.47 29.3752 182.302 29.9014ZM174.619 27.4944C174.458 28.0227 173.899 28.3204 173.371 28.1593C172.752 27.9706 172.115 27.7775 171.462 27.5803C170.933 27.4207 170.634 26.8627 170.793 26.334C170.953 25.8053 171.511 25.506 172.04 25.6656C172.695 25.8633 173.333 26.057 173.954 26.2462C174.482 26.4073 174.78 26.9661 174.619 27.4944ZM166.912 25.1802C166.756 25.7102 166.201 26.0141 165.671 25.8588C165.042 25.6748 164.403 25.4884 163.752 25.2998C163.222 25.146 162.917 24.5913 163.071 24.0609C163.224 23.5305 163.779 23.2251 164.309 23.379C164.962 23.568 165.603 23.7549 166.233 23.9394C166.763 24.0947 167.067 24.6501 166.912 25.1802ZM159.197 22.9543C159.048 23.4859 158.495 23.7956 157.964 23.646C157.316 23.4637 156.661 23.2801 155.997 23.0952C155.465 22.9469 155.154 22.3955 155.302 21.8635C155.45 21.3314 156.002 21.0203 156.534 21.1686C157.199 21.354 157.856 21.5381 158.506 21.7208C159.037 21.8704 159.347 22.4227 159.197 22.9543ZM-125.962 22.6198C-126.091 22.083 -125.761 21.5426 -125.224 21.4129L-125.224 21.4128L-125.223 21.4126L-125.22 21.4119L-125.209 21.4091L-125.163 21.3981L-124.983 21.3549C-124.823 21.3169 -124.586 21.2605 -124.274 21.187C-123.737 21.0603 -123.198 21.3933 -123.072 21.9309C-122.945 22.4684 -123.278 23.0069 -123.815 23.1336C-124.125 23.2067 -124.361 23.2626 -124.518 23.3002L-124.696 23.3428L-124.74 23.3534L-124.751 23.3561L-124.754 23.3567M-125.962 22.6198C-125.832 23.1567 -125.291 23.4867 -124.755 23.3569L-125.962 22.6198ZM-124.755 23.3569C-124.755 23.3569 -124.755 23.3569 -124.754 23.3569L-124.755 23.3569ZM-119.297 21.0663C-119.417 20.5274 -119.079 19.9926 -118.54 19.8717C-117.926 19.734 -117.273 19.5884 -116.583 19.4355C-116.044 19.316 -115.51 19.6563 -115.39 20.1955C-115.271 20.7347 -115.611 21.2687 -116.15 21.3881C-116.839 21.5406 -117.49 21.6858 -118.102 21.8232C-118.641 21.9441 -119.176 21.6052 -119.297 21.0663ZM151.43 20.8006C151.285 21.3338 150.736 21.6492 150.203 21.5051C149.567 21.3332 148.926 21.1606 148.278 20.9874C147.744 20.8447 147.428 20.2965 147.57 19.7629C147.713 19.2294 148.261 18.9126 148.795 19.0553C149.444 19.229 150.088 19.4021 150.725 19.5744C151.258 19.7185 151.574 20.2675 151.43 20.8006ZM-111.586 19.3671C-111.702 18.827 -111.358 18.2955 -110.818 18.1798C-110.202 18.0477 -109.568 17.9127 -108.918 17.7748C-108.378 17.6603 -107.847 18.0054 -107.733 18.5457C-107.618 19.0859 -107.963 19.6168 -108.503 19.7313C-109.152 19.8689 -109.784 20.0036 -110.399 20.1354C-110.939 20.2511 -111.471 19.9071 -111.586 19.3671ZM143.667 18.7353C143.529 19.27 142.983 19.5911 142.449 19.4526C141.797 19.2839 141.141 19.1148 140.481 18.9456C139.946 18.8085 139.623 18.2637 139.76 17.7287C139.897 17.1937 140.442 16.8711 140.977 17.0082C141.64 17.1779 142.297 17.3473 142.95 17.5165C143.485 17.655 143.806 18.2007 143.667 18.7353ZM-103.88 17.7415C-103.991 17.2005 -103.643 16.6718 -103.102 16.5606C-102.478 16.4325 -101.844 16.3027 -101.199 16.1715C-100.658 16.0614 -100.13 16.4108 -100.02 16.952C-99.9095 17.4932 -100.259 18.0212 -100.8 18.1314C-101.444 18.2623 -102.077 18.3918 -102.699 18.5197C-103.24 18.6309 -103.769 18.2825 -103.88 17.7415ZM135.85 16.7436C135.717 17.2797 135.175 17.6066 134.639 17.4739C133.999 17.3155 133.355 17.1571 132.708 16.9988C132.172 16.8675 131.844 16.3262 131.975 15.7897C132.106 15.2533 132.647 14.9248 133.184 15.0561C133.833 15.2148 134.478 15.3737 135.119 15.5325C135.656 15.6653 135.983 16.2075 135.85 16.7436ZM-96.1877 16.1842C-96.2947 15.6423 -95.9421 15.1164 -95.4003 15.0095C-94.758 14.8828 -94.1077 14.7551 -93.4496 14.6265C-92.9075 14.5207 -92.3823 14.8743 -92.2764 15.4163C-92.1706 15.9584 -92.5242 16.4836 -93.0662 16.5895C-93.7231 16.7177 -94.3721 16.8452 -95.013 16.9716C-95.5549 17.0786 -96.0808 16.726 -96.1877 16.1842ZM128.052 14.8472C127.926 15.3847 127.387 15.7177 126.85 15.591C126.201 15.438 125.549 15.2853 124.895 15.133C124.357 15.0078 124.022 14.4702 124.148 13.9323C124.273 13.3944 124.81 13.0598 125.348 13.1851C126.005 13.3379 126.658 13.491 127.309 13.6444C127.846 13.7711 128.179 14.3096 128.052 14.8472ZM-88.4569 14.6819C-88.5596 14.1392 -88.2029 13.6161 -87.6603 13.5134C-87.0221 13.3926 -86.378 13.2713 -85.7281 13.1496C-85.1852 13.0479 -84.6628 13.4056 -84.5611 13.9484C-84.4595 14.4913 -84.8171 15.0138 -85.3599 15.1154C-86.0086 15.2369 -86.6515 15.3579 -87.2883 15.4785C-87.831 15.5812 -88.3542 15.2245 -88.4569 14.6819ZM-80.717 13.2402C-80.8155 12.6968 -80.4548 12.1764 -79.9113 12.078C-79.2662 11.9611 -78.6163 11.844 -77.9618 11.7267C-77.4181 11.6293 -76.8985 11.9911 -76.8011 12.5347C-76.7037 13.0784 -77.0654 13.598 -77.6091 13.6954C-78.2623 13.8124 -78.9109 13.9293 -79.5547 14.0459C-80.0982 14.1444 -80.6185 13.7837 -80.717 13.2402ZM120.216 13.0351C120.095 13.574 119.561 13.9133 119.022 13.7928C118.367 13.6465 117.71 13.5006 117.05 13.3553C116.511 13.2365 116.17 12.7029 116.289 12.1636C116.408 11.6242 116.941 11.2833 117.481 11.4022C118.142 11.5479 118.801 11.6942 119.458 11.841C119.997 11.9615 120.336 12.4961 120.216 13.0351ZM-72.9596 11.8584C-73.0537 11.3142 -72.6889 10.7967 -72.1446 10.7026C-71.5053 10.592 -70.8623 10.4815 -70.2156 10.371C-69.6713 10.2779 -69.1545 10.6438 -69.0615 11.1882C-68.9685 11.7326 -69.3344 12.2494 -69.8788 12.3424C-70.524 12.4526 -71.1658 12.563 -71.8038 12.6733C-72.348 12.7675 -72.8655 12.4026 -72.9596 11.8584ZM112.35 11.3148C112.237 11.8552 111.706 12.201 111.166 12.0872C110.513 11.9497 109.858 11.8128 109.201 11.6766C108.66 11.5646 108.312 11.0353 108.424 10.4945C108.537 9.95372 109.066 9.60618 109.607 9.71827C110.266 9.85485 110.923 9.99216 111.578 10.1301C112.118 10.244 112.464 10.7743 112.35 11.3148ZM-65.2106 10.5424C-65.3002 9.99745 -64.9311 9.483 -64.3862 9.39336C-63.739 9.28689 -63.0887 9.18063 -62.4356 9.0746C-61.8904 8.98611 -61.3768 9.35631 -61.2883 9.90146C-61.1998 10.4466 -61.57 10.9603 -62.1151 11.0488C-62.7669 11.1546 -63.4157 11.2606 -64.0615 11.3668C-64.6065 11.4565 -65.1209 11.0874 -65.2106 10.5424ZM104.469 9.69486C104.362 10.2367 103.837 10.5895 103.295 10.4828C102.641 10.3541 101.987 10.2264 101.331 10.0995C100.789 9.99461 100.434 9.47002 100.539 8.92778C100.644 8.38555 101.168 8.031 101.711 8.13587C102.369 8.26319 103.026 8.39141 103.681 8.52048C104.223 8.6272 104.576 9.15299 104.469 9.69486ZM-57.4347 9.28858C-57.5196 8.74288 -57.1461 8.23161 -56.6004 8.14665C-55.9506 8.04548 -55.2984 7.94466 -54.6438 7.84424C-54.0979 7.76049 -53.5875 8.13513 -53.5037 8.68102C-53.42 9.22692 -53.7946 9.73735 -54.3405 9.82111C-54.9936 9.92131 -55.6444 10.0219 -56.2927 10.1228C-56.8384 10.2078 -57.3497 9.83429 -57.4347 9.28858ZM96.5736 8.18236C96.4745 8.72568 95.9537 9.08578 95.4104 8.98667C94.7535 8.86683 94.0955 8.74803 93.4365 8.63032C92.8928 8.5332 92.5308 8.01373 92.6279 7.47006C92.7251 6.92638 93.2445 6.56437 93.7882 6.66149C94.4496 6.77963 95.11 6.89887 95.7693 7.01914C96.3126 7.11825 96.6727 7.63904 96.5736 8.18236ZM-49.6419 8.10184C-49.722 7.55538 -49.3439 7.04751 -48.7974 6.96747C-48.153 6.87308 -47.5067 6.77917 -46.8586 6.68578C-46.3119 6.607 -45.8049 6.98628 -45.7262 7.53292C-45.6474 8.07956 -46.0267 8.58656 -46.5733 8.66533C-47.2199 8.7585 -47.8647 8.85219 -48.5076 8.94636C-49.054 9.02639 -49.5619 8.64829 -49.6419 8.10184ZM-41.858 6.98955C-41.9329 6.44236 -41.55 5.93811 -41.0028 5.86327C-40.3548 5.77465 -39.7053 5.68663 -39.0544 5.59925C-38.507 5.52576 -38.0037 5.90993 -37.9302 6.4573C-37.8567 7.00467 -38.2409 7.50798 -38.7883 7.58147C-39.4375 7.66863 -40.0854 7.75643 -40.7318 7.84483C-41.279 7.91967 -41.7832 7.53675 -41.858 6.98955ZM88.6531 6.78315C88.5622 7.3279 88.0469 7.69584 87.5022 7.60496C86.8425 7.4949 86.1821 7.38606 85.521 7.27848C84.9759 7.18977 84.606 6.67595 84.6947 6.13084C84.7834 5.58573 85.2972 5.21574 85.8423 5.30446C86.506 5.41247 87.169 5.52174 87.8313 5.63222C88.376 5.72311 88.744 6.23839 88.6531 6.78315ZM-34.0581 5.95239C-34.1274 5.40447 -33.7394 4.90413 -33.1915 4.83484C-32.5406 4.75254 -31.8886 4.67096 -31.2356 4.59014C-30.6875 4.5223 -30.1882 4.91164 -30.1203 5.45974C-30.0525 6.00784 -30.4418 6.50716 -30.9899 6.57499C-31.6412 6.6556 -32.2914 6.73696 -32.9406 6.81904C-33.4885 6.88833 -33.9889 6.50032 -34.0581 5.95239ZM80.7102 5.50742C80.6283 6.05359 80.1191 6.42994 79.573 6.34802C78.9114 6.24879 78.2494 6.15096 77.5872 6.05456C77.0407 5.97501 76.6621 5.46748 76.7417 4.92095C76.8212 4.37443 77.3287 3.99587 77.8753 4.07542C78.5404 4.17223 79.2052 4.27049 79.8696 4.37015C80.4158 4.45207 80.7921 4.96124 80.7102 5.50742ZM-26.2446 4.99601C-26.3079 4.44737 -25.9145 3.95127 -25.3659 3.88794C-24.713 3.81259 -24.0594 3.73808 -23.4051 3.66445C-22.8563 3.60269 -22.3614 3.99753 -22.2996 4.54635C-22.2378 5.09517 -22.6327 5.59015 -23.1815 5.65191C-23.8339 5.72532 -24.4856 5.79961 -25.1365 5.87475C-25.6852 5.93808 -26.1813 5.54465 -26.2446 4.99601ZM72.7476 4.36687C72.6755 4.91443 72.1731 5.29987 71.6256 5.22778C70.9623 5.14045 70.299 5.0547 69.6358 4.9706C69.0879 4.90111 68.7001 4.40063 68.7696 3.85273C68.8391 3.30484 69.3395 2.91701 69.8874 2.98649C70.5538 3.071 71.2203 3.15715 71.8867 3.24489C72.4342 3.31698 72.8197 3.81931 72.7476 4.36687ZM-18.42 4.12692C-18.4769 3.57758 -18.0777 3.08613 -17.5283 3.02924C-16.8746 2.96154 -16.2204 2.89481 -15.5659 2.82907C-15.0164 2.77388 -14.5262 3.17461 -14.471 3.72413C-14.4158 4.27365 -14.8165 4.76387 -15.366 4.81906C-16.0185 4.88459 -16.6706 4.95111 -17.3223 5.0186C-17.8717 5.07549 -18.3631 4.67627 -18.42 4.12692ZM64.7676 3.37517C64.7064 3.92405 64.2118 4.31936 63.6629 4.25812C62.9966 4.18378 62.3306 4.11124 61.6651 4.04055C61.1159 3.98222 60.7179 3.48972 60.7763 2.94052C60.8346 2.39133 61.3271 1.9934 61.8763 2.05174C62.5454 2.12281 63.2149 2.19573 63.8847 2.27045C64.4335 2.33169 64.8289 2.82629 64.7676 3.37517ZM-10.5866 3.35261C-10.6364 2.80259 -10.231 2.31626 -9.68096 2.26638C-9.02639 2.20701 -8.37171 2.14873 -7.717 2.09158C-7.1668 2.04354 -6.68185 2.45062 -6.63381 3.00082C-6.58578 3.55101 -6.99287 4.03597 -7.54305 4.084C-8.1955 4.14096 -8.84795 4.19904 -9.50031 4.2582C-10.0503 4.30809 -10.5367 3.90264 -10.5866 3.35261ZM-2.74448 2.68161C-2.78669 2.13095 -2.3745 1.65032 -1.82383 1.60811C-1.16759 1.55781 -0.511574 1.50873 0.144142 1.46091C0.694969 1.42074 1.17406 1.8347 1.21424 2.38552C1.2544 2.93635 0.840446 3.41544 0.289619 3.45561C-0.363609 3.50325 -1.01717 3.55214 -1.67098 3.60226C-2.22164 3.64447 -2.70228 3.23229 -2.74448 2.68161ZM56.7638 2.54756C56.7147 3.09765 56.2289 3.50376 55.6788 3.45463C55.0113 3.39501 54.3445 3.33741 53.6785 3.28189C53.1281 3.23601 52.7192 2.75265 52.765 2.20227C52.8109 1.6519 53.2943 1.24292 53.8447 1.28881C54.5146 1.34466 55.1854 1.40259 55.8567 1.46256C56.4068 1.51169 56.8129 1.99746 56.7638 2.54756ZM5.10866 2.12392C5.07494 1.57267 5.49446 1.09844 6.04572 1.0647C6.70282 1.02449 7.35939 0.985653 8.01532 0.948215C8.56671 0.916744 9.03922 1.33822 9.07068 1.88961C9.10216 2.441 8.68068 2.9135 8.12929 2.94497C7.47612 2.98224 6.82228 3.02092 6.16788 3.06097C5.61662 3.09471 5.1424 2.67517 5.10866 2.12392ZM48.7429 1.90416C48.7074 2.4553 48.2318 2.87328 47.6806 2.83776C47.0131 2.79473 46.3466 2.75397 45.6813 2.71553C45.1299 2.68368 44.7088 2.21088 44.7406 1.65952C44.7725 1.10815 45.2453 0.687007 45.7967 0.718862C46.4665 0.75756 47.1374 0.798589 47.8093 0.841901C48.3604 0.877428 48.7784 1.35302 48.7429 1.90416ZM12.97 1.69197C12.9457 1.14022 13.3733 0.673243 13.925 0.648951C14.5822 0.62002 15.2384 0.592619 15.8937 0.566783C16.4456 0.545024 16.9106 0.974753 16.9323 1.52661C16.9541 2.07847 16.5244 2.54347 15.9725 2.56523C15.3203 2.59094 14.6671 2.61822 14.013 2.64702C13.4612 2.67131 12.9942 2.24372 12.97 1.69197ZM40.7106 1.46874C40.6905 2.02066 40.2268 2.4518 39.6749 2.43171C39.0087 2.40747 38.3439 2.38577 37.6808 2.36666C37.1287 2.35076 36.6941 1.89034 36.71 1.33828C36.7259 0.786223 37.1863 0.351588 37.7384 0.367491C38.4066 0.386744 39.0764 0.40861 39.7477 0.433036C40.2996 0.453118 40.7307 0.916819 40.7106 1.46874ZM20.8358 1.40066C20.8221 0.848544 21.2586 0.38988 21.8107 0.376207C22.4669 0.359954 23.1219 0.345409 23.7755 0.332605C24.3276 0.321788 24.784 0.760648 24.7948 1.31283C24.8057 1.86501 24.3668 2.3214 23.8146 2.33222C23.1645 2.34496 22.513 2.35943 21.8602 2.37559C21.3081 2.38927 20.8494 1.95278 20.8358 1.40066ZM32.6754 1.27014C32.673 1.82242 32.2234 2.2682 31.6711 2.26582C31.3395 2.26439 31.0084 2.26367 30.6777 2.26367C30.3535 2.26367 30.0289 2.26415 29.7038 2.2651C29.1515 2.26672 28.7025 1.82031 28.7008 1.26803C28.6992 0.715748 29.1456 0.266723 29.6979 0.265108C30.0249 0.264152 30.3515 0.263672 30.6777 0.263672C31.0112 0.263672 31.3453 0.264397 31.6797 0.265839C32.232 0.268221 32.6778 0.717863 32.6754 1.27014ZM214.904 40.1373C215.066 39.6092 215.625 39.3122 216.153 39.4739L215.861 40.4301L216.153 39.4739L216.153 39.4739L216.154 39.4741L216.157 39.4749L216.167 39.4781L216.21 39.4911L216.381 39.5432C216.533 39.5892 216.761 39.6577 217.061 39.7473C217.59 39.9054 217.891 40.4625 217.733 40.9917C217.575 41.5208 217.017 41.8217 216.488 41.6636C216.186 41.5733 215.957 41.5042 215.802 41.4575L215.627 41.4045L215.583 41.3909L215.572 41.3875L215.569 41.3866L215.568 41.3863L215.568 41.3863L215.568 41.3863L215.568 41.3863L215.861 40.4301L215.568 41.3862C215.04 41.2245 214.743 40.6654 214.904 40.1373ZM221.612 42.1166C221.763 41.5853 222.316 41.277 222.847 41.4279C223.436 41.5952 224.061 41.7717 224.721 41.9568C225.252 42.1061 225.562 42.6581 225.413 43.1898C225.264 43.7216 224.712 44.0317 224.18 43.8825C223.518 43.6967 222.891 43.5197 222.3 43.3518C221.769 43.2009 221.461 42.6479 221.612 42.1166ZM229.266 44.2526C229.411 43.7196 229.96 43.4048 230.493 43.5494C231.13 43.7223 231.786 43.8993 232.46 44.0802C232.993 44.2234 233.31 44.7719 233.166 45.3053C233.023 45.8387 232.475 46.155 231.941 46.0118C231.266 45.8304 230.608 45.6529 229.97 45.4796C229.437 45.335 229.122 44.7856 229.266 44.2526ZM237 46.3188C237.14 45.7844 237.686 45.4639 238.22 45.6031C238.856 45.7686 239.503 45.9363 240.161 46.106C240.696 46.2439 241.018 46.7892 240.88 47.324C240.742 47.8588 240.197 48.1806 239.662 48.0427C239.002 47.8726 238.353 47.7045 237.716 47.5385C237.182 47.3994 236.861 46.8533 237 46.3188ZM244.784 48.3152C244.918 47.7794 245.461 47.4537 245.997 47.5877C246.623 47.7443 247.257 47.9021 247.899 48.061C248.435 48.1937 248.762 48.7359 248.63 49.272C248.497 49.8081 247.955 50.1351 247.419 50.0024C246.775 49.8431 246.14 49.6849 245.512 49.5279C244.976 49.394 244.65 48.851 244.784 48.3152ZM558.055 38.4491C558.587 38.3017 559.138 38.6138 559.285 39.146C559.432 39.6783 559.12 40.2292 558.588 40.3766L558.321 39.4128L558.588 40.3766L558.588 40.3767L558.587 40.3769L558.584 40.3777L558.573 40.3808L558.529 40.3928L558.356 40.4403C558.204 40.4822 557.976 40.5443 557.677 40.6255C557.144 40.7701 556.594 40.4552 556.45 39.9221C556.305 39.3891 556.62 38.8398 557.153 38.6953C557.451 38.6145 557.677 38.5529 557.828 38.5115L557.998 38.4647L558.041 38.4529L558.051 38.45L558.054 38.4493M558.055 38.4491C558.055 38.4491 558.055 38.4491 558.054 38.4491L558.055 38.4491ZM252.513 50.219C252.642 49.6819 253.182 49.3511 253.719 49.4801C254.365 49.6352 255.018 49.7911 255.676 49.9476C256.214 50.0753 256.546 50.6143 256.418 51.1517C256.291 51.689 255.752 52.0211 255.214 51.8934C254.554 51.7366 253.9 51.5803 253.252 51.4248C252.715 51.2959 252.384 50.756 252.513 50.219ZM552.682 40.9192C552.821 41.4537 552.5 41.9997 551.966 42.1388C551.381 42.291 550.76 42.4519 550.104 42.6208C549.569 42.7586 549.024 42.4367 548.886 41.9018C548.748 41.367 549.07 40.8218 549.605 40.684C550.259 40.5155 550.879 40.3551 551.462 40.2032C551.997 40.0642 552.543 40.3847 552.682 40.9192ZM260.314 52.0626C260.438 51.5244 260.974 51.1885 261.513 51.3123C262.156 51.4603 262.804 51.6086 263.457 51.7572C263.995 51.8797 264.333 52.4156 264.21 52.9542C264.087 53.4927 263.552 53.8299 263.013 53.7073C262.359 53.5584 261.709 53.4097 261.064 53.2614C260.526 53.1375 260.19 52.6008 260.314 52.0626ZM545.143 42.8523C545.278 43.388 544.952 43.9311 544.417 44.0654C543.787 44.2232 543.139 44.3849 542.473 44.5503C541.937 44.6835 541.395 44.3569 541.262 43.8209C541.128 43.285 541.455 42.7425 541.991 42.6093C542.656 42.4442 543.302 42.2828 543.93 42.1254C544.466 41.9911 545.009 42.3166 545.143 42.8523ZM537.542 44.7336C537.672 45.2703 537.343 45.8109 536.806 45.941C536.175 46.0939 535.533 46.249 534.879 46.4062C534.342 46.5353 533.802 46.2046 533.673 45.6676C533.544 45.1307 533.875 44.5907 534.412 44.4616C535.064 44.3047 535.705 44.1499 536.335 43.9973C536.872 43.8672 537.412 44.1968 537.542 44.7336ZM268.114 53.8279C268.233 53.2885 268.767 52.9474 269.306 53.0661C269.948 53.2073 270.594 53.3486 271.243 53.4898C271.783 53.6072 272.125 54.1398 272.008 54.6794C271.891 55.2191 271.358 55.5615 270.818 55.4441C270.167 55.3026 269.52 55.161 268.876 55.0194C268.337 54.9007 267.996 54.3673 268.114 53.8279ZM529.904 46.5631C530.03 47.1008 529.696 47.639 529.159 47.7651C528.539 47.9105 527.912 48.0572 527.277 48.205C526.739 48.3302 526.202 47.9957 526.076 47.4578C525.951 46.9199 526.286 46.3824 526.824 46.2571C527.457 46.1096 528.083 45.9632 528.702 45.8181C529.239 45.6919 529.777 46.0254 529.904 46.5631ZM275.92 55.515C276.034 54.9745 276.564 54.6281 277.104 54.7415C277.754 54.8776 278.406 55.0135 279.061 55.1492C279.602 55.2612 279.95 55.7903 279.838 56.3311C279.726 56.872 279.197 57.2196 278.656 57.1077C277.999 56.9716 277.345 56.8354 276.694 56.6989C276.153 56.5856 275.807 56.0555 275.92 55.515ZM522.303 48.3259C522.425 48.8645 522.088 49.4003 521.549 49.5227C520.91 49.668 520.264 49.8142 519.612 49.9611C519.073 50.0825 518.538 49.7442 518.417 49.2054C518.295 48.6667 518.634 48.1315 519.172 48.01C519.823 47.8634 520.468 47.7175 521.106 47.5724C521.645 47.45 522.18 47.7874 522.303 48.3259ZM283.755 57.1263C283.862 56.5846 284.389 56.2329 284.931 56.3407C285.585 56.4708 286.241 56.6006 286.901 56.73C287.443 56.8363 287.796 57.3619 287.689 57.9038C287.583 58.4458 287.058 58.7989 286.516 58.6926C285.855 58.5629 285.196 58.4327 284.54 58.3022C283.999 58.1944 283.647 57.668 283.755 57.1263ZM514.637 50.0468C514.756 50.5862 514.414 51.1196 513.875 51.2382C513.25 51.3756 512.62 51.5135 511.985 51.6518C511.446 51.7694 510.913 51.4273 510.795 50.8877C510.678 50.3481 511.02 49.8153 511.56 49.6977C512.193 49.5597 512.822 49.422 513.446 49.2848C513.985 49.1663 514.518 49.5074 514.637 50.0468ZM291.609 58.6568C291.711 58.114 292.234 57.7567 292.777 57.8586C293.433 57.9819 294.091 58.1047 294.752 58.2268C295.295 58.3273 295.653 58.849 295.553 59.3921C295.453 59.9351 294.931 60.2939 294.388 60.1935C293.726 60.0709 293.065 59.9479 292.408 59.8242C291.865 59.7223 291.507 59.1996 291.609 58.6568ZM507.01 51.7022C507.125 52.2424 506.78 52.7734 506.24 52.8881C505.607 53.0226 504.969 53.1573 504.329 53.2921C503.788 53.4059 503.258 53.06 503.144 52.5195C503.03 51.9791 503.376 51.4488 503.917 51.335C504.556 51.2004 505.192 51.0659 505.824 50.9317C506.365 50.817 506.896 51.162 507.01 51.7022ZM499.355 53.3062C499.466 53.8472 499.117 54.3756 498.576 54.4864C497.936 54.6174 497.293 54.7484 496.647 54.8794C496.105 54.9892 495.578 54.6394 495.468 54.0981C495.358 53.5568 495.708 53.0291 496.249 52.9193C496.894 52.7885 497.536 52.6578 498.175 52.527C498.716 52.4163 499.244 52.7651 499.355 53.3062ZM299.481 60.1017C299.577 59.5578 300.095 59.1946 300.639 59.2904C301.293 59.4057 301.948 59.5202 302.606 59.6341C303.15 59.7284 303.514 60.2459 303.42 60.7901C303.326 61.3343 302.808 61.699 302.264 61.6047C301.605 61.4905 300.948 61.3756 300.292 61.2601C299.748 61.1642 299.385 60.6456 299.481 60.1017ZM491.678 54.8553C491.785 55.3972 491.432 55.923 490.89 56.0297C490.247 56.1564 489.6 56.2829 488.952 56.4094C488.409 56.515 487.884 56.1612 487.779 55.6191C487.673 55.077 488.027 54.5519 488.569 54.4463C489.217 54.3201 489.862 54.1938 490.504 54.0673C491.046 53.9606 491.572 54.3135 491.678 54.8553ZM307.367 61.4559C307.457 60.9109 307.971 60.5415 308.516 60.6309C309.169 60.738 309.823 60.8443 310.479 60.9498C311.024 61.0375 311.395 61.5507 311.307 62.0959C311.22 62.6412 310.706 63.0121 310.161 62.9244C309.503 62.8186 308.847 62.712 308.192 62.6046C307.647 62.5152 307.278 62.0009 307.367 61.4559ZM483.988 56.3461C484.09 56.8889 483.733 57.4118 483.19 57.5142C482.551 57.6348 481.91 57.7552 481.267 57.8753C480.724 57.9766 480.201 57.6186 480.1 57.0757C479.999 56.5328 480.357 56.0105 480.9 55.9092C481.542 55.7894 482.182 55.6693 482.82 55.5489C483.362 55.4465 483.885 55.8034 483.988 56.3461ZM315.262 62.7129C315.345 62.1669 315.854 61.791 316.4 61.8735C317.056 61.9725 317.712 62.0706 318.369 62.1677C318.916 62.2484 319.293 62.7567 319.212 63.3031C319.132 63.8494 318.623 64.2269 318.077 64.1462C317.417 64.0488 316.759 63.9504 316.101 63.8511C315.555 63.7686 315.18 63.259 315.262 62.7129ZM476.286 57.7753C476.384 58.3188 476.023 58.8388 475.48 58.9368C474.843 59.0516 474.204 59.166 473.564 59.28C473.02 59.3768 472.501 59.0145 472.404 58.4707C472.307 57.927 472.669 57.4077 473.213 57.3109C473.852 57.1972 474.489 57.083 475.125 56.9685C475.669 56.8705 476.189 57.2317 476.286 57.7753ZM323.173 63.8677C323.248 63.3206 323.753 62.9379 324.3 63.013C324.958 63.1033 325.616 63.1925 326.275 63.2806C326.823 63.3538 327.207 63.8568 327.134 64.4043C327.061 64.9517 326.558 65.3361 326.01 65.263C325.349 65.1745 324.688 65.085 324.028 64.9944C323.481 64.9193 323.098 64.4149 323.173 63.8677ZM468.586 59.1376C468.68 59.682 468.314 60.1989 467.77 60.2921C467.13 60.4018 466.488 60.5109 465.846 60.6195C465.301 60.7116 464.785 60.3447 464.693 59.8002C464.601 59.2556 464.968 58.7395 465.512 58.6475C466.153 58.5391 466.793 58.4302 467.432 58.3208C467.976 58.2276 468.493 58.5933 468.586 59.1376ZM460.871 60.4326C460.96 60.9778 460.589 61.4913 460.044 61.5796C459.402 61.6836 458.758 61.787 458.114 61.8898C457.568 61.9768 457.056 61.6052 456.969 61.0598C456.882 60.5144 457.253 60.0017 457.799 59.9148C458.442 59.8122 459.083 59.7091 459.724 59.6053C460.27 59.517 460.783 59.8874 460.871 60.4326ZM331.101 64.9127C331.169 64.3645 331.667 63.9745 332.216 64.0417C332.875 64.1225 333.535 64.202 334.196 64.2804C334.744 64.3454 335.136 64.8428 335.071 65.3912C335.006 65.9396 334.509 66.3315 333.96 66.2665C333.297 66.1878 332.635 66.1079 331.972 66.0268C331.424 65.9597 331.034 65.4609 331.101 64.9127ZM453.143 61.6557C453.226 62.2017 452.85 62.7116 452.304 62.7946C451.66 62.8925 451.015 62.9897 450.369 63.0862C449.822 63.1678 449.313 62.7911 449.232 62.2449C449.15 61.6986 449.527 61.1897 450.073 61.1081C450.717 61.0119 451.361 60.9149 452.004 60.8173C452.55 60.7343 453.06 61.1097 453.143 61.6557ZM339.045 65.8389C339.104 65.2897 339.596 64.8919 340.146 64.9504C340.807 65.0209 341.468 65.09 342.13 65.1576C342.679 65.2139 343.079 65.7048 343.023 66.2542C342.967 66.8036 342.476 67.2035 341.926 67.1472C341.262 67.0793 340.598 67.0099 339.934 66.9392C339.385 66.8807 338.987 66.3881 339.045 65.8389ZM445.401 62.8018C445.478 63.3487 445.098 63.8546 444.551 63.9319C443.905 64.0232 443.258 64.1137 442.611 64.2033C442.064 64.2791 441.559 63.8971 441.483 63.35C441.407 62.803 441.789 62.2981 442.337 62.2223C442.982 62.1329 443.627 62.0426 444.271 61.9516C444.818 61.8743 445.324 62.255 445.401 62.8018ZM347.004 66.6359C347.053 66.0858 347.538 65.6796 348.089 65.7287C348.751 65.7878 349.413 65.8454 350.076 65.9014C350.626 65.948 351.034 66.4319 350.988 66.9822C350.941 67.5325 350.457 67.9409 349.907 67.8943C349.242 67.838 348.576 67.7801 347.911 67.7208C347.361 67.6717 346.955 67.186 347.004 66.6359ZM437.647 63.8652C437.718 64.4129 437.332 64.9145 436.784 64.9857C436.137 65.0698 435.489 65.153 434.841 65.2353C434.293 65.3048 433.793 64.917 433.723 64.3691C433.654 63.8212 434.041 63.3207 434.589 63.2512C435.235 63.1692 435.881 63.0862 436.527 63.0023C437.074 62.9312 437.576 63.3175 437.647 63.8652ZM429.881 64.8391C429.946 65.3876 429.553 65.8846 429.005 65.9491C428.356 66.0254 427.707 66.1007 427.059 66.1749C426.51 66.2376 426.014 65.8437 425.952 65.295C425.889 64.7463 426.283 64.2506 426.831 64.1878C427.478 64.1139 428.125 64.0388 428.771 63.9628C429.32 63.8983 429.817 64.2906 429.881 64.8391ZM354.975 67.2915C355.014 66.7406 355.492 66.3254 356.043 66.3641C356.706 66.4107 357.369 66.4556 358.031 66.4989C358.582 66.5348 359 67.0108 358.964 67.5619C358.928 68.113 358.452 68.5306 357.901 68.4946C357.235 68.4512 356.569 68.406 355.903 68.3592C355.352 68.3204 354.936 67.8425 354.975 67.2915ZM422.104 65.7159C422.161 66.2652 421.762 66.757 421.213 66.8142C420.563 66.882 419.914 66.9485 419.265 67.0139C418.715 67.0693 418.225 66.6687 418.169 66.1192C418.114 65.5697 418.515 65.0793 419.064 65.024C419.711 64.9588 420.358 64.8925 421.005 64.825C421.555 64.7677 422.046 65.1666 422.104 65.7159ZM362.958 67.7915C362.985 67.2399 363.454 66.8148 364.006 66.8421C364.669 66.8749 365.332 66.9058 365.994 66.9349C366.546 66.9591 366.974 67.426 366.949 67.9778C366.925 68.5295 366.458 68.9572 365.906 68.933C365.241 68.9037 364.574 68.8726 363.907 68.8396C363.356 68.8124 362.93 68.3431 362.958 67.7915ZM414.315 66.4864C414.364 67.0365 413.958 67.5224 413.408 67.5717C412.758 67.63 412.108 67.687 411.459 67.7427C410.909 67.7899 410.424 67.3821 410.377 66.8318C410.33 66.2816 410.738 65.7972 411.288 65.75C411.935 65.6946 412.582 65.6378 413.23 65.5797C413.78 65.5304 414.266 65.9364 414.315 66.4864ZM370.949 68.1188C370.963 67.5667 371.422 67.1309 371.974 67.1454C372.638 67.1629 373.3 67.1782 373.96 67.1915C374.513 67.2026 374.951 67.6592 374.94 68.2114C374.929 68.7636 374.472 69.2022 373.92 69.1911C373.255 69.1777 372.589 69.1623 371.922 69.1447C371.37 69.1302 370.934 68.6709 370.949 68.1188ZM406.516 67.1399C406.557 67.6907 406.143 68.17 405.593 68.2105C404.942 68.2584 404.292 68.3048 403.643 68.3498C403.092 68.3879 402.615 67.9722 402.577 67.4213C402.538 66.8703 402.954 66.3927 403.505 66.3546C404.151 66.3098 404.798 66.2636 405.446 66.2159C405.997 66.1754 406.476 66.5891 406.516 67.1399ZM378.943 68.2532C378.943 67.701 379.391 67.2534 379.944 67.2536C380.606 67.2538 381.266 67.2518 381.925 67.2474C382.478 67.2437 382.928 67.6885 382.932 68.2408C382.936 68.793 382.491 69.2437 381.939 69.2473C381.275 69.2517 380.61 69.2538 379.943 69.2536C379.391 69.2534 378.943 68.8055 378.943 68.2532ZM398.709 67.6635C398.74 68.2149 398.318 68.6868 397.766 68.7175C397.115 68.7538 396.465 68.7885 395.816 68.8215C395.264 68.8496 394.794 68.4252 394.766 67.8736C394.738 67.3221 395.162 66.8522 395.714 66.8241C396.36 66.7912 397.007 66.7567 397.655 66.7206C398.207 66.6899 398.679 67.112 398.709 67.6635ZM386.935 68.1705C386.919 67.6184 387.354 67.1579 387.906 67.1419C388.236 67.1323 388.565 67.1221 388.893 67.1112C389.216 67.1006 389.538 67.0895 389.861 67.078C390.413 67.0584 390.877 67.4898 390.896 68.0418C390.916 68.5937 390.484 69.0571 389.932 69.0768C389.608 69.0883 389.283 69.0995 388.959 69.1102C388.628 69.1211 388.296 69.1314 387.964 69.141C387.412 69.157 386.951 68.7225 386.935 68.1705ZM972.904 46.1374C972.742 46.6655 973.039 47.2246 973.568 47.3863L972.904 46.1374ZM973.568 47.3863L973.86 46.4302L973.568 47.3863ZM973.86 46.4302L973.568 47.3864L973.86 46.4302ZM973.568 47.3864L973.568 47.3864L973.568 47.3864ZM973.568 47.3864V47.3864V47.3864ZM973.568 47.3864L973.568 47.3864L973.568 47.3864ZM973.568 47.3864L973.569 47.3867L973.568 47.3864ZM973.569 47.3867L973.571 47.3875L973.569 47.3867ZM973.571 47.3875L973.582 47.3907L973.571 47.3875ZM973.582 47.3907L973.623 47.4033L973.582 47.3907ZM973.623 47.4033L973.787 47.453L973.623 47.4033ZM973.787 47.453C973.931 47.4968 974.146 47.5619 974.43 47.6471L973.787 47.453ZM974.367 45.539C974.51 45.5823 974.723 45.6468 975.005 45.7315C975.534 45.8903 975.834 46.4478 975.676 46.9767C975.517 47.5057 974.959 47.8058 974.43 47.6471M974.367 45.539L974.206 45.4902L974.367 45.539ZM974.206 45.4902L974.166 45.478L974.206 45.4902ZM974.166 45.478L974.156 45.4749L974.166 45.478ZM974.156 45.4749L974.154 45.4742L974.156 45.4749ZM974.154 45.4742L974.153 45.474L974.154 45.4742ZM974.153 45.474L974.153 45.474L974.153 45.474ZM974.153 45.474V45.474V45.474ZM979.532 48.1064C979.685 47.5757 980.24 47.2693 980.77 47.4222C981.364 47.5931 981.995 47.774 982.662 47.9644C983.193 48.1159 983.501 48.6693 983.349 49.2004C983.198 49.7315 982.645 50.0392 982.113 49.8877C981.444 49.6968 980.812 49.5155 980.217 49.3441C979.686 49.1912 979.38 48.6371 979.532 48.1064ZM987.185 50.2797C987.332 49.7475 987.884 49.4361 988.416 49.5839C989.029 49.7543 989.66 49.929 990.308 50.1077C990.84 50.2545 991.153 50.8051 991.006 51.3375C990.859 51.87 990.309 52.1826 989.776 52.0358C989.127 51.8566 988.495 51.6816 987.88 51.5109C987.348 51.363 987.037 50.8118 987.185 50.2797ZM994.855 52.3864C994.999 51.8532 995.548 51.5374 996.081 51.6811C996.715 51.852 997.362 52.0256 998.02 52.2017C998.554 52.3444 998.871 52.8926 998.728 53.4261C998.585 53.9596 998.037 54.2765 997.504 54.1338C996.844 53.9574 996.196 53.7835 995.56 53.6122C995.027 53.4685 994.711 52.9197 994.855 52.3864ZM1002.57 54.4415C1002.71 53.9072 1003.25 53.5874 1003.79 53.7272C1004.41 53.8898 1005.04 54.054 1005.68 54.2197C1006.21 54.3586 1006.53 54.9045 1006.39 55.4391C1006.25 55.9736 1005.71 56.2943 1005.17 56.1554C1004.53 55.9895 1003.9 55.825 1003.28 55.6621C1002.75 55.5223 1002.43 54.9758 1002.57 54.4415ZM1010.24 56.4294C1010.38 55.8942 1010.92 55.5707 1011.46 55.7068C1012.09 55.8681 1012.74 56.0306 1013.38 56.194C1013.92 56.3293 1014.24 56.873 1014.11 57.4084C1013.97 57.9439 1013.43 58.2684 1012.89 58.1332C1012.24 57.9694 1011.6 57.8067 1010.97 57.6451C1010.43 57.5089 1010.11 56.9647 1010.24 56.4294ZM1017.96 58.3706C1018.09 57.8344 1018.63 57.5072 1019.17 57.6397C1019.81 57.7981 1020.46 57.9572 1021.11 58.1171C1021.64 58.2487 1021.97 58.7902 1021.84 59.3266C1021.71 59.8629 1021.17 60.1911 1020.63 60.0595C1019.98 59.8993 1019.33 59.7399 1018.69 59.5813C1018.15 59.4488 1017.83 58.9067 1017.96 58.3706ZM1455.04 44.7369C1455.19 45.2692 1454.87 45.8201 1454.34 45.9675L1454.34 45.9676L1454.34 45.9678L1454.34 45.9686L1454.33 45.9715L1454.28 45.9832L1454.12 46.0292C1454.03 46.0536 1453.91 46.0853 1453.77 46.1239L1453.46 46.2092C1452.93 46.3542 1452.38 46.0398 1452.23 45.5069C1452.09 44.974 1452.4 44.4244 1452.93 44.2794C1453.22 44.2007 1453.44 44.1407 1453.59 44.1005L1453.75 44.0551L1453.79 44.0438L1453.8 44.0409L1453.81 44.0402L1453.81 44.04C1454.34 43.8927 1454.89 44.2047 1455.04 44.7369ZM1025.69 60.2611C1025.82 59.7241 1026.36 59.3932 1026.9 59.5221C1027.54 59.6766 1028.19 59.8316 1028.84 59.9871C1029.38 60.1151 1029.71 60.6544 1029.58 61.1916C1029.45 61.7289 1028.91 62.0606 1028.38 61.9326C1027.72 61.7769 1027.07 61.6216 1026.43 61.4669C1025.89 61.338 1025.56 60.7981 1025.69 60.2611ZM1448.31 46.5535C1448.45 47.0877 1448.13 47.6345 1447.59 47.7749C1446.97 47.938 1446.31 48.1109 1445.61 48.2932C1445.08 48.4326 1444.53 48.1123 1444.39 47.5779C1444.25 47.0434 1444.57 46.4972 1445.11 46.3579C1445.81 46.1759 1446.47 46.0034 1447.08 45.8407C1447.62 45.7003 1448.17 46.0194 1448.31 46.5535ZM1440.52 48.5759C1440.66 49.1111 1440.34 49.6556 1439.8 49.7921C1439.16 49.9552 1438.5 50.1226 1437.83 50.2941C1437.29 50.4297 1436.75 50.1057 1436.61 49.5703C1436.48 49.035 1436.8 48.491 1437.33 48.3553C1438.01 48.1841 1438.67 48.017 1439.31 47.8542C1439.84 47.7176 1440.39 48.0408 1440.52 48.5759ZM1033.44 62.0999C1033.56 61.5621 1034.1 61.2276 1034.64 61.3529C1035.28 61.503 1035.93 61.6534 1036.58 61.8041C1037.12 61.9285 1037.46 62.4655 1037.33 63.0036C1037.21 63.5417 1036.67 63.8771 1036.13 63.7527C1035.48 63.6018 1034.83 63.4511 1034.18 63.3008C1033.65 63.1755 1033.31 62.6378 1033.44 62.0999ZM1432.65 50.5635C1432.79 51.0995 1432.46 51.6419 1431.92 51.7752C1431.3 51.9294 1430.67 52.0859 1430.03 52.2447C1429.49 52.3772 1428.95 52.0499 1428.82 51.5138C1428.69 50.9776 1429.01 50.4356 1429.55 50.3031C1430.19 50.1445 1430.82 49.9882 1431.44 49.8342C1431.98 49.701 1432.52 50.0275 1432.65 50.5635ZM1041.2 63.8869C1041.32 63.3482 1041.85 63.0101 1042.39 63.1317C1043.04 63.2772 1043.68 63.4227 1044.33 63.5684C1044.87 63.6892 1045.21 64.2239 1045.09 64.7628C1044.97 65.3018 1044.43 65.6408 1043.9 65.52C1043.24 65.3741 1042.6 65.2283 1041.95 65.0826C1041.41 64.9609 1041.07 64.4256 1041.2 63.8869ZM1424.9 52.4738C1425.03 53.0105 1424.7 53.5511 1424.16 53.6814C1423.52 53.838 1422.86 53.9962 1422.2 54.1561C1421.66 54.2856 1421.12 53.9554 1420.99 53.4185C1420.86 52.8816 1421.19 52.3414 1421.73 52.2119C1422.39 52.0522 1423.05 51.8942 1423.69 51.7378C1424.23 51.6075 1424.77 51.937 1424.9 52.4738ZM1048.97 65.6215C1049.09 65.082 1049.62 64.7402 1050.16 64.8582C1050.8 64.9988 1051.45 65.1394 1052.1 65.28C1052.64 65.397 1052.98 65.9294 1052.86 66.4692C1052.75 67.0089 1052.21 67.3516 1051.67 67.2346C1051.02 67.0937 1050.38 66.9529 1049.73 66.812C1049.19 66.6941 1048.85 66.161 1048.97 65.6215ZM1417.07 54.356C1417.2 54.8934 1416.87 55.4323 1416.33 55.5597C1415.67 55.7157 1415.01 55.8728 1414.34 56.0311C1413.8 56.1578 1413.26 55.8246 1413.13 55.2871C1413.01 54.7495 1413.34 54.2111 1413.88 54.0844C1414.55 53.9263 1415.21 53.7694 1415.87 53.6136C1416.41 53.4862 1416.95 53.8186 1417.07 54.356ZM1056.76 67.303C1056.87 66.7627 1057.4 66.4172 1057.94 66.5314C1058.59 66.6671 1059.23 66.8027 1059.88 66.9381C1060.42 67.0513 1060.76 67.5813 1060.65 68.1219C1060.54 68.6624 1060.01 69.0089 1059.47 68.8957C1058.82 68.7599 1058.17 68.6241 1057.53 68.4882C1056.99 68.374 1056.64 67.8434 1056.76 67.303ZM1409.22 56.1996C1409.35 56.7376 1409.01 57.2748 1408.48 57.3993C1407.82 57.5519 1407.15 57.7052 1406.48 57.8594C1405.94 57.9833 1405.41 57.6473 1405.28 57.1091C1405.16 56.5709 1405.5 56.0342 1406.03 55.9103C1406.7 55.7564 1407.37 55.6032 1408.03 55.4508C1408.56 55.3263 1409.1 55.6615 1409.22 56.1996ZM1064.56 68.9303C1064.67 68.3891 1065.2 68.0398 1065.74 68.1501C1066.38 68.2808 1067.03 68.4113 1067.67 68.5416C1068.21 68.6509 1068.56 69.1784 1068.46 69.7197C1068.35 70.2611 1067.82 70.6114 1067.28 70.5021C1066.63 70.3715 1065.99 70.2408 1065.34 70.1098C1064.8 69.9995 1064.45 69.4714 1064.56 68.9303ZM1401.37 58.0012C1401.49 58.5399 1401.16 59.0753 1400.62 59.197C1399.96 59.345 1399.3 59.4935 1398.64 59.6425C1398.1 59.7636 1397.57 59.4249 1397.45 58.886C1397.32 58.3471 1397.66 57.8122 1398.2 57.6911C1398.86 57.5423 1399.52 57.394 1400.18 57.2462C1400.71 57.1245 1401.25 57.4625 1401.37 58.0012ZM1393.52 59.7604C1393.64 60.2998 1393.3 60.8334 1392.76 60.9524C1392.1 61.0969 1391.44 61.2418 1390.78 61.387C1390.24 61.5053 1389.71 61.1638 1389.59 60.6243C1389.47 60.0849 1389.81 59.5517 1390.35 59.4334C1391.01 59.2883 1391.67 59.1436 1392.33 58.9993C1392.86 58.8803 1393.4 59.2211 1393.52 59.7604ZM1072.36 70.4966C1072.47 69.9546 1072.99 69.6014 1073.53 69.7077C1074.18 69.835 1074.83 69.962 1075.49 70.0887C1076.03 70.194 1076.38 70.7188 1076.28 71.261C1076.17 71.8031 1075.65 72.1573 1075.1 72.0521C1074.45 71.9251 1073.8 71.7979 1073.15 71.6703C1072.61 71.564 1072.25 71.0386 1072.36 70.4966ZM1385.66 61.4777C1385.77 62.0177 1385.43 62.5495 1384.89 62.6657C1384.23 62.8075 1383.57 62.9495 1382.9 63.0918C1382.36 63.2072 1381.83 62.8629 1381.72 62.3229C1381.6 61.7828 1381.95 61.2514 1382.49 61.1359C1383.15 60.9939 1383.81 60.852 1384.47 60.7104C1385.01 60.5942 1385.54 60.9378 1385.66 61.4777ZM1080.16 72.0037C1080.26 71.4609 1080.79 71.1037 1081.33 71.2059C1081.98 71.329 1082.64 71.4517 1083.3 71.574C1083.84 71.6751 1084.2 72.1972 1084.1 72.7401C1083.99 73.2831 1083.47 73.6413 1082.93 73.5402C1082.27 73.4177 1081.61 73.2947 1080.96 73.1714C1080.42 73.0692 1080.06 72.5464 1080.16 72.0037ZM1377.79 63.1533C1377.91 63.6939 1377.56 64.2239 1377.02 64.3372C1376.36 64.476 1375.69 64.6149 1375.02 64.754C1374.48 64.8665 1373.95 64.5194 1373.84 63.9787C1373.73 63.4381 1374.08 62.9085 1374.62 62.7959C1375.28 62.6571 1375.95 62.5183 1376.61 62.3797C1377.15 62.2664 1377.68 62.6128 1377.79 63.1533ZM1087.98 73.4522C1088.08 72.9086 1088.6 72.5473 1089.15 72.6452C1089.8 72.7626 1090.45 72.8796 1091.11 72.9961C1091.65 73.0928 1092.01 73.612 1091.92 74.1558C1091.82 74.6995 1091.3 75.0619 1090.76 74.9651C1090.1 74.8484 1089.45 74.7312 1088.79 74.6135C1088.25 74.5157 1087.89 73.9957 1087.98 73.4522ZM1369.92 64.7872C1370.03 65.3284 1369.68 65.8565 1369.14 65.9669C1368.48 66.1016 1367.81 66.2363 1367.15 66.3709C1366.61 66.4806 1366.08 66.1306 1365.97 65.5893C1365.86 65.048 1366.21 64.5204 1366.75 64.4107C1367.42 64.2762 1368.08 64.1417 1368.74 64.0072C1369.28 63.8969 1369.81 64.2461 1369.92 64.7872ZM1095.83 74.8392C1095.92 74.2949 1096.44 73.9293 1096.98 74.0227C1097.63 74.1344 1098.28 74.2456 1098.94 74.3562C1099.48 74.4484 1099.85 74.9646 1099.76 75.5092C1099.66 76.0537 1099.15 76.4203 1098.6 76.3281C1097.95 76.2172 1097.3 76.1058 1096.64 75.9939C1096.1 75.9005 1095.73 75.3835 1095.83 74.8392ZM1362.03 66.3789C1362.14 66.9206 1361.78 67.4468 1361.24 67.5542C1360.58 67.6847 1359.92 67.8151 1359.26 67.9455C1358.72 68.0521 1358.19 67.6992 1358.09 67.1573C1357.98 66.6154 1358.33 66.0897 1358.88 65.9831C1359.54 65.8529 1360.2 65.7227 1360.85 65.5924C1361.4 65.485 1361.92 65.8371 1362.03 66.3789ZM1354.13 67.9273C1354.23 68.4696 1353.88 68.9938 1353.34 69.0981C1352.68 69.2244 1352.02 69.3506 1351.36 69.4766C1350.82 69.5801 1350.29 69.2242 1350.19 68.6817C1350.09 68.1392 1350.44 67.6155 1350.98 67.512C1351.64 67.3862 1352.3 67.2602 1352.96 67.1341C1353.5 67.0298 1354.02 67.3849 1354.13 67.9273ZM1103.68 76.1615C1103.77 75.6164 1104.29 75.2464 1104.83 75.3351C1105.48 75.441 1106.13 75.5463 1106.79 75.651C1107.33 75.7385 1107.7 76.2515 1107.61 76.7968C1107.53 77.3422 1107.01 77.7133 1106.47 77.6257C1105.81 77.5208 1105.16 77.4153 1104.51 77.3091C1103.96 77.2204 1103.59 76.7066 1103.68 76.1615ZM1346.21 69.431C1346.32 69.974 1345.96 70.4961 1345.41 70.5972C1344.76 70.7193 1344.1 70.8412 1343.44 70.9629C1342.9 71.0631 1342.38 70.7042 1342.28 70.1611C1342.18 69.618 1342.54 69.0964 1343.08 68.9961C1343.74 68.8746 1344.39 68.7529 1345.05 68.631C1345.59 68.5299 1346.11 68.8881 1346.21 69.431ZM1111.54 77.4134C1111.62 76.8675 1112.13 76.4929 1112.68 76.5768C1113.34 76.6774 1113.99 76.7774 1114.65 76.8767C1115.19 76.9593 1115.57 77.4689 1115.49 78.015C1115.4 78.5611 1114.9 78.9368 1114.35 78.8542C1113.69 78.7547 1113.03 78.6545 1112.38 78.5536C1111.83 78.4697 1111.46 77.9593 1111.54 77.4134ZM1338.29 70.8883C1338.39 71.4318 1338.02 71.9518 1337.48 72.0496C1336.83 72.1674 1336.17 72.2851 1335.51 72.4024C1334.97 72.4993 1334.45 72.1371 1334.35 71.5934C1334.25 71.0497 1334.62 70.5304 1335.16 70.4334C1335.82 70.3163 1336.47 70.1989 1337.13 70.0812C1337.67 69.9834 1338.19 70.3447 1338.29 70.8883ZM1119.41 78.5935C1119.48 78.0468 1119.99 77.6675 1120.54 77.7462C1121.19 77.8407 1121.85 77.9345 1122.51 78.0276C1123.06 78.105 1123.44 78.611 1123.36 79.1579C1123.28 79.7047 1122.77 80.0853 1122.23 80.0079C1121.57 79.9146 1120.91 79.8205 1120.25 79.7258C1119.71 79.6471 1119.33 79.1401 1119.41 78.5935ZM1330.37 72.2932C1330.47 72.8374 1330.1 73.355 1329.56 73.4494C1328.9 73.5642 1328.23 73.6787 1327.57 73.7929C1327.02 73.8864 1326.51 73.5209 1326.41 72.9766C1326.32 72.4323 1326.69 71.9152 1327.23 71.8217C1327.89 71.7078 1328.56 71.5935 1329.22 71.4788C1329.76 71.3844 1330.28 71.749 1330.37 72.2932ZM1127.29 79.6993C1127.36 79.1519 1127.86 78.7676 1128.41 78.841C1129.07 78.9288 1129.72 79.016 1130.38 79.1023C1130.93 79.1742 1131.31 79.6764 1131.24 80.224C1131.17 80.7716 1130.67 81.1572 1130.12 81.0852C1129.46 80.9987 1128.8 80.9114 1128.15 80.8232C1127.6 80.7499 1127.21 80.2467 1127.29 79.6993ZM1322.45 73.6479C1322.54 74.1926 1322.17 74.7079 1321.63 74.7987C1320.96 74.9092 1320.3 75.0194 1319.63 75.1291C1319.09 75.219 1318.57 74.8501 1318.48 74.3052C1318.39 73.7602 1318.76 73.2456 1319.31 73.1557C1319.97 73.0462 1320.63 72.9363 1321.3 72.8259C1321.84 72.7351 1322.36 73.1031 1322.45 73.6479ZM1135.18 80.7261C1135.25 80.178 1135.75 79.7884 1136.3 79.8561C1136.95 79.9371 1137.61 80.0173 1138.27 80.0966C1138.82 80.1628 1139.21 80.6609 1139.14 81.2092C1139.08 81.7575 1138.58 82.1484 1138.03 82.0822C1137.37 82.0027 1136.71 81.9223 1136.05 81.841C1135.5 81.7734 1135.12 81.2742 1135.18 80.7261ZM1314.51 74.9508C1314.59 75.4962 1314.22 76.0089 1313.68 76.0959C1313.01 76.2017 1312.35 76.3069 1311.69 76.4117C1311.14 76.4978 1310.63 76.1254 1310.54 75.5799C1310.46 75.0343 1310.83 74.5223 1311.37 74.4362C1312.04 74.3316 1312.7 74.2265 1313.36 74.1209C1313.91 74.0339 1314.42 74.4054 1314.51 74.9508ZM1306.55 76.1989C1306.63 76.7449 1306.26 77.2549 1305.71 77.338C1305.05 77.4389 1304.39 77.5392 1303.72 77.639C1303.18 77.7211 1302.67 77.3449 1302.59 76.7988C1302.51 76.2527 1302.88 75.7433 1303.43 75.6612C1304.09 75.5616 1304.75 75.4615 1305.41 75.3608C1305.96 75.2777 1306.47 75.6529 1306.55 76.1989ZM1143.08 81.6686C1143.15 81.1198 1143.64 80.7248 1144.19 80.7864C1144.85 80.8603 1145.51 80.9333 1146.17 81.0053C1146.71 81.0653 1147.11 81.5591 1147.05 82.1081C1146.99 82.6571 1146.5 83.0535 1145.95 82.9934C1145.29 82.9212 1144.63 82.848 1143.97 82.7739C1143.42 82.7123 1143.02 82.2174 1143.08 81.6686ZM1298.59 77.3888C1298.67 77.9354 1298.29 78.4426 1297.74 78.5216C1297.08 78.6174 1296.42 78.7126 1295.75 78.8073C1295.2 78.8852 1294.7 78.5052 1294.62 77.9584C1294.54 77.4117 1294.92 76.9053 1295.47 76.8273C1296.13 76.7328 1296.79 76.6378 1297.45 76.5422C1298 76.4631 1298.51 76.8422 1298.59 77.3888ZM1151 82.5224C1151.05 81.9729 1151.54 81.5722 1152.09 81.6274C1152.75 81.6936 1153.41 81.7588 1154.07 81.8229C1154.62 81.8765 1155.02 82.3655 1154.97 82.9152C1154.91 83.4648 1154.42 83.867 1153.87 83.8135C1153.21 83.7491 1152.55 83.6837 1151.89 83.6174C1151.34 83.5621 1150.94 83.0719 1151 82.5224ZM1290.62 78.5162C1290.7 79.0634 1290.32 79.5675 1289.77 79.6422C1289.1 79.7331 1288.44 79.8233 1287.77 79.9128C1287.22 79.9864 1286.72 79.6023 1286.65 79.0549C1286.57 78.5076 1286.96 78.0042 1287.5 77.9307C1288.17 77.8413 1288.83 77.7513 1289.5 77.6606C1290.05 77.5859 1290.55 77.969 1290.62 78.5162ZM1158.92 83.2819C1158.97 82.7318 1159.46 82.325 1160.01 82.3734C1160.67 82.4314 1161.32 82.4884 1161.98 82.5442C1162.53 82.5908 1162.94 83.0747 1162.9 83.6251C1162.85 84.1754 1162.37 84.5837 1161.82 84.5371C1161.15 84.4811 1160.49 84.4239 1159.83 84.3657C1159.28 84.3173 1158.87 83.8321 1158.92 83.2819ZM1282.65 79.5795C1282.72 80.1273 1282.33 80.6283 1281.78 80.6983C1281.12 80.7835 1280.45 80.868 1279.78 80.9518C1279.24 81.0206 1278.74 80.6323 1278.67 80.0843C1278.6 79.5363 1278.99 79.0363 1279.53 78.9674C1280.2 78.8838 1280.86 78.7995 1281.53 78.7145C1282.08 78.6444 1282.58 79.0317 1282.65 79.5795ZM1166.85 83.9405C1166.89 83.3897 1167.37 82.9766 1167.92 83.0177C1168.58 83.067 1169.25 83.1152 1169.91 83.1622C1170.46 83.2014 1170.87 83.6798 1170.83 84.2307C1170.79 84.7816 1170.32 85.1964 1169.76 85.1572C1169.1 85.11 1168.44 85.0616 1167.77 85.0121C1167.22 84.971 1166.81 84.4912 1166.85 83.9405ZM1274.66 80.5745C1274.73 81.1229 1274.33 81.6204 1273.78 81.6856C1273.12 81.7649 1272.45 81.8434 1271.78 81.9211C1271.24 81.985 1270.74 81.5921 1270.68 81.0435C1270.61 80.495 1271 79.9984 1271.55 79.9345C1272.22 79.857 1272.88 79.7787 1273.55 79.6996C1274.1 79.6344 1274.59 80.0261 1274.66 80.5745ZM1174.79 84.4909C1174.82 83.9396 1175.29 83.5197 1175.84 83.553C1176.51 83.593 1177.17 83.6318 1177.83 83.6693C1178.38 83.7005 1178.8 84.1728 1178.77 84.7242C1178.74 85.2756 1178.27 85.6973 1177.72 85.6661C1177.05 85.6284 1176.39 85.5895 1175.72 85.5493C1175.17 85.516 1174.75 85.0422 1174.79 84.4909ZM1266.67 81.4964C1266.73 82.0454 1266.33 82.5391 1265.78 82.5991C1265.11 82.6722 1264.44 82.7444 1263.78 82.8157C1263.23 82.8743 1262.73 82.4767 1262.68 81.9275C1262.62 81.3784 1263.01 80.8857 1263.56 80.827C1264.23 80.7558 1264.9 80.6838 1265.56 80.6109C1266.11 80.5509 1266.61 80.9474 1266.67 81.4964ZM1258.67 82.3405C1258.72 82.8901 1258.32 83.3797 1257.77 83.4342C1257.1 83.5004 1256.43 83.5658 1255.76 83.6302C1255.21 83.6832 1254.72 83.2805 1254.67 82.7308C1254.62 82.181 1255.02 81.6924 1255.57 81.6395C1256.24 81.5752 1256.9 81.51 1257.57 81.4439C1258.12 81.3895 1258.61 81.7909 1258.67 82.3405ZM1182.74 84.9262C1182.76 84.3745 1183.23 83.9474 1183.78 83.9723C1184.44 84.002 1185.1 84.0304 1185.76 84.0574C1186.31 84.0801 1186.74 84.5458 1186.72 85.0976C1186.69 85.6494 1186.23 86.0784 1185.68 86.0557C1185.02 86.0286 1184.35 86.0001 1183.69 85.9702C1183.14 85.9454 1182.71 85.478 1182.74 84.9262ZM1250.65 83.102C1250.7 83.6522 1250.29 84.1375 1249.74 84.1859C1249.07 84.2448 1248.41 84.3027 1247.74 84.3595C1247.19 84.4064 1246.7 83.9984 1246.66 83.4481C1246.61 82.8978 1247.02 82.4137 1247.57 82.3667C1248.23 82.31 1248.9 82.2523 1249.57 82.1937C1250.12 82.1452 1250.6 82.5519 1250.65 83.102ZM1190.7 85.2364C1190.71 84.6843 1191.17 84.2496 1191.72 84.2653C1192.38 84.2842 1193.05 84.3016 1193.7 84.3176C1194.26 84.331 1194.69 84.7894 1194.68 85.3415C1194.67 85.8936 1194.21 86.3304 1193.66 86.317C1192.99 86.301 1192.33 86.2835 1191.67 86.2645C1191.11 86.2488 1190.68 85.7885 1190.7 85.2364ZM1242.63 83.774C1242.67 84.3247 1242.26 84.8052 1241.71 84.8472C1241.04 84.8984 1240.37 84.9484 1239.7 84.9974C1239.15 85.0378 1238.67 84.624 1238.63 84.0732C1238.59 83.5224 1239 83.0431 1239.55 83.0028C1240.22 82.9539 1240.89 82.904 1241.55 82.853C1242.1 82.811 1242.59 83.2233 1242.63 83.774ZM1198.65 85.4111C1198.66 84.8589 1199.11 84.4159 1199.66 84.4218C1200.32 84.4289 1200.99 84.4344 1201.65 84.4383C1202.2 84.4416 1202.65 84.8919 1202.64 85.4442C1202.64 85.9965 1202.19 86.4415 1201.64 86.4383C1200.97 86.4343 1200.31 86.4288 1199.64 86.4217C1199.09 86.4158 1198.64 85.9634 1198.65 85.4111ZM1234.6 84.3492C1234.64 84.9003 1234.22 85.3756 1233.67 85.4107C1233 85.4535 1232.32 85.4951 1231.65 85.5356C1231.1 85.5688 1230.63 85.1489 1230.6 84.5976C1230.56 84.0463 1230.98 83.5724 1231.53 83.5392C1232.2 83.4989 1232.87 83.4574 1233.54 83.4147C1234.09 83.3796 1234.57 83.798 1234.6 84.3492ZM1206.6 85.439C1206.59 84.8867 1207.04 84.4351 1207.59 84.4302C1208.26 84.4243 1208.92 84.4167 1209.58 84.4074C1210.14 84.3997 1210.59 84.8411 1210.6 85.3933C1210.61 85.9456 1210.16 86.3995 1209.61 86.4072C1208.95 86.4166 1208.28 86.4242 1207.61 86.4301C1207.06 86.435 1206.6 85.9912 1206.6 85.439ZM1226.58 84.8194C1226.6 85.371 1226.18 85.8405 1225.63 85.868C1224.95 85.9018 1224.28 85.9342 1223.61 85.9654C1223.05 85.9909 1222.59 85.5644 1222.56 85.0127C1222.53 84.461 1222.96 83.993 1223.51 83.9675C1224.18 83.9365 1224.86 83.9041 1225.53 83.8705C1226.08 83.843 1226.55 84.2678 1226.58 84.8194ZM1214.56 85.3065C1214.54 84.7544 1214.97 84.2934 1215.52 84.2768C1215.85 84.2669 1216.18 84.2565 1216.51 84.2457C1216.84 84.2348 1217.17 84.2235 1217.5 84.2119C1218.06 84.1926 1218.52 84.6244 1218.54 85.1764C1218.56 85.7283 1218.13 86.1914 1217.57 86.2107C1217.24 86.2223 1216.91 86.2337 1216.57 86.2446C1216.24 86.2555 1215.91 86.2659 1215.58 86.2759C1215.03 86.2925 1214.57 85.8585 1214.56 85.3065Z" fill="url(#paint0_linear_791_7822)"/>
<defs>
<linearGradient id="paint0_linear_791_7822" x1="2.50001" y1="43.0489" x2="1436.5" y2="43.0489" gradientUnits="userSpaceOnUse">
<stop stop-color="#138B44"/>
<stop offset="0.484375" stop-color="#C79939"/>
<stop offset="1" stop-color="#008CDB"/>
</linearGradient>
</defs>
</svg>
