<svg width="1440" height="87" viewBox="0 0 1440 87" fill="none" xmlns="http://www.w3.org/2000/svg">
<path opacity="0.6" fill-rule="evenodd" clip-rule="evenodd" d="M945.947 47.3307C945.769 46.8078 945.201 46.5281 944.678 46.706V46.706L944.678 46.706L944.677 46.7062L944.675 46.7071L944.664 46.7106L944.622 46.7249L944.453 46.7819C944.303 46.8324 944.079 46.9076 943.783 47.0059C943.259 47.1802 942.975 47.7463 943.15 48.2704C943.324 48.7945 943.89 49.078 944.414 48.9037C944.712 48.8046 944.939 48.7287 945.091 48.6775L945.263 48.6194L945.307 48.6046L945.318 48.6008L945.321 48.5998L945.322 48.5995L945.322 48.5995L945.322 48.5994V48.5994L945 47.6527L945.322 48.5994C945.845 48.4216 946.125 47.8535 945.947 47.3307ZM939.331 49.5067C939.164 48.9803 938.601 48.6892 938.075 48.8564C937.494 49.041 936.877 49.2359 936.226 49.4404C935.699 49.606 935.406 50.1673 935.572 50.6942C935.738 51.2211 936.299 51.514 936.826 51.3484C937.479 51.1432 938.098 50.9477 938.681 50.7625C939.207 50.5953 939.498 50.033 939.331 49.5067ZM931.777 51.8681C931.616 51.3398 931.057 51.0421 930.529 51.2031C929.9 51.3949 929.253 51.5913 928.588 51.7921C928.059 51.9518 927.76 52.5098 927.919 53.0385C928.079 53.5672 928.637 53.8664 929.166 53.7068C929.833 53.5054 930.482 53.3085 931.112 53.1162C931.641 52.9552 931.938 52.3964 931.777 51.8681ZM924.143 54.163C923.987 53.6331 923.431 53.3298 922.901 53.4854C922.274 53.6698 921.635 53.8568 920.984 54.046C920.454 54.2004 920.149 54.7554 920.304 55.2857C920.458 55.8159 921.013 56.1207 921.543 55.9663C922.195 55.7766 922.836 55.5892 923.465 55.4043C923.995 55.2487 924.298 54.6929 924.143 54.163ZM916.456 56.3906C916.305 55.8592 915.753 55.5505 915.221 55.7011C914.603 55.8763 913.977 56.0529 913.343 56.2309C912.811 56.3802 912.501 56.9323 912.65 57.464C912.8 57.9957 913.352 58.3057 913.883 58.1564C914.519 57.978 915.146 57.801 915.766 57.6253C916.298 57.4748 916.606 56.922 916.456 56.3906ZM604.233 56.8362C603.696 56.7073 603.157 57.0382 603.028 57.5752C602.899 58.1123 603.23 58.6521 603.767 58.781L603.968 57.9413L603.767 58.781L603.767 58.781L603.768 58.7812L603.771 58.782L603.783 58.7848L603.83 58.796L604.014 58.8398C604.177 58.8784 604.419 58.9357 604.738 59.0104C605.276 59.1364 605.814 58.8026 605.94 58.2648C606.066 57.7271 605.732 57.1891 605.195 57.0631C604.877 56.9888 604.637 56.932 604.475 56.8938L604.294 56.8506L604.248 56.8397L604.237 56.837L604.234 56.8364M604.233 56.8362C604.233 56.8362 604.233 56.8362 604.234 56.8362L604.233 56.8362ZM908.822 58.5245C908.676 57.9917 908.127 57.6779 907.594 57.8234C906.955 57.9979 906.31 58.1733 905.66 58.3495C905.126 58.4938 904.811 59.0429 904.956 59.576C905.1 60.1091 905.649 60.4243 906.182 60.28C906.834 60.1034 907.481 59.9276 908.121 59.7527C908.654 59.6071 908.968 59.0573 908.822 58.5245ZM609.958 59.1797C609.838 59.7187 610.177 60.2532 610.716 60.3735C611.344 60.5137 612.012 60.662 612.718 60.8176C613.257 60.9365 613.791 60.5957 613.91 60.0564C614.029 59.5171 613.688 58.9835 613.149 58.8645C612.445 58.7093 611.779 58.5614 611.152 58.4215C610.613 58.3012 610.078 58.6407 609.958 59.1797ZM901.114 60.6014C900.974 60.0673 900.427 59.7482 899.893 59.8887C899.257 60.056 898.617 60.2237 897.971 60.3918C897.437 60.5311 897.117 61.0772 897.256 61.6116C897.395 62.1461 897.941 62.4664 898.476 62.3272C899.122 62.1586 899.764 61.9905 900.401 61.8229C900.936 61.6824 901.255 61.1355 901.114 60.6014ZM617.92 60.9262C617.805 61.4663 618.149 61.9977 618.689 62.113C619.34 62.2519 620.009 62.3942 620.697 62.5395C621.237 62.6537 621.768 62.3082 621.882 61.7679C621.996 61.2276 621.651 60.6969 621.11 60.5827C620.424 60.4377 619.756 60.2957 619.107 60.1571C618.567 60.0418 618.035 60.3861 617.92 60.9262ZM625.913 62.6073C625.802 63.1483 626.15 63.6769 626.691 63.7879C627.353 63.9238 628.028 64.0615 628.713 64.2008C629.255 64.3108 629.783 63.9612 629.893 63.42C630.003 62.8788 629.653 62.3509 629.112 62.2409C628.427 62.1018 627.754 61.9643 627.093 61.8287C626.552 61.7177 626.024 62.0663 625.913 62.6073ZM893.405 62.6005C893.269 62.0651 892.725 61.7408 892.19 61.8763C891.555 62.0368 890.917 62.1975 890.275 62.3583C889.739 62.4924 889.413 63.0354 889.547 63.5712C889.682 64.1069 890.225 64.4325 890.76 64.2984C891.404 64.1372 892.044 63.9761 892.68 63.8152C893.216 63.6798 893.54 63.136 893.405 62.6005ZM633.917 64.226C633.81 64.7678 634.163 65.2938 634.704 65.4007C635.368 65.5316 636.039 65.6636 636.719 65.7964C637.261 65.9024 637.786 65.5489 637.892 65.0068C637.998 64.4648 637.645 63.9395 637.103 63.8336C636.424 63.7009 635.754 63.5692 635.092 63.4386C634.55 63.3316 634.024 63.6842 633.917 64.226ZM885.687 64.5226C885.557 63.9859 885.016 63.6563 884.48 63.7865C883.838 63.9422 883.192 64.0978 882.544 64.2533C882.007 64.3821 881.676 64.9219 881.805 65.459C881.934 65.996 882.474 66.327 883.011 66.1981C883.661 66.0422 884.307 65.8862 884.951 65.7301C885.488 65.6 885.817 65.0593 885.687 64.5226ZM641.957 65.7897C641.854 66.3323 642.211 66.8557 642.753 66.9586C643.411 67.0833 644.074 67.2086 644.744 67.3343C645.286 67.4363 645.809 67.0789 645.911 66.5361C646.013 65.9934 645.656 65.4707 645.113 65.3687C644.445 65.2432 643.782 65.1181 643.126 64.9937C642.584 64.8907 642.06 65.2471 641.957 65.7897ZM877.939 66.3706C877.815 65.8326 877.277 65.4975 876.739 65.6222C876.092 65.7722 875.443 65.9219 874.79 66.0713C874.252 66.1945 873.915 66.7309 874.039 67.2692C874.162 67.8076 874.698 68.1441 875.237 68.0208C875.891 67.871 876.542 67.7209 877.191 67.5706C877.729 67.4459 878.064 66.9086 877.939 66.3706ZM649.965 67.2861C649.866 67.8294 650.226 68.3501 650.77 68.4491C651.435 68.5703 652.106 68.6918 652.781 68.8135C653.325 68.9115 653.845 68.5503 653.943 68.0067C654.041 67.4632 653.68 66.9432 653.136 66.8452C652.462 66.7237 651.792 66.6024 651.128 66.4814C650.585 66.3825 650.064 66.7427 649.965 67.2861ZM870.169 68.1393C870.05 67.6 869.516 67.2593 868.977 67.3782C868.327 67.5214 867.676 67.6642 867.023 67.8064C866.483 67.9239 866.141 68.4566 866.258 68.9963C866.376 69.5359 866.908 69.8781 867.448 69.7607C868.103 69.618 868.756 69.4749 869.407 69.3313C869.947 69.2123 870.288 68.6787 870.169 68.1393ZM658.005 68.727C657.91 69.2711 658.274 69.7891 658.818 69.8839C659.493 70.0015 660.171 70.1191 660.853 70.2368C661.397 70.3306 661.915 69.9655 662.008 69.4212C662.102 68.877 661.737 68.3597 661.193 68.2658C660.512 68.1484 659.835 68.031 659.162 67.9137C658.618 67.8188 658.1 68.1829 658.005 68.727ZM862.379 69.8239C862.266 69.2833 861.736 68.9366 861.195 69.0495C860.548 69.1847 859.899 69.3193 859.249 69.4532C858.708 69.5645 858.36 70.0933 858.471 70.6343C858.583 71.1752 859.111 71.5235 859.652 71.4121C860.305 71.2778 860.955 71.1428 861.604 71.0073C862.145 70.8943 862.492 70.3645 862.379 69.8239ZM666.073 70.11C665.983 70.6548 666.351 71.17 666.896 71.2606C667.559 71.3711 668.225 71.4814 668.895 71.5915C669.44 71.6811 669.954 71.312 670.044 70.767C670.134 70.222 669.764 69.7076 669.22 69.618C668.551 69.5081 667.886 69.398 667.224 69.2878C666.679 69.1971 666.164 69.5652 666.073 70.11ZM674.12 71.4248C674.033 71.9703 674.406 72.4825 674.951 72.5689C675.619 72.6746 676.29 72.7801 676.963 72.8852C677.509 72.9704 678.02 72.5972 678.105 72.0515C678.19 71.5058 677.817 70.9944 677.271 70.9092C676.6 70.8042 675.93 70.699 675.264 70.5935C674.718 70.5071 674.206 70.8793 674.12 71.4248ZM854.571 71.4193C854.465 70.8774 853.939 70.5244 853.397 70.631C852.751 70.7581 852.103 70.8845 851.454 71.01C850.911 71.1149 850.557 71.6395 850.662 72.1817C850.767 72.724 851.291 73.0785 851.833 72.9736C852.485 72.8477 853.134 72.7209 853.783 72.5934C854.325 72.4869 854.678 71.9612 854.571 71.4193ZM682.184 72.6756C682.102 73.2218 682.479 73.7309 683.025 73.8127C683.697 73.9134 684.372 74.0137 685.048 74.1135C685.595 74.1942 686.103 73.8166 686.184 73.2702C686.264 72.7239 685.887 72.2156 685.34 72.135C684.665 72.0353 683.992 71.9353 683.321 71.8348C682.775 71.753 682.266 72.1294 682.184 72.6756ZM846.753 72.9188C846.653 72.3756 846.132 72.0161 845.589 72.1158C844.939 72.235 844.289 72.3533 843.638 72.4707C843.094 72.5686 842.733 73.0886 842.831 73.6322C842.929 74.1757 843.449 74.5369 843.993 74.4389C844.646 74.3212 845.298 74.2025 845.95 74.0829C846.493 73.9832 846.852 73.462 846.753 72.9188ZM690.265 73.8589C690.188 74.4058 690.569 74.9115 691.115 74.9886C691.791 75.0837 692.468 75.1782 693.147 75.2723C693.694 75.348 694.199 74.966 694.274 74.4189C694.35 73.8718 693.968 73.3669 693.421 73.2912C692.744 73.1974 692.068 73.103 691.394 73.0081C690.847 72.9311 690.342 73.312 690.265 73.8589ZM838.914 74.3178C838.822 73.7733 838.306 73.4068 837.761 73.4992C837.109 73.6099 836.457 73.7195 835.804 73.828C835.259 73.9185 834.89 74.4336 834.981 74.9784C835.071 75.5232 835.586 75.8915 836.131 75.801C836.787 75.692 837.442 75.5821 838.096 75.471C838.64 75.3786 839.007 74.8623 838.914 74.3178ZM698.358 74.9701C698.286 75.5177 698.671 76.0199 699.219 76.0919C699.896 76.1808 700.574 76.2691 701.254 76.3568C701.802 76.4274 702.303 76.0406 702.374 75.4929C702.444 74.9451 702.057 74.4438 701.51 74.3732C700.832 74.2858 700.155 74.1977 699.479 74.1089C698.932 74.037 698.43 74.4225 698.358 74.9701ZM831.056 75.6087C830.972 75.0629 830.461 74.689 829.915 74.7736C829.261 74.8749 828.606 74.9751 827.951 75.074C827.405 75.1565 827.029 75.666 827.112 76.2121C827.194 76.7582 827.704 77.134 828.25 77.0516C828.907 76.9522 829.564 76.8517 830.221 76.75C830.767 76.6655 831.141 76.1545 831.056 75.6087ZM706.461 76.0046C706.395 76.5529 706.785 77.0513 707.333 77.1178C708.009 77.1998 708.686 77.2811 709.363 77.3616C709.912 77.4267 710.409 77.0349 710.474 76.4865C710.539 75.938 710.148 75.4406 709.599 75.3755C708.923 75.2952 708.248 75.2142 707.574 75.1324C707.026 75.0658 706.528 75.4563 706.461 76.0046ZM823.179 76.7827C823.103 76.2357 822.597 75.8539 822.05 75.9299C821.394 76.021 820.738 76.1108 820.082 76.1993C819.535 76.273 819.151 76.7765 819.224 77.3238C819.298 77.8712 819.802 78.2551 820.349 78.1814C821.008 78.0925 821.667 78.0024 822.326 77.9108C822.873 77.8348 823.255 77.3298 823.179 76.7827ZM714.573 76.9569C714.513 77.5058 714.908 78.0001 715.457 78.0608C716.133 78.1356 716.809 78.2096 717.486 78.2826C718.036 78.3418 718.529 77.9447 718.588 77.3956C718.647 76.8465 718.25 76.3534 717.701 76.2941C717.026 76.2213 716.351 76.1476 715.677 76.073C715.128 76.0122 714.634 76.408 714.573 76.9569ZM722.692 77.8207C722.637 78.3703 723.038 78.86 723.588 78.9145C724.266 78.9817 724.944 79.048 725.622 79.1132C726.172 79.166 726.66 78.7632 726.713 78.2135C726.766 77.6637 726.363 77.1752 725.813 77.1224C725.137 77.0573 724.461 76.9913 723.785 76.9243C723.236 76.8698 722.746 77.2711 722.692 77.8207ZM815.282 77.8296C815.216 77.2813 814.717 76.8909 814.169 76.9576C813.511 77.0376 812.854 77.1161 812.197 77.193C811.648 77.2572 811.256 77.7539 811.32 78.3025C811.384 78.851 811.881 79.2436 812.429 79.1794C813.09 79.1021 813.75 79.0233 814.411 78.943C814.959 78.8763 815.349 78.3778 815.282 77.8296ZM730.821 78.5895C730.773 79.1397 731.18 79.6244 731.731 79.6721C732.41 79.731 733.089 79.7889 733.768 79.8455C734.319 79.8915 734.802 79.4826 734.848 78.9322C734.894 78.3818 734.485 77.8984 733.935 77.8525C733.258 77.796 732.581 77.7383 731.903 77.6796C731.353 77.6319 730.869 78.0392 730.821 78.5895ZM807.369 78.7371C807.313 78.1877 806.821 77.7881 806.272 77.8445C805.613 77.9122 804.955 77.9781 804.297 78.0424C803.747 78.0961 803.345 78.5853 803.399 79.1349C803.453 79.6846 803.942 80.0867 804.492 80.0329C805.153 79.9683 805.814 79.902 806.476 79.834C807.026 79.7776 807.425 79.2865 807.369 78.7371ZM738.96 79.2546C738.92 79.8055 739.334 80.2847 739.885 80.325C740.565 80.3748 741.245 80.4233 741.925 80.4706C742.476 80.509 742.953 80.0934 742.992 79.5425C743.03 78.9915 742.615 78.5138 742.064 78.4755C741.386 78.4283 740.709 78.3799 740.031 78.3303C739.48 78.29 739.001 78.7038 738.96 79.2546ZM799.44 79.4911C799.394 78.9407 798.912 78.531 798.361 78.5761C797.702 78.6301 797.043 78.6823 796.385 78.7326C795.835 78.7746 795.422 79.2552 795.464 79.8058C795.506 80.3565 795.987 80.7688 796.538 80.7268C797.199 80.6762 797.862 80.6238 798.525 80.5695C799.075 80.5244 799.485 80.0416 799.44 79.4911ZM747.109 79.8063C747.077 80.3576 747.498 80.8306 748.049 80.8628C748.73 80.9025 749.41 80.9408 750.09 80.9778C750.641 81.0078 751.113 80.585 751.143 80.0336C751.173 79.4821 750.75 79.0107 750.198 78.9807C749.521 78.9439 748.844 78.9057 748.165 78.8662C747.614 78.834 747.141 79.2549 747.109 79.8063ZM791.497 80.0749C791.464 79.5236 790.991 79.1029 790.44 79.1354C789.78 79.1742 789.122 79.2109 788.464 79.2456C787.913 79.2747 787.489 79.7453 787.518 80.2968C787.547 80.8484 788.018 81.2719 788.57 81.2428C789.231 81.208 789.894 81.171 790.557 81.1319C791.108 81.0995 791.529 80.6262 791.497 80.0749ZM755.265 80.2324C755.242 80.7842 755.67 81.2503 756.222 81.2734C756.903 81.3019 757.583 81.3289 758.262 81.3543C758.814 81.375 759.278 80.9444 759.298 80.3925C759.319 79.8406 758.888 79.3764 758.337 79.3557C757.661 79.3304 756.984 79.3035 756.306 79.2751C755.754 79.252 755.288 79.6806 755.265 80.2324ZM783.544 80.4682C783.525 79.9162 783.063 79.4835 782.511 79.5018C781.852 79.5236 781.194 79.5431 780.538 79.5602C779.986 79.5747 779.55 80.0339 779.565 80.586C779.579 81.1381 780.038 81.574 780.59 81.5595C781.251 81.5423 781.914 81.5226 782.577 81.5007C783.129 81.4824 783.562 81.0202 783.544 80.4682ZM763.425 80.5189C763.412 81.071 763.849 81.5291 764.401 81.5421C765.081 81.5581 765.76 81.5724 766.437 81.5849C766.989 81.5952 767.445 81.1559 767.456 80.6037C767.466 80.0515 767.026 79.5955 766.474 79.5853C765.8 79.5728 765.125 79.5585 764.448 79.5426C763.896 79.5297 763.437 79.9667 763.425 80.5189ZM775.586 80.6469C775.584 80.0946 775.134 79.6486 774.582 79.6508C774.254 79.6521 773.926 79.6527 773.598 79.6527C773.262 79.6527 772.925 79.6522 772.588 79.6513C772.035 79.6498 771.586 80.0962 771.585 80.6485C771.583 81.2008 772.03 81.6498 772.582 81.6513C772.921 81.6522 773.26 81.6527 773.598 81.6527C773.928 81.6527 774.259 81.652 774.59 81.6508C775.142 81.6486 775.588 81.1992 775.586 80.6469ZM187.947 54.5532C187.768 54.0307 187.199 53.7523 186.676 53.9313V53.9313L186.676 53.9314L186.676 53.9316L186.673 53.9324L186.662 53.9361L186.619 53.951L186.444 54.0105C186.288 54.0632 186.056 54.1415 185.75 54.2439C185.226 54.4191 184.943 54.9857 185.119 55.5094C185.294 56.0332 185.86 56.3158 186.384 56.1406C186.693 56.0374 186.927 55.9583 187.085 55.9048L187.264 55.8442L187.309 55.8287L187.321 55.8247L187.324 55.8237L187.324 55.8234L187.325 55.8234L187.325 55.8233L187.325 55.8233L187.001 54.8773L187.325 55.8233C187.847 55.6443 188.126 55.0756 187.947 54.5532ZM181.302 56.7507C181.134 56.2245 180.572 55.9339 180.045 56.1017C179.436 56.2961 178.787 56.5017 178.101 56.7177C177.574 56.8836 177.282 57.4451 177.448 57.9719C177.613 58.4987 178.175 58.7913 178.702 58.6254C179.39 58.4086 180.041 58.2023 180.653 58.0072C181.179 57.8395 181.47 57.2769 181.302 56.7507ZM173.619 59.1577C173.458 58.6295 172.899 58.3318 172.371 58.4928C171.752 58.6815 171.115 58.8746 170.462 59.0718C169.933 59.2314 169.634 59.7894 169.793 60.3181C169.953 60.8468 170.511 61.1461 171.04 60.9866C171.695 60.7888 172.333 60.5951 172.954 60.4059C173.482 60.2448 173.78 59.686 173.619 59.1577ZM165.912 61.4719C165.756 60.9419 165.201 60.6381 164.671 60.7933C164.042 60.9773 163.403 61.1637 162.752 61.3523C162.222 61.5061 161.917 62.0608 162.071 62.5912C162.224 63.1217 162.779 63.427 163.309 63.2732C163.962 63.0841 164.603 62.8972 165.233 62.7127C165.763 62.5575 166.067 62.002 165.912 61.4719ZM158.197 63.6978C158.048 63.1662 157.495 62.8565 156.964 63.0062C156.316 63.1884 155.661 63.372 154.997 63.5569C154.465 63.7052 154.154 64.2566 154.302 64.7887C154.45 65.3207 155.002 65.6318 155.534 65.4836C156.199 65.2982 156.856 65.114 157.506 64.9314C158.037 64.7817 158.347 64.2294 158.197 63.6978ZM-126.962 64.0323C-127.091 64.5691 -126.761 65.1095 -126.224 65.2392L-126.224 65.2393L-126.223 65.2395L-126.22 65.2402L-126.209 65.243L-126.163 65.254L-125.983 65.2972C-125.823 65.3353 -125.586 65.3916 -125.274 65.4651C-124.737 65.5919 -124.198 65.2588 -124.072 64.7213C-123.945 64.1837 -124.278 63.6452 -124.815 63.5185C-125.125 63.4454 -125.361 63.3895 -125.518 63.3519L-125.696 63.3094L-125.74 63.2987L-125.751 63.296L-125.754 63.2954M-126.962 64.0323C-126.832 63.4955 -126.291 63.1655 -125.755 63.2952L-126.962 64.0323ZM-125.755 63.2952C-125.755 63.2952 -125.755 63.2952 -125.754 63.2952L-125.755 63.2952ZM-120.297 65.5858C-120.417 66.1247 -120.079 66.6595 -119.54 66.7804C-118.926 66.9181 -118.273 67.0637 -117.583 67.2166C-117.044 67.3361 -116.51 66.9958 -116.39 66.4566C-116.271 65.9174 -116.611 65.3835 -117.15 65.264C-117.839 65.1115 -118.49 64.9663 -119.102 64.829C-119.641 64.7081 -120.176 65.0469 -120.297 65.5858ZM150.43 65.8515C150.285 65.3183 149.736 65.0029 149.203 65.147C148.567 65.3189 147.926 65.4915 147.278 65.6647C146.744 65.8075 146.428 66.3557 146.57 66.8892C146.713 67.4227 147.261 67.7395 147.795 67.5968C148.444 67.4231 149.088 67.2501 149.725 67.0778C150.258 66.9337 150.574 66.3846 150.43 65.8515ZM-112.586 67.2851C-112.702 67.8251 -112.358 68.3567 -111.818 68.4724C-111.202 68.6044 -110.568 68.7394 -109.918 68.8773C-109.378 68.9919 -108.847 68.6467 -108.733 68.1065C-108.618 67.5662 -108.963 67.0353 -109.503 66.9208C-110.152 66.7832 -110.784 66.6485 -111.399 66.5167C-111.939 66.401 -112.471 66.745 -112.586 67.2851ZM142.667 67.9168C142.529 67.3822 141.983 67.061 141.449 67.1995C140.797 67.3682 140.141 67.5373 139.481 67.7065C138.946 67.8436 138.623 68.3884 138.76 68.9234C138.897 69.4584 139.442 69.781 139.977 69.644C140.64 69.4743 141.297 69.3048 141.95 69.1356C142.485 68.9971 142.806 68.4514 142.667 67.9168ZM-104.88 68.9106C-104.991 69.4516 -104.643 69.9803 -104.102 70.0915C-103.478 70.2196 -102.844 70.3494 -102.199 70.4806C-101.658 70.5907 -101.13 70.2413 -101.02 69.7001C-100.91 69.1589 -101.259 68.6309 -101.8 68.5208C-102.444 68.3898 -103.077 68.2603 -103.699 68.1324C-104.24 68.0212 -104.769 68.3696 -104.88 68.9106ZM134.85 69.9086C134.717 69.3725 134.175 69.0455 133.639 69.1782C132.999 69.3366 132.355 69.495 131.708 69.6534C131.172 69.7846 130.844 70.3259 130.975 70.8624C131.106 71.3989 131.647 71.7273 132.184 71.596C132.833 71.4373 133.478 71.2784 134.119 71.1196C134.656 70.9868 134.983 70.4447 134.85 69.9086ZM-97.1877 70.4679C-97.2947 71.0098 -96.9421 71.5357 -96.4003 71.6426C-95.758 71.7694 -95.1077 71.897 -94.4496 72.0256C-93.9075 72.1314 -93.3823 71.7778 -93.2764 71.2358C-93.1706 70.6938 -93.5242 70.1685 -94.0662 70.0627C-94.7231 69.9344 -95.3721 69.8069 -96.013 69.6805C-96.5549 69.5735 -97.0808 69.9261 -97.1877 70.4679ZM127.052 71.8049C126.926 71.2674 126.387 70.9344 125.85 71.0612C125.201 71.2141 124.549 71.3668 123.895 71.5191C123.357 71.6444 123.022 72.1819 123.148 72.7198C123.273 73.2577 123.81 73.5923 124.348 73.467C125.005 73.3143 125.658 73.1611 126.309 73.0078C126.846 72.881 127.179 72.3425 127.052 71.8049ZM-89.4569 71.9702C-89.5596 72.5129 -89.2029 73.036 -88.6603 73.1388C-88.0221 73.2595 -87.378 73.3808 -86.7281 73.5025C-86.1852 73.6042 -85.6628 73.2465 -85.5611 72.7037C-85.4595 72.1608 -85.8171 71.6384 -86.3599 71.5367C-87.0086 71.4152 -87.6515 71.2942 -88.2883 71.1736C-88.831 71.0709 -89.3542 71.4276 -89.4569 71.9702ZM-81.717 73.4119C-81.8155 73.9553 -81.4548 74.4757 -80.9113 74.5742C-80.2662 74.691 -79.6163 74.8082 -78.9618 74.9254C-78.4181 75.0228 -77.8985 74.661 -77.8011 74.1174C-77.7037 73.5738 -78.0654 73.0541 -78.6091 72.9567C-79.2623 72.8397 -79.9109 72.7229 -80.5547 72.6062C-81.0982 72.5077 -81.6185 72.8685 -81.717 73.4119ZM119.216 73.6171C119.095 73.0781 118.561 72.7388 118.022 72.8593C117.367 73.0056 116.71 73.1515 116.05 73.2968C115.511 73.4156 115.17 73.9492 115.289 74.4885C115.408 75.0279 115.941 75.3688 116.481 75.2499C117.142 75.1042 117.801 74.9579 118.458 74.8111C118.997 74.6906 119.336 74.156 119.216 73.6171ZM-73.9596 74.7937C-74.0537 75.3379 -73.6889 75.8554 -73.1446 75.9495C-72.5053 76.0601 -71.8623 76.1707 -71.2156 76.2812C-70.6713 76.3742 -70.1545 76.0083 -70.0615 75.4639C-69.9685 74.9195 -70.3344 74.4028 -70.8788 74.3097C-71.524 74.1995 -72.1658 74.0891 -72.8038 73.9788C-73.348 73.8847 -73.8655 74.2495 -73.9596 74.7937ZM111.35 75.3374C111.237 74.7969 110.706 74.4511 110.166 74.5649C109.513 74.7025 108.858 74.8393 108.201 74.9755C107.66 75.0876 107.312 75.6168 107.424 76.1576C107.537 76.6984 108.066 77.0459 108.607 76.9338C109.266 76.7973 109.923 76.66 110.578 76.522C111.118 76.4082 111.464 75.8778 111.35 75.3374ZM-66.2106 76.1097C-66.3002 76.6547 -65.9311 77.1691 -65.3862 77.2588C-64.739 77.3652 -64.0887 77.4715 -63.4356 77.5775C-62.8904 77.666 -62.3768 77.2958 -62.2883 76.7507C-62.1998 76.2055 -62.57 75.6918 -63.1151 75.6034C-63.7669 75.4976 -64.4157 75.3915 -65.0615 75.2853C-65.6065 75.1956 -66.1209 75.5647 -66.2106 76.1097ZM103.469 76.9573C103.362 76.4154 102.837 76.0626 102.295 76.1693C101.641 76.298 100.987 76.4258 100.331 76.5526C99.7886 76.6575 99.4341 77.1821 99.539 77.7243C99.6438 78.2666 100.168 78.6211 100.711 78.5162C101.369 78.3889 102.026 78.2607 102.681 78.1316C103.223 78.0249 103.576 77.4991 103.469 76.9573ZM-58.4347 77.3635C-58.5196 77.9092 -58.1461 78.4205 -57.6004 78.5055C-56.9506 78.6066 -56.2984 78.7075 -55.6438 78.8079C-55.0979 78.8916 -54.5875 78.517 -54.5037 77.9711C-54.42 77.4252 -54.7946 76.9148 -55.3405 76.831C-55.9936 76.7308 -56.6444 76.6302 -57.2927 76.5293C-57.8384 76.4443 -58.3497 76.8178 -58.4347 77.3635ZM95.5736 78.4698C95.4745 77.9264 94.9537 77.5663 94.4104 77.6655C93.7535 77.7853 93.0955 77.9041 92.4365 78.0218C91.8928 78.1189 91.5308 78.6384 91.6279 79.1821C91.7251 79.7257 92.2445 80.0877 92.7882 79.9906C93.4496 79.8725 94.11 79.7533 94.7693 79.633C95.3126 79.5339 95.6727 79.0131 95.5736 78.4698ZM-50.6419 78.5503C-50.722 79.0967 -50.3439 79.6046 -49.7974 79.6846C-49.153 79.779 -48.5067 79.8729 -47.8586 79.9663C-47.3119 80.0451 -46.8049 79.6658 -46.7262 79.1192C-46.6474 78.5726 -47.0267 78.0656 -47.5733 77.9868C-48.2199 77.8936 -48.8647 77.7999 -49.5076 77.7058C-50.054 77.6257 -50.5619 78.0038 -50.6419 78.5503ZM-42.858 79.6626C-42.9329 80.2098 -42.55 80.714 -42.0028 80.7888C-41.3548 80.8775 -40.7053 80.9655 -40.0544 81.0529C-39.507 81.1264 -39.0037 80.7422 -38.9302 80.1948C-38.8567 79.6474 -39.2409 79.1441 -39.7883 79.0706C-40.4375 78.9835 -41.0854 78.8957 -41.7318 78.8073C-42.279 78.7325 -42.7832 79.1154 -42.858 79.6626ZM87.6531 79.869C87.5622 79.3242 87.0469 78.9563 86.5022 79.0472C85.8425 79.1572 85.1821 79.2661 84.521 79.3736C83.9759 79.4623 83.606 79.9762 83.6947 80.5213C83.7834 81.0664 84.2972 81.4364 84.8423 81.3477C85.506 81.2397 86.169 81.1304 86.8313 81.0199C87.376 80.929 87.744 80.4137 87.6531 79.869ZM-35.0581 80.6997C-35.1274 81.2476 -34.7394 81.748 -34.1915 81.8173C-33.5406 81.8996 -32.8886 81.9812 -32.2356 82.062C-31.6875 82.1298 -31.1882 81.7405 -31.1203 81.1924C-31.0525 80.6443 -31.4418 80.145 -31.9899 80.0771C-32.6412 79.9965 -33.2914 79.9152 -33.9406 79.8331C-34.4885 79.7638 -34.9889 80.1518 -35.0581 80.6997ZM79.7102 81.1447C79.6283 80.5985 79.1191 80.2222 78.573 80.3041C77.9114 80.4033 77.2494 80.5012 76.5872 80.5975C76.0407 80.6771 75.6621 81.1846 75.7417 81.7312C75.8212 82.2777 76.3287 82.6562 76.8753 82.5767C77.5404 82.4799 78.2052 82.3816 78.8696 82.282C79.4158 82.2001 79.7921 81.6909 79.7102 81.1447ZM-27.2446 81.6561C-27.3079 82.2048 -26.9145 82.7009 -26.3659 82.7642C-25.713 82.8395 -25.0594 82.914 -24.4051 82.9877C-23.8563 83.0494 -23.3614 82.6546 -23.2996 82.1058C-23.2378 81.5569 -23.6327 81.062 -24.1815 81.0002C-24.8339 80.9268 -25.4856 80.8525 -26.1365 80.7774C-26.6852 80.714 -27.1813 81.1075 -27.2446 81.6561ZM71.7476 82.2852C71.6755 81.7377 71.1731 81.3522 70.6256 81.4243C69.9623 81.5117 69.299 81.5974 68.6358 81.6815C68.0879 81.751 67.7001 82.2515 67.7696 82.7994C67.8391 83.3473 68.3395 83.7351 68.8874 83.6656C69.5538 83.5811 70.2203 83.495 70.8867 83.4072C71.4342 83.3351 71.8197 82.8328 71.7476 82.2852ZM-19.42 82.5252C-19.4769 83.0745 -19.0777 83.566 -18.5283 83.6229C-17.8746 83.6906 -17.2204 83.7573 -16.5659 83.823C-16.0164 83.8782 -15.5262 83.4775 -15.471 82.928C-15.4158 82.3785 -15.8165 81.8882 -16.366 81.8331C-17.0185 81.7675 -17.6706 81.701 -18.3223 81.6335C-18.8717 81.5766 -19.3631 81.9758 -19.42 82.5252ZM63.7676 83.2769C63.7064 82.7281 63.2118 82.3328 62.6629 82.394C61.9966 82.4683 61.3306 82.5409 60.6651 82.6116C60.1159 82.6699 59.7179 83.1624 59.7763 83.7116C59.8346 84.2608 60.3271 84.6587 60.8763 84.6004C61.5454 84.5293 62.2149 84.4564 62.8847 84.3817C63.4335 84.3204 63.8289 83.8258 63.7676 83.2769ZM-11.5866 83.2995C-11.6364 83.8495 -11.231 84.3359 -10.681 84.3857C-10.0264 84.4451 -9.37171 84.5034 -8.717 84.5605C-8.1668 84.6086 -7.68185 84.2015 -7.63381 83.6513C-7.58578 83.1011 -7.99287 82.6161 -8.54305 82.5681C-9.1955 82.5112 -9.84795 82.4531 -10.5003 82.3939C-11.0503 82.344 -11.5367 82.7495 -11.5866 83.2995ZM-3.74448 83.9705C-3.78669 84.5212 -3.3745 85.0018 -2.82383 85.044C-2.16759 85.0943 -1.51157 85.1434 -0.855858 85.1912C-0.305031 85.2314 0.174065 84.8174 0.214241 84.2666C0.254402 83.7158 -0.159554 83.2367 -0.710381 83.1965C-1.36361 83.1489 -2.01717 83.1 -2.67098 83.0499C-3.22164 83.0076 -3.70228 83.4198 -3.74448 83.9705ZM55.7638 84.1046C55.7147 83.5545 55.2289 83.1484 54.6788 83.1975C54.0113 83.2571 53.3445 83.3147 52.6785 83.3702C52.1281 83.4161 51.7192 83.8995 51.765 84.4498C51.8109 85.0002 52.2943 85.4092 52.8447 85.3633C53.5146 85.3075 54.1854 85.2495 54.8567 85.1896C55.4068 85.1404 55.8129 84.6547 55.7638 84.1046ZM4.10866 84.5282C4.07494 85.0795 4.49446 85.5537 5.04572 85.5874C5.70282 85.6276 6.35939 85.6665 7.01532 85.7039C7.56671 85.7354 8.03922 85.3139 8.07068 84.7625C8.10216 84.2111 7.68068 83.7386 7.12929 83.7072C6.47612 83.6699 5.82228 83.6312 5.16788 83.5911C4.61662 83.5574 4.1424 83.9769 4.10866 84.5282ZM47.7429 84.748C47.7074 84.1968 47.2318 83.7788 46.6806 83.8144C46.0131 83.8574 45.3466 83.8981 44.6813 83.9366C44.1299 83.9684 43.7088 84.4412 43.7406 84.9926C43.7725 85.544 44.2453 85.9651 44.7967 85.9333C45.4665 85.8946 46.1374 85.8535 46.8093 85.8102C47.3604 85.7747 47.7784 85.2991 47.7429 84.748ZM11.97 84.9602C11.9457 85.5119 12.3733 85.9789 12.925 86.0032C13.5822 86.0321 14.2384 86.0595 14.8937 86.0853C15.4456 86.1071 15.9106 85.6774 15.9323 85.1255C15.9541 84.5737 15.5244 84.1086 14.9725 84.0869C14.3203 84.0612 13.6671 84.0339 13.013 84.0051C12.4612 83.9808 11.9942 84.4084 11.97 84.9602ZM39.7106 85.1834C39.6905 84.6315 39.2268 84.2003 38.6749 84.2204C38.0087 84.2446 37.3439 84.2663 36.6808 84.2855C36.1287 84.3014 35.6941 84.7618 35.71 85.3138C35.7259 85.8659 36.1863 86.3005 36.7384 86.2846C37.4066 86.2654 38.0764 86.2435 38.7477 86.2191C39.2996 86.199 39.7307 85.7353 39.7106 85.1834ZM19.8358 85.2515C19.8221 85.8036 20.2586 86.2622 20.8107 86.2759C21.4669 86.2922 22.1219 86.3067 22.7755 86.3195C23.3276 86.3303 23.784 85.8915 23.7948 85.3393C23.8057 84.7871 23.3668 84.3307 22.8146 84.3199C22.1645 84.3072 21.513 84.2927 20.8602 84.2765C20.3081 84.2628 19.8494 84.6993 19.8358 85.2515ZM31.6754 85.382C31.673 84.8297 31.2234 84.3839 30.6711 84.3863C30.3395 84.3877 30.0084 84.3884 29.6777 84.3884C29.3535 84.3884 29.0289 84.388 28.7038 84.387C28.1515 84.3854 27.7025 84.8318 27.7008 85.3841C27.6992 85.9364 28.1456 86.3854 28.6979 86.387C29.0249 86.388 29.3515 86.3884 29.6777 86.3884C30.0112 86.3884 30.3453 86.3877 30.6797 86.3863C31.232 86.3839 31.6778 85.9342 31.6754 85.382ZM213.904 46.5148C214.066 47.0429 214.625 47.3399 215.153 47.1782L214.861 46.222L215.153 47.1782V47.1782L215.153 47.1782L215.154 47.178L215.157 47.1772L215.167 47.174L215.21 47.161L215.381 47.109C215.533 47.0629 215.761 46.9944 216.061 46.9048C216.59 46.7468 216.891 46.1896 216.733 45.6604C216.575 45.1313 216.017 44.8304 215.488 44.9885C215.186 45.0788 214.957 45.148 214.802 45.1946L214.627 45.2476L214.583 45.2612L214.572 45.2646L214.569 45.2655L214.568 45.2658L214.568 45.2658L214.568 45.2659L214.568 45.2659L214.861 46.222L214.568 45.2659C214.04 45.4276 213.743 45.9868 213.904 46.5148ZM220.612 44.5355C220.763 45.0668 221.316 45.3751 221.847 45.2242C222.436 45.0569 223.061 44.8804 223.721 44.6953C224.252 44.5461 224.562 43.994 224.413 43.4623C224.264 42.9305 223.712 42.6204 223.18 42.7697C222.518 42.9554 221.891 43.1325 221.3 43.3003C220.769 43.4512 220.461 44.0042 220.612 44.5355ZM228.266 42.3995C228.411 42.9325 228.96 43.2474 229.493 43.1027C230.13 42.9298 230.786 42.7528 231.46 42.5719C231.993 42.4287 232.31 41.8802 232.166 41.3468C232.023 40.8134 231.475 40.4971 230.941 40.6403C230.266 40.8217 229.608 40.9992 228.97 41.1725C228.437 41.3172 228.122 41.8665 228.266 42.3995ZM236 40.3333C236.14 40.8678 236.686 41.1882 237.22 41.049C237.856 40.8835 238.503 40.7158 239.161 40.5461C239.696 40.4082 240.018 39.8629 239.88 39.3281C239.742 38.7933 239.197 38.4715 238.662 38.6094C238.002 38.7795 237.353 38.9476 236.716 39.1136C236.182 39.2527 235.861 39.7988 236 40.3333ZM243.784 38.3369C243.918 38.8727 244.461 39.1984 244.997 39.0644C245.623 38.9078 246.257 38.75 246.899 38.5911C247.435 38.4584 247.762 37.9162 247.63 37.3801C247.497 36.844 246.955 36.517 246.419 36.6497C245.775 36.809 245.14 36.9672 244.512 37.1242C243.976 37.2582 243.65 37.8011 243.784 38.3369ZM557.055 48.203C557.587 48.3504 558.138 48.0384 558.285 47.5061C558.432 46.9738 558.12 46.4229 557.588 46.2755L557.321 47.2393L557.588 46.2755L557.588 46.2754L557.587 46.2752L557.584 46.2744L557.573 46.2714L557.529 46.2593L557.356 46.2118C557.204 46.1699 556.976 46.1078 556.677 46.0266C556.144 45.882 555.594 46.1969 555.45 46.73C555.305 47.263 555.62 47.8123 556.153 47.9568C556.451 48.0376 556.677 48.0992 556.828 48.1406L556.998 48.1874L557.041 48.1992L557.051 48.2021L557.054 48.2028M557.055 48.203C557.055 48.203 557.055 48.203 557.054 48.203L557.055 48.203ZM251.513 36.4332C251.642 36.9702 252.182 37.301 252.719 37.1721C253.365 37.0169 254.018 36.861 254.676 36.7045C255.214 36.5769 255.546 36.0378 255.418 35.5004C255.291 34.9631 254.752 34.631 254.214 34.7587C253.554 34.9155 252.9 35.0718 252.252 35.2273C251.715 35.3563 251.384 35.8961 251.513 36.4332ZM551.682 45.7329C551.821 45.1984 551.5 44.6524 550.966 44.5133C550.381 44.3611 549.76 44.2002 549.104 44.0313C548.569 43.8936 548.024 44.2155 547.886 44.7503C547.748 45.2851 548.07 45.8303 548.605 45.9681C549.259 46.1366 549.879 46.2971 550.462 46.4489C550.997 46.588 551.543 46.2674 551.682 45.7329ZM259.314 34.5895C259.438 35.1277 259.974 35.4637 260.513 35.3398C261.156 35.1918 261.804 35.0435 262.457 34.8949C262.995 34.7724 263.333 34.2365 263.21 33.698C263.087 33.1594 262.552 32.8222 262.013 32.9448C261.359 33.0937 260.709 33.2424 260.064 33.3907C259.526 33.5146 259.19 34.0513 259.314 34.5895ZM544.143 43.7998C544.278 43.2641 543.952 42.721 543.417 42.5867C542.787 42.429 542.139 42.2672 541.473 42.1018C540.937 41.9686 540.395 42.2952 540.262 42.8312C540.128 43.3672 540.455 43.9096 540.991 44.0428C541.656 44.2079 542.302 44.3693 542.93 44.5267C543.466 44.661 544.009 44.3356 544.143 43.7998ZM536.542 41.9185C536.672 41.3818 536.343 40.8412 535.806 40.7111C535.175 40.5582 534.533 40.4031 533.879 40.246C533.342 40.1168 532.802 40.4475 532.673 40.9845C532.544 41.5215 532.875 42.0614 533.412 42.1905C534.064 42.3474 534.705 42.5022 535.335 42.6548C535.872 42.7849 536.412 42.4553 536.542 41.9185ZM267.114 32.8242C267.233 33.3636 267.767 33.7047 268.306 33.586C268.948 33.4448 269.594 33.3035 270.243 33.1623C270.783 33.045 271.125 32.5123 271.008 31.9727C270.891 31.433 270.358 31.0906 269.818 31.208C269.167 31.3496 268.52 31.4912 267.876 31.6327C267.337 31.7514 266.996 32.2848 267.114 32.8242ZM528.904 40.089C529.03 39.5513 528.696 39.0132 528.159 38.887C527.539 38.7416 526.912 38.5949 526.277 38.4471C525.739 38.3219 525.202 38.6564 525.076 39.1943C524.951 39.7322 525.286 40.2698 525.824 40.395C526.457 40.5426 527.083 40.6889 527.702 40.8341C528.239 40.9603 528.777 40.6267 528.904 40.089ZM274.92 31.1371C275.034 31.6776 275.564 32.024 276.104 31.9106C276.754 31.7745 277.406 31.6386 278.061 31.5029C278.602 31.391 278.95 30.8618 278.838 30.321C278.726 29.7802 278.197 29.4325 277.656 29.5445C276.999 29.6805 276.345 29.8168 275.694 29.9532C275.153 30.0665 274.807 30.5966 274.92 31.1371ZM521.303 38.3262C521.425 37.7876 521.088 37.2518 520.549 37.1294C519.91 36.9841 519.264 36.8379 518.612 36.691C518.073 36.5696 517.538 36.9079 517.417 37.4467C517.295 37.9854 517.634 38.5206 518.172 38.6421C518.823 38.7887 519.468 38.9346 520.106 39.0797C520.645 39.2021 521.18 38.8647 521.303 38.3262ZM282.755 29.5258C282.862 30.0675 283.389 30.4192 283.931 30.3114C284.585 30.1813 285.241 30.0515 285.901 29.9221C286.443 29.8158 286.796 29.2902 286.689 28.7483C286.583 28.2063 286.058 27.8532 285.516 27.9596C284.855 28.0893 284.196 28.2194 283.54 28.3499C282.999 28.4577 282.647 28.9842 282.755 29.5258ZM513.637 36.6053C513.756 36.0659 513.414 35.5325 512.875 35.4139C512.25 35.2765 511.62 35.1386 510.985 35.0003C510.446 34.8827 509.913 35.2248 509.795 35.7644C509.678 36.304 510.02 36.8368 510.56 36.9544C511.193 37.0925 511.822 37.2301 512.446 37.3673C512.985 37.4858 513.518 37.1447 513.637 36.6053ZM290.609 27.9953C290.711 28.5381 291.234 28.8955 291.777 28.7935C292.433 28.6702 293.091 28.5475 293.752 28.4253C294.295 28.3248 294.653 27.8031 294.553 27.2601C294.453 26.717 293.931 26.3582 293.388 26.4587C292.726 26.5812 292.065 26.7043 291.408 26.8279C290.865 26.9298 290.507 27.4525 290.609 27.9953ZM506.01 34.9499C506.125 34.4097 505.78 33.8787 505.24 33.764C504.607 33.6295 503.969 33.4949 503.329 33.36C502.788 33.2462 502.258 33.5922 502.144 34.1326C502.03 34.673 502.376 35.2034 502.917 35.3171C503.556 35.4517 504.192 35.5862 504.824 35.7204C505.365 35.8351 505.896 35.4902 506.01 34.9499ZM498.355 33.346C498.466 32.8049 498.117 32.2765 497.576 32.1657C496.936 32.0347 496.293 31.9037 495.647 31.7727C495.105 31.6629 494.578 32.0128 494.468 32.554C494.358 33.0953 494.708 33.6231 495.249 33.7328C495.894 33.8636 496.536 33.9944 497.175 34.1251C497.716 34.2359 498.244 33.887 498.355 33.346ZM298.481 26.5504C298.577 27.0943 299.095 27.4575 299.639 27.3617C300.293 27.2464 300.948 27.1319 301.606 27.018C302.15 26.9238 302.514 26.4062 302.42 25.862C302.326 25.3178 301.808 24.9531 301.264 25.0474C300.605 25.1616 299.948 25.2765 299.292 25.392C298.748 25.4879 298.385 26.0065 298.481 26.5504ZM490.678 31.7968C490.785 31.2549 490.432 30.7291 489.89 30.6225C489.247 30.4958 488.6 30.3692 487.952 30.2427C487.409 30.1371 486.884 30.491 486.779 31.0331C486.673 31.5751 487.027 32.1002 487.569 32.2058C488.217 32.332 488.862 32.4583 489.504 32.5848C490.046 32.6915 490.572 32.3387 490.678 31.7968ZM306.367 25.1962C306.457 25.7412 306.971 26.1106 307.516 26.0212C308.169 25.9141 308.823 25.8078 309.479 25.7023C310.024 25.6146 310.395 25.1015 310.307 24.5562C310.22 24.0109 309.706 23.64 309.161 23.7277C308.503 23.8335 307.847 23.9401 307.192 24.0476C306.647 24.1369 306.278 24.6512 306.367 25.1962ZM482.988 30.306C483.09 29.7633 482.733 29.2403 482.19 29.1379C481.551 29.0173 480.91 28.8969 480.267 28.7768C479.724 28.6755 479.201 29.0335 479.1 29.5764C478.999 30.1193 479.357 30.6416 479.9 30.7429C480.542 30.8627 481.182 30.9828 481.82 31.1032C482.362 31.2056 482.885 30.8487 482.988 30.306ZM314.262 23.9392C314.345 24.4853 314.854 24.8611 315.4 24.7786C316.056 24.6796 316.712 24.5815 317.369 24.4844C317.916 24.4037 318.293 23.8954 318.212 23.349C318.132 22.8027 317.623 22.4252 317.077 22.5059C316.417 22.6033 315.759 22.7017 315.101 22.801C314.555 22.8835 314.18 23.3931 314.262 23.9392ZM475.286 28.8768C475.384 28.3333 475.023 27.8133 474.48 27.7154C473.843 27.6006 473.204 27.4862 472.564 27.3722C472.02 27.2754 471.501 27.6377 471.404 28.1814C471.307 28.7251 471.669 29.2444 472.213 29.3412C472.852 29.455 473.489 29.5691 474.125 29.6836C474.669 29.7816 475.189 29.4204 475.286 28.8768ZM322.173 22.7844C322.248 23.3316 322.753 23.7142 323.3 23.6391C323.958 23.5488 324.616 23.4596 325.275 23.3715C325.823 23.2984 326.207 22.7953 326.134 22.2479C326.061 21.7004 325.558 21.316 325.01 21.3892C324.349 21.4776 323.688 21.5671 323.028 21.6577C322.481 21.7328 322.098 22.2372 322.173 22.7844ZM467.586 27.5145C467.68 26.9701 467.314 26.4532 466.77 26.36C466.13 26.2504 465.488 26.1412 464.846 26.0326C464.301 25.9406 463.785 26.3074 463.693 26.852C463.601 27.3965 463.968 27.9126 464.512 28.0046C465.153 28.113 465.793 28.2219 466.432 28.3313C466.976 28.4245 467.493 28.0588 467.586 27.5145ZM459.871 26.2195C459.96 25.6743 459.589 25.1608 459.044 25.0725C458.402 24.9685 457.758 24.8651 457.114 24.7623C456.568 24.6753 456.056 25.0469 455.969 25.5923C455.882 26.1377 456.253 26.6504 456.799 26.7374C457.442 26.8399 458.083 26.9431 458.724 27.0468C459.27 27.1351 459.783 26.7647 459.871 26.2195ZM330.101 21.7394C330.169 22.2876 330.667 22.6776 331.216 22.6105C331.875 22.5297 332.535 22.4501 333.196 22.3717C333.744 22.3067 334.136 21.8094 334.071 21.2609C334.006 20.7125 333.509 20.3206 332.96 20.3857C332.297 20.4643 331.635 20.5442 330.972 20.6253C330.424 20.6924 330.034 21.1912 330.101 21.7394ZM452.143 24.9964C452.226 24.4504 451.85 23.9405 451.304 23.8576C450.66 23.7596 450.015 23.6624 449.369 23.5659C448.822 23.4844 448.313 23.861 448.232 24.4073C448.15 24.9535 448.527 25.4624 449.073 25.544C449.717 25.6402 450.361 25.7372 451.004 25.8349C451.55 25.9178 452.06 25.5424 452.143 24.9964ZM338.045 20.8132C338.104 21.3624 338.596 21.7602 339.146 21.7017C339.807 21.6313 340.468 21.5622 341.13 21.4945C341.679 21.4383 342.079 20.9473 342.023 20.3979C341.967 19.8485 341.476 19.4487 340.926 19.5049C340.262 19.5728 339.598 19.6422 338.934 19.7129C338.385 19.7714 337.987 20.2641 338.045 20.8132ZM444.401 23.8503C444.478 23.3035 444.098 22.7975 443.551 22.7202C442.905 22.6289 442.258 22.5384 441.611 22.4488C441.064 22.373 440.559 22.755 440.483 23.3021C440.407 23.8491 440.789 24.3541 441.337 24.4298C441.982 24.5193 442.627 24.6095 443.271 24.7006C443.818 24.7778 444.324 24.3972 444.401 23.8503ZM346.004 20.0162C346.053 20.5663 346.538 20.9725 347.089 20.9234C347.751 20.8643 348.413 20.8067 349.076 20.7507C349.626 20.7041 350.034 20.2203 349.988 19.6699C349.941 19.1196 349.457 18.7113 348.907 18.7578C348.242 18.8141 347.576 18.872 346.911 18.9313C346.361 18.9804 345.955 19.4661 346.004 20.0162ZM436.647 22.7869C436.718 22.2393 436.332 21.7376 435.784 21.6664C435.137 21.5823 434.489 21.4991 433.841 21.4169C433.293 21.3473 432.793 21.7351 432.723 22.283C432.654 22.8309 433.041 23.3314 433.589 23.4009C434.235 23.4829 434.881 23.5659 435.527 23.6498C436.074 23.7209 436.576 23.3346 436.647 22.7869ZM428.881 21.813C428.946 21.2645 428.553 20.7675 428.005 20.703C427.356 20.6267 426.707 20.5515 426.059 20.4773C425.51 20.4145 425.014 20.8084 424.952 21.3571C424.889 21.9059 425.283 22.4016 425.831 22.4643C426.478 22.5383 427.125 22.6133 427.771 22.6893C428.32 22.7538 428.817 22.3615 428.881 21.813ZM353.975 19.3606C354.014 19.9115 354.492 20.3267 355.043 20.288C355.706 20.2414 356.369 20.1965 357.031 20.1532C357.582 20.1173 358 19.6414 357.964 19.0903C357.928 18.5391 357.452 18.1215 356.901 18.1575C356.235 18.2009 355.569 18.2461 354.903 18.2929C354.352 18.3317 353.936 18.8097 353.975 19.3606ZM421.104 20.9362C421.161 20.3869 420.762 19.8952 420.213 19.8379C419.563 19.7702 418.914 19.7036 418.265 19.6382C417.715 19.5829 417.225 19.9835 417.169 20.533C417.114 21.0825 417.515 21.5728 418.064 21.6281C418.711 21.6933 419.358 21.7596 420.005 21.8271C420.555 21.8844 421.046 21.4855 421.104 20.9362ZM361.958 18.8606C361.985 19.4122 362.454 19.8373 363.006 19.81C363.669 19.7772 364.332 19.7463 364.994 19.7172C365.546 19.693 365.974 19.2261 365.949 18.6744C365.925 18.1226 365.458 17.6949 364.906 17.7192C364.241 17.7484 363.574 17.7795 362.907 17.8125C362.356 17.8397 361.93 18.309 361.958 18.8606ZM413.315 20.1657C413.364 19.6156 412.958 19.1297 412.408 19.0804C411.758 19.0221 411.108 18.9651 410.459 18.9094C409.909 18.8622 409.424 19.27 409.377 19.8203C409.33 20.3705 409.738 20.8549 410.288 20.9021C410.935 20.9576 411.582 21.0143 412.23 21.0724C412.78 21.1217 413.266 20.7158 413.315 20.1657ZM369.949 18.5333C369.963 19.0854 370.422 19.5212 370.974 19.5067C371.638 19.4893 372.3 19.4739 372.96 19.4606C373.513 19.4495 373.951 18.9929 373.94 18.4407C373.929 17.8885 373.472 17.4499 372.92 17.461C372.255 17.4744 371.589 17.4898 370.922 17.5074C370.37 17.5219 369.934 17.9812 369.949 18.5333ZM405.516 19.5122C405.557 18.9614 405.143 18.4821 404.593 18.4416C403.942 18.3937 403.292 18.3473 402.643 18.3023C402.092 18.2642 401.615 18.6799 401.577 19.2308C401.538 19.7818 401.954 20.2594 402.505 20.2976C403.151 20.3423 403.798 20.3885 404.446 20.4362C404.997 20.4767 405.476 20.063 405.516 19.5122ZM377.943 18.3989C377.943 18.9512 378.391 19.3987 378.944 19.3985C379.606 19.3983 380.266 19.4004 380.925 19.4047C381.478 19.4084 381.928 18.9636 381.932 18.4114C381.936 17.8591 381.491 17.4084 380.939 17.4048C380.275 17.4004 379.61 17.3983 378.943 17.3985C378.391 17.3987 377.943 17.8466 377.943 18.3989ZM397.709 18.9887C397.74 18.4372 397.318 17.9653 396.766 17.9346C396.115 17.8983 395.465 17.8637 394.816 17.8306C394.264 17.8025 393.794 18.2269 393.766 18.7785C393.738 19.33 394.162 19.7999 394.714 19.828C395.36 19.8609 396.007 19.8954 396.655 19.9315C397.207 19.9622 397.679 19.5401 397.709 18.9887ZM385.935 18.4816C385.919 19.0337 386.354 19.4942 386.906 19.5103C387.236 19.5198 387.565 19.53 387.893 19.5409C388.216 19.5515 388.538 19.5626 388.861 19.5741C389.413 19.5938 389.877 19.1623 389.896 18.6103C389.916 18.0584 389.484 17.595 388.932 17.5754C388.608 17.5638 388.283 17.5526 387.959 17.542C387.628 17.531 387.296 17.5208 386.964 17.5111C386.412 17.4951 385.951 17.9296 385.935 18.4816ZM971.904 40.5158C971.742 39.9877 972.039 39.4285 972.568 39.2668L971.904 40.5158ZM972.568 39.2668L972.86 40.223L972.568 39.2668ZM972.86 40.223L972.568 39.2668L972.86 40.223ZM972.568 39.2668L972.568 39.2668L972.568 39.2668ZM972.568 39.2668V39.2668V39.2668ZM972.568 39.2668L972.568 39.2667L972.568 39.2668ZM972.568 39.2667L972.569 39.2665L972.568 39.2667ZM972.569 39.2665L972.571 39.2656L972.569 39.2665ZM972.571 39.2656L972.582 39.2624L972.571 39.2656ZM972.582 39.2624L972.623 39.2498L972.582 39.2624ZM972.623 39.2498L972.787 39.2001L972.623 39.2498ZM972.787 39.2001C972.931 39.1563 973.146 39.0913 973.43 39.0061L972.787 39.2001ZM973.367 41.1141C973.51 41.0708 973.723 41.0063 974.005 40.9216C974.534 40.7629 974.834 40.2054 974.676 39.6764C974.517 39.1474 973.959 38.8473 973.43 39.0061M973.367 41.1141L973.206 41.1629L973.367 41.1141ZM973.206 41.1629L973.166 41.1752L973.206 41.1629ZM973.166 41.1752L973.156 41.1782L973.166 41.1752ZM973.156 41.1782L973.154 41.1789L973.156 41.1782ZM973.154 41.1789L973.153 41.1791L973.154 41.1789ZM973.153 41.1791L973.153 41.1791L973.153 41.1791ZM973.153 41.1791V41.1791V41.1791ZM978.532 38.5468C978.685 39.0775 979.24 39.3838 979.77 39.2309C980.364 39.06 980.995 38.8791 981.662 38.6887C982.193 38.5372 982.501 37.9839 982.349 37.4528C982.198 36.9217 981.645 36.6139 981.113 36.7654C980.444 36.9563 979.812 37.1377 979.217 37.3091C978.686 37.4619 978.38 38.0161 978.532 38.5468ZM986.185 36.3735C986.332 36.9056 986.884 37.2171 987.416 37.0692C988.029 36.8988 988.66 36.7242 989.308 36.5454C989.84 36.3986 990.153 35.848 990.006 35.3156C989.859 34.7832 989.309 34.4706 988.776 34.6174C988.127 34.7965 987.495 34.9715 986.88 35.1422C986.348 35.2901 986.037 35.8414 986.185 36.3735ZM993.855 34.2667C993.999 34.8 994.548 35.1158 995.081 34.9721C995.715 34.8011 996.362 34.6275 997.02 34.4515C997.554 34.3088 997.871 33.7606 997.728 33.2271C997.585 32.6935 997.037 32.3767 996.504 32.5194C995.844 32.6958 995.196 32.8697 994.56 33.041C994.027 33.1846 993.711 33.7334 993.855 34.2667ZM1001.57 32.2116C1001.71 32.7459 1002.25 33.0657 1002.79 32.9259C1003.41 32.7633 1004.04 32.5991 1004.68 32.4334C1005.21 32.2945 1005.53 31.7486 1005.39 31.2141C1005.25 30.6795 1004.71 30.3588 1004.17 30.4977C1003.53 30.6637 1002.9 30.8282 1002.28 30.991C1001.75 31.1309 1001.43 31.6773 1001.57 32.2116ZM1009.24 30.2237C1009.38 30.7589 1009.92 31.0825 1010.46 30.9464C1011.09 30.785 1011.74 30.6226 1012.38 30.4591C1012.92 30.3239 1013.24 29.7802 1013.11 29.2447C1012.97 28.7092 1012.43 28.3847 1011.89 28.52C1011.24 28.6837 1010.6 28.8464 1009.97 29.0081C1009.43 29.1442 1009.11 29.6884 1009.24 30.2237ZM1016.96 28.2826C1017.09 28.8187 1017.63 29.1459 1018.17 29.0134C1018.81 28.855 1019.46 28.6959 1020.11 28.5361C1020.64 28.4045 1020.97 27.863 1020.84 27.3266C1020.71 26.7902 1020.17 26.4621 1019.63 26.5937C1018.98 26.7538 1018.33 26.9132 1017.69 27.0718C1017.15 27.2044 1016.83 27.7464 1016.96 28.2826ZM1454.04 41.9162C1454.19 41.3839 1453.87 40.833 1453.34 40.6856L1453.34 40.6855L1453.34 40.6853L1453.34 40.6846L1453.33 40.6816L1453.28 40.67L1453.12 40.624C1453.03 40.5995 1452.91 40.5679 1452.77 40.5292L1452.46 40.4439C1451.93 40.2989 1451.38 40.6133 1451.23 41.1462C1451.09 41.6791 1451.4 42.2287 1451.93 42.3737C1452.22 42.4525 1452.44 42.5124 1452.59 42.5526L1452.75 42.598L1452.79 42.6094L1452.8 42.6122L1452.81 42.6129L1452.81 42.6131C1453.34 42.7605 1453.89 42.4485 1454.04 41.9162ZM1024.69 26.392C1024.82 26.9291 1025.36 27.2599 1025.9 27.131C1026.54 26.9765 1027.19 26.8215 1027.84 26.6661C1028.38 26.5381 1028.71 25.9988 1028.58 25.4615C1028.45 24.9243 1027.91 24.5925 1027.38 24.7205C1026.72 24.8762 1026.07 25.0315 1025.43 25.1863C1024.89 25.3152 1024.56 25.855 1024.69 26.392ZM1447.31 40.0996C1447.45 39.5655 1447.13 39.0186 1446.59 38.8782C1445.97 38.7152 1445.31 38.5422 1444.61 38.3599C1444.08 38.2206 1443.53 38.5409 1443.39 39.0753C1443.25 39.6097 1443.57 40.1559 1444.11 40.2952C1444.81 40.4772 1445.47 40.6498 1446.08 40.8125C1446.62 40.9529 1447.17 40.6337 1447.31 40.0996ZM1439.52 38.0772C1439.66 37.5421 1439.34 36.9976 1438.8 36.861C1438.16 36.698 1437.5 36.5306 1436.83 36.3591C1436.29 36.2234 1435.75 36.5474 1435.61 37.0828C1435.48 37.6182 1435.8 38.1621 1436.33 38.2978C1437.01 38.469 1437.67 38.6361 1438.31 38.799C1438.84 38.9355 1439.39 38.6124 1439.52 38.0772ZM1032.44 24.5532C1032.56 25.0911 1033.1 25.4255 1033.64 25.3002C1034.28 25.1501 1034.93 24.9997 1035.58 24.8491C1036.12 24.7247 1036.46 24.1876 1036.33 23.6495C1036.21 23.1114 1035.67 22.7761 1035.13 22.9004C1034.48 23.0514 1033.83 23.202 1033.18 23.3524C1032.65 23.4777 1032.31 24.0153 1032.44 24.5532ZM1431.65 36.0897C1431.79 35.5537 1431.46 35.0112 1430.92 34.878C1430.3 34.7238 1429.67 34.5672 1429.03 34.4085C1428.49 34.276 1427.95 34.6032 1427.82 35.1394C1427.69 35.6755 1428.01 36.2176 1428.55 36.3501C1429.19 36.5086 1429.82 36.6649 1430.44 36.8189C1430.98 36.9521 1431.52 36.6256 1431.65 36.0897ZM1040.2 22.7663C1040.32 23.305 1040.85 23.6431 1041.39 23.5214C1042.04 23.376 1042.68 23.2304 1043.33 23.0847C1043.87 22.964 1044.21 22.4292 1044.09 21.8903C1043.97 21.3514 1043.43 21.0124 1042.9 21.1331C1042.24 21.279 1041.6 21.4248 1040.95 21.5705C1040.41 21.6922 1040.07 22.2275 1040.2 22.7663ZM1423.9 34.1794C1424.03 33.6427 1423.7 33.102 1423.16 32.9718C1422.52 32.8152 1421.86 32.6569 1421.2 32.4971C1420.66 32.3675 1420.12 32.6978 1419.99 33.2347C1419.86 33.7716 1420.19 34.3118 1420.73 34.4413C1421.39 34.6009 1422.05 34.759 1422.69 34.9153C1423.23 35.0456 1423.77 34.7161 1423.9 34.1794ZM1047.97 21.0316C1048.09 21.5712 1048.62 21.9129 1049.16 21.795C1049.8 21.6544 1050.45 21.5138 1051.1 21.3732C1051.64 21.2561 1051.98 20.7237 1051.86 20.184C1051.75 19.6442 1051.21 19.3016 1050.67 19.4186C1050.02 19.5594 1049.38 19.7003 1048.73 19.8411C1048.19 19.9591 1047.85 20.4921 1047.97 21.0316ZM1416.07 32.2971C1416.2 31.7597 1415.87 31.2208 1415.33 31.0935C1414.67 30.9375 1414.01 30.7803 1413.34 30.622C1412.8 30.4954 1412.26 30.8285 1412.13 31.3661C1412.01 31.9036 1412.34 32.4421 1412.88 32.5687C1413.55 32.7268 1414.21 32.8838 1414.87 33.0396C1415.41 33.1669 1415.95 32.8345 1416.07 32.2971ZM1055.76 19.3501C1055.87 19.8904 1056.4 20.2359 1056.94 20.1218C1057.59 19.9861 1058.23 19.8505 1058.88 19.715C1059.42 19.6018 1059.76 19.0718 1059.65 18.5313C1059.54 17.9907 1059.01 17.6443 1058.47 17.7575C1057.82 17.8932 1057.17 18.029 1056.53 18.165C1055.99 18.2791 1055.64 18.8097 1055.76 19.3501ZM1408.22 30.4536C1408.35 29.9155 1408.01 29.3784 1407.48 29.2538C1406.82 29.1013 1406.15 28.9479 1405.48 28.7937C1404.94 28.6699 1404.41 29.0058 1404.28 29.544C1404.16 30.0823 1404.5 30.619 1405.03 30.7428C1405.7 30.8968 1406.37 31.05 1407.03 31.2023C1407.56 31.3269 1408.1 30.9916 1408.22 30.4536ZM1063.56 17.7229C1063.67 18.264 1064.2 18.6133 1064.74 18.5031C1065.38 18.3723 1066.03 18.2418 1066.67 18.1115C1067.21 18.0022 1067.56 17.4748 1067.46 16.9334C1067.35 16.392 1066.82 16.0418 1066.28 16.1511C1065.63 16.2816 1064.99 16.4124 1064.34 16.5433C1063.8 16.6536 1063.45 17.1817 1063.56 17.7229ZM1400.37 28.652C1400.49 28.1133 1400.16 27.5779 1399.62 27.4561C1398.96 27.3082 1398.3 27.1597 1397.64 27.0106C1397.1 26.8896 1396.57 27.2283 1396.45 27.7671C1396.32 28.306 1396.66 28.8409 1397.2 28.962C1397.86 29.1109 1398.52 29.2592 1399.18 29.4069C1399.71 29.5287 1400.25 29.1907 1400.37 28.652ZM1392.52 26.8927C1392.64 26.3534 1392.3 25.8197 1391.76 25.7008C1391.1 25.5563 1390.44 25.4114 1389.78 25.2661C1389.24 25.1479 1388.71 25.4893 1388.59 26.0288C1388.47 26.5683 1388.81 27.1015 1389.35 27.2197C1390.01 27.3648 1390.67 27.5095 1391.33 27.6538C1391.86 27.7728 1392.4 27.432 1392.52 26.8927ZM1071.36 16.1565C1071.47 16.6985 1071.99 17.0517 1072.53 16.9454C1073.18 16.8181 1073.83 16.6911 1074.49 16.5644C1075.03 16.4592 1075.38 15.9343 1075.28 15.3922C1075.17 14.85 1074.65 14.4958 1074.1 14.6011C1073.45 14.728 1072.8 14.8553 1072.15 14.9828C1071.61 15.0891 1071.25 15.6146 1071.36 16.1565ZM1384.66 25.1754C1384.77 24.6355 1384.43 24.1036 1383.89 23.9875C1383.23 23.8457 1382.57 23.7036 1381.9 23.5614C1381.36 23.4459 1380.83 23.7902 1380.72 24.3303C1380.6 24.8704 1380.95 25.4018 1381.49 25.5172C1382.15 25.6593 1382.81 25.8011 1383.47 25.9428C1384.01 26.0589 1384.54 25.7153 1384.66 25.1754ZM1079.16 14.6494C1079.26 15.1922 1079.79 15.5494 1080.33 15.4472C1080.98 15.3242 1081.64 15.2015 1082.3 15.0791C1082.84 14.9781 1083.2 14.456 1083.1 13.913C1082.99 13.37 1082.47 13.0118 1081.93 13.1129C1081.27 13.2355 1080.61 13.3584 1079.96 13.4817C1079.42 13.5839 1079.06 14.1067 1079.16 14.6494ZM1376.79 23.4998C1376.91 22.9593 1376.56 22.4292 1376.02 22.3159C1375.36 22.1771 1374.69 22.0382 1374.02 21.8992C1373.48 21.7866 1372.95 22.1337 1372.84 22.6744C1372.73 23.2151 1373.08 23.7446 1373.62 23.8572C1374.28 23.996 1374.95 24.1348 1375.61 24.2734C1376.15 24.3867 1376.68 24.0403 1376.79 23.4998ZM1086.98 13.2009C1087.08 13.7445 1087.6 14.1058 1088.15 14.0079C1088.8 13.8905 1089.45 13.7736 1090.11 13.6571C1090.65 13.5603 1091.01 13.0411 1090.92 12.4974C1090.82 11.9536 1090.3 11.5913 1089.76 11.688C1089.1 11.8047 1088.45 11.9219 1087.79 12.0396C1087.25 12.1374 1086.89 12.6574 1086.98 13.2009ZM1368.92 21.8659C1369.03 21.3248 1368.68 20.7966 1368.14 20.6863C1367.48 20.5516 1366.81 20.4169 1366.15 20.2822C1365.61 20.1726 1365.08 20.5225 1364.97 21.0638C1364.86 21.6051 1365.21 22.1328 1365.75 22.2424C1366.42 22.3769 1367.08 22.5114 1367.74 22.6459C1368.28 22.7563 1368.81 22.4071 1368.92 21.8659ZM1094.83 11.8139C1094.92 12.3583 1095.44 12.7238 1095.98 12.6304C1096.63 12.5188 1097.28 12.4076 1097.94 12.2969C1098.48 12.2047 1098.85 11.6885 1098.76 11.144C1098.66 10.5994 1098.15 10.2328 1097.6 10.325C1096.95 10.4359 1096.3 10.5473 1095.64 10.6592C1095.1 10.7526 1094.73 11.2696 1094.83 11.8139ZM1361.03 20.2743C1361.14 19.7325 1360.78 19.2063 1360.24 19.0989C1359.58 18.9684 1358.92 18.838 1358.26 18.7076C1357.72 18.601 1357.19 18.9539 1357.09 19.4958C1356.98 20.0377 1357.33 20.5634 1357.88 20.67C1358.54 20.8002 1359.2 20.9305 1359.85 21.0608C1360.4 21.1681 1360.92 20.816 1361.03 20.2743ZM1353.13 18.7259C1353.23 18.1835 1352.88 17.6593 1352.34 17.555C1351.68 17.4287 1351.02 17.3025 1350.36 17.1765C1349.82 17.073 1349.29 17.4289 1349.19 17.9714C1349.09 18.5139 1349.44 19.0376 1349.98 19.1411C1350.64 19.2669 1351.3 19.3929 1351.96 19.5191C1352.5 19.6233 1353.02 19.2682 1353.13 18.7259ZM1102.68 10.4916C1102.77 11.0368 1103.29 11.4067 1103.83 11.318C1104.48 11.2121 1105.13 11.1068 1105.79 11.0021C1106.33 10.9146 1106.7 10.4016 1106.61 9.85629C1106.53 9.31098 1106.01 8.93988 1105.47 9.0274C1104.81 9.13234 1104.16 9.23788 1103.51 9.344C1102.96 9.43272 1102.59 9.94654 1102.68 10.4916ZM1345.21 17.2221C1345.32 16.6792 1344.96 16.1571 1344.41 16.056C1343.76 15.9338 1343.1 15.8119 1342.44 15.6903C1341.9 15.59 1341.38 15.949 1341.28 16.4921C1341.18 17.0352 1341.54 17.5567 1342.08 17.657C1342.74 17.7785 1343.39 17.9002 1344.05 18.0222C1344.59 18.1233 1345.11 17.7651 1345.21 17.2221ZM1110.54 9.23977C1110.62 9.78565 1111.13 10.1602 1111.68 10.0764C1112.34 9.97573 1112.99 9.87574 1113.65 9.77642C1114.19 9.69384 1114.57 9.18421 1114.49 8.63814C1114.4 8.09206 1113.9 7.71632 1113.35 7.79891C1112.69 7.89846 1112.03 7.99868 1111.38 8.09955C1110.83 8.18339 1110.46 8.69389 1110.54 9.23977ZM1337.29 15.7649C1337.39 15.2213 1337.02 14.7014 1336.48 14.6036C1335.83 14.4857 1335.17 14.3681 1334.51 14.2508C1333.97 14.1538 1333.45 14.516 1333.35 15.0597C1333.25 15.6034 1333.62 16.1228 1334.16 16.2197C1334.82 16.3368 1335.47 16.4543 1336.13 16.572C1336.67 16.6698 1337.19 16.3084 1337.29 15.7649ZM1118.41 8.05966C1118.48 8.6063 1118.99 8.98563 1119.54 8.90691C1120.19 8.81239 1120.85 8.7186 1121.51 8.62554C1122.06 8.54815 1122.44 8.0421 1122.36 7.49527C1122.28 6.94844 1121.77 6.56788 1121.23 6.64528C1120.57 6.73857 1119.91 6.83259 1119.25 6.92733C1118.71 7.00605 1118.33 7.51301 1118.41 8.05966ZM1329.37 14.3599C1329.47 13.8158 1329.1 13.2981 1328.56 13.2038C1327.9 13.0889 1327.23 12.9744 1326.57 12.8603C1326.02 12.7668 1325.51 13.1322 1325.41 13.6766C1325.32 14.2209 1325.69 14.7379 1326.23 14.8314C1326.89 14.9454 1327.56 15.0597 1328.22 15.1744C1328.76 15.2687 1329.28 14.9041 1329.37 14.3599ZM1126.29 6.95381C1126.36 7.50121 1126.86 7.88552 1127.41 7.81218C1128.07 7.72429 1128.72 7.63718 1129.38 7.55088C1129.93 7.47894 1130.31 6.97672 1130.24 6.42914C1130.17 5.88156 1129.67 5.49598 1129.12 5.56792C1128.46 5.65445 1127.8 5.74178 1127.15 5.82989C1126.6 5.90322 1126.21 6.40642 1126.29 6.95381ZM1321.45 13.0053C1321.54 12.4605 1321.17 11.9453 1320.63 11.8545C1319.96 11.7439 1319.3 11.6338 1318.63 11.5241C1318.09 11.4342 1317.57 11.8031 1317.48 12.348C1317.39 12.8929 1317.76 13.4075 1318.31 13.4974C1318.97 13.6069 1319.63 13.7169 1320.3 13.8273C1320.84 13.9181 1321.36 13.55 1321.45 13.0053ZM1134.18 5.92705C1134.25 6.47518 1134.75 6.86469 1135.3 6.79706C1135.95 6.71603 1136.61 6.63584 1137.27 6.55653C1137.82 6.49037 1138.21 5.99224 1138.14 5.44393C1138.08 4.89563 1137.58 4.50477 1137.03 4.57094C1136.37 4.65046 1135.71 4.73086 1135.05 4.81211C1134.5 4.87975 1134.12 5.37893 1134.18 5.92705ZM1313.51 11.7024C1313.59 11.157 1313.22 10.6443 1312.68 10.5572C1312.01 10.4515 1311.35 10.3462 1310.69 10.2414C1310.14 10.1553 1309.63 10.5277 1309.54 11.0733C1309.46 11.6188 1309.83 12.1308 1310.37 12.217C1311.04 12.3216 1311.7 12.4266 1312.36 12.5322C1312.91 12.6193 1313.42 12.2477 1313.51 11.7024ZM1305.55 10.4543C1305.63 9.90828 1305.26 9.39827 1304.71 9.31512C1304.05 9.21427 1303.39 9.11395 1302.72 9.01418C1302.18 8.93204 1301.67 9.30819 1301.59 9.85433C1301.51 10.4005 1301.88 10.9098 1302.43 10.9919C1303.09 11.0915 1303.75 11.1917 1304.41 11.2923C1304.96 11.3755 1305.47 11.0003 1305.55 10.4543ZM1142.08 4.98453C1142.15 5.53337 1142.64 5.92834 1143.19 5.86673C1143.85 5.79284 1144.51 5.71987 1145.17 5.64785C1145.71 5.5878 1146.11 5.09406 1146.05 4.54505C1145.99 3.99604 1145.5 3.59966 1144.95 3.6597C1144.29 3.73194 1143.63 3.80511 1142.97 3.87922C1142.42 3.94083 1142.02 4.43569 1142.08 4.98453ZM1297.59 9.26436C1297.67 8.71776 1297.29 8.21059 1296.74 8.13156C1296.08 8.03574 1295.42 7.9405 1294.75 7.84587C1294.2 7.76791 1293.7 8.14794 1293.62 8.69469C1293.54 9.24145 1293.92 9.74788 1294.47 9.82584C1295.13 9.92029 1295.79 10.0153 1296.45 10.111C1297 10.19 1297.51 9.81096 1297.59 9.26436ZM1150 4.13074C1150.05 4.68025 1150.54 5.08097 1151.09 5.02575C1151.75 4.95957 1152.41 4.89439 1153.07 4.83022C1153.62 4.77667 1154.02 4.28765 1153.97 3.73797C1153.91 3.18829 1153.42 2.78609 1152.87 2.83964C1152.21 2.90401 1151.55 2.96939 1150.89 3.03577C1150.34 3.09099 1149.94 3.58122 1150 4.13074ZM1289.62 8.13696C1289.7 7.58975 1289.32 7.08561 1288.77 7.01093C1288.1 6.92006 1287.44 6.82985 1286.77 6.7403C1286.22 6.66675 1285.72 7.05084 1285.65 7.59821C1285.57 8.14558 1285.96 8.64893 1286.5 8.72248C1287.17 8.81185 1287.83 8.90188 1288.5 8.99256C1289.05 9.06724 1289.55 8.68418 1289.62 8.13696ZM1157.92 3.3712C1157.97 3.92136 1158.46 4.32813 1159.01 4.27973C1159.67 4.22171 1160.32 4.16477 1160.98 4.10891C1161.53 4.06229 1161.94 3.57839 1161.9 3.02808C1161.85 2.47776 1161.37 2.06943 1160.82 2.11605C1160.15 2.17208 1159.49 2.22921 1158.83 2.28742C1158.28 2.33582 1157.87 2.82104 1157.92 3.3712ZM1281.65 7.07361C1281.72 6.52579 1281.33 6.02488 1280.78 5.9548C1280.12 5.86961 1279.45 5.78514 1278.78 5.70138C1278.24 5.63249 1277.74 6.02087 1277.67 6.56884C1277.6 7.11681 1277.99 7.61687 1278.53 7.68576C1279.2 7.76933 1279.86 7.85363 1280.53 7.93864C1281.08 8.00872 1281.58 7.62144 1281.65 7.07361ZM1165.85 2.71267C1165.89 3.26343 1166.37 3.67658 1166.92 3.63548C1167.58 3.58612 1168.25 3.53793 1168.91 3.49091C1169.46 3.45172 1169.87 2.97335 1169.83 2.42246C1169.79 1.87157 1169.32 1.45676 1168.76 1.49596C1168.1 1.54314 1167.44 1.5915 1166.77 1.64102C1166.22 1.68213 1165.81 2.16192 1165.85 2.71267ZM1273.66 6.07861C1273.73 5.53019 1273.33 5.03275 1272.78 4.96755C1272.12 4.88828 1271.45 4.80978 1270.78 4.73208C1270.24 4.66815 1269.74 5.06102 1269.68 5.6096C1269.61 6.15817 1270 6.6547 1270.55 6.71863C1271.22 6.79616 1271.88 6.87447 1272.55 6.95356C1273.1 7.01876 1273.59 6.62703 1273.66 6.07861ZM1173.79 2.16226C1173.82 2.71354 1174.29 3.13346 1174.84 3.10017C1175.51 3.06014 1176.17 3.02136 1176.83 2.98385C1177.38 2.95262 1177.8 2.48029 1177.77 1.92889C1177.74 1.37749 1177.27 0.955818 1176.72 0.987052C1176.05 1.0247 1175.39 1.06363 1174.72 1.10381C1174.17 1.13709 1173.75 1.61098 1173.79 2.16226ZM1265.67 5.15675C1265.73 4.60773 1265.33 4.11403 1264.78 4.05403C1264.11 3.98098 1263.44 3.90878 1262.78 3.83743C1262.23 3.77879 1261.73 4.17643 1261.68 4.7256C1261.62 5.27476 1262.01 5.76748 1262.56 5.82613C1263.23 5.89729 1263.9 5.96932 1264.56 6.04219C1265.11 6.10219 1265.61 5.70576 1265.67 5.15675ZM1257.67 4.31267C1257.72 3.76307 1257.32 3.2734 1256.77 3.21896C1256.1 3.15269 1255.43 3.08734 1254.76 3.02291C1254.21 2.96992 1253.72 3.37261 1253.67 3.92235C1253.62 4.47209 1254.02 4.96069 1254.57 5.01368C1255.24 5.07794 1255.9 5.14313 1256.57 5.20922C1257.12 5.26366 1257.61 4.86226 1257.67 4.31267ZM1181.74 1.7269C1181.76 2.27863 1182.23 2.70574 1182.78 2.68088C1183.44 2.65115 1184.1 2.62276 1184.76 2.59573C1185.31 2.57306 1185.74 2.10736 1185.72 1.55554C1185.69 1.00372 1185.23 0.574748 1184.68 0.597411C1184.02 0.624556 1183.35 0.653062 1182.69 0.682901C1182.14 0.707766 1181.71 1.17518 1181.74 1.7269ZM1249.65 3.55111C1249.7 3.00096 1249.29 2.51567 1248.74 2.4672C1248.07 2.40835 1247.41 2.35049 1246.74 2.29362C1246.19 2.2467 1245.7 2.65477 1245.66 3.20505C1245.61 3.75534 1246.02 4.23947 1246.57 4.28639C1247.23 4.3431 1247.9 4.4008 1248.57 4.45948C1249.12 4.50796 1249.6 4.10126 1249.65 3.55111ZM1189.7 1.41673C1189.71 1.9688 1190.17 2.40355 1190.72 2.3878C1191.38 2.36893 1192.05 2.3515 1192.7 2.33553C1193.26 2.32216 1193.69 1.86374 1193.68 1.31162C1193.67 0.759497 1193.21 0.322746 1192.66 0.336113C1191.99 0.352157 1191.33 0.369663 1190.67 0.388615C1190.11 0.404369 1189.68 0.864675 1189.7 1.41673ZM1241.63 2.87913C1241.67 2.32845 1241.26 1.84795 1240.71 1.80591C1240.04 1.75477 1239.37 1.70471 1238.7 1.65573C1238.15 1.61537 1237.67 2.02917 1237.63 2.57998C1237.59 3.13078 1238 3.61002 1238.55 3.65038C1239.22 3.69921 1239.89 3.74913 1240.55 3.8001C1241.1 3.84215 1241.59 3.42981 1241.63 2.87913ZM1197.65 1.24201C1197.66 1.79427 1198.11 2.23719 1198.66 2.23131C1199.32 2.22425 1199.99 2.21875 1200.65 2.21483C1201.2 2.21155 1201.65 1.7612 1201.64 1.20892C1201.64 0.656645 1201.19 0.211591 1200.64 0.214862C1199.97 0.218799 1199.31 0.224327 1198.64 0.231424C1198.09 0.237301 1197.64 0.689758 1197.65 1.24201ZM1233.6 2.30398C1233.64 1.75281 1233.22 1.27755 1232.67 1.24246C1232 1.19967 1231.32 1.15803 1230.65 1.11758C1230.1 1.08432 1229.63 1.50426 1229.6 2.05554C1229.56 2.60682 1229.98 3.08069 1230.53 3.11395C1231.2 3.15427 1231.87 3.19577 1232.54 3.23842C1233.09 3.27351 1233.57 2.85515 1233.6 2.30398ZM1205.6 1.21417C1205.59 1.76643 1206.04 2.21808 1206.59 2.22296C1207.26 2.22884 1207.92 2.23641 1208.58 2.24571C1209.14 2.25344 1209.59 1.81204 1209.6 1.25981C1209.61 0.707578 1209.16 0.253637 1208.61 0.245905C1207.95 0.236559 1207.28 0.228945 1206.61 0.223037C1206.06 0.218162 1205.6 0.661908 1205.6 1.21417ZM1225.58 1.83371C1225.6 1.28211 1225.18 0.812631 1224.63 0.785092C1223.95 0.751381 1223.28 0.718934 1222.61 0.687771C1222.05 0.662236 1221.59 1.08877 1221.56 1.64047C1221.53 2.19216 1221.96 2.6601 1222.51 2.68563C1223.18 2.71668 1223.86 2.74901 1224.53 2.7826C1225.08 2.81014 1225.55 2.38531 1225.58 1.83371ZM1213.56 1.34666C1213.54 1.89869 1213.97 2.3597 1214.52 2.37637C1214.85 2.38627 1215.18 2.39662 1215.51 2.40741C1215.84 2.41835 1216.17 2.42962 1216.5 2.44123C1217.06 2.46051 1217.52 2.0287 1217.54 1.47675C1217.56 0.924798 1217.13 0.461726 1216.57 0.442446C1216.24 0.430796 1215.91 0.41948 1215.57 0.408501C1215.24 0.397643 1214.91 0.387235 1214.58 0.377279C1214.03 0.360615 1213.57 0.79462 1213.56 1.34666Z" fill="url(#paint0_linear_791_7867)"/>
<defs>
<linearGradient id="paint0_linear_791_7867" x1="1.50001" y1="42.9996" x2="1435.5" y2="42.9996" gradientUnits="userSpaceOnUse">
<stop stop-color="#138B44"/>
<stop offset="0.484375" stop-color="#C79939"/>
<stop offset="1" stop-color="#008CDB"/>
</linearGradient>
</defs>
</svg>
