<svg width="55" height="76" viewBox="0 0 55 76" fill="none" xmlns="http://www.w3.org/2000/svg">
<path d="M5.08545 0H8.52456V3.38438H11.6945V0H15.1336V10.2422H11.6945V6.82813H8.55447V10.2422H5.08545V0ZM19.6793 3.41407H16.6439V0H26.1687V3.41407H23.1184V10.2422H19.6793V3.41407ZM27.6789 0H31.2825L33.4955 3.60704L35.7085 0H39.3121V10.2422H35.873V5.16563L33.4656 8.84689L31.0583 5.16563V10.2422H27.6789V0ZM41.0167 0H44.4559V6.85782H49.3304V10.2422H41.0167" fill="black"/>
<path d="M4.96563 69.9139L0.03125 14.9326H54.2796L49.3452 69.8842L27.1105 75.9999" fill="#E44D26"/>
<path d="M27.1555 71.3243V19.4453H49.3303L45.0987 66.3516" fill="#F16529"/>
<path d="M10.1095 26.1699H27.1555V32.909H17.5559L18.1839 39.8113H27.1555V46.5356H11.9636L10.1095 26.1699ZM12.2627 49.92H19.0811L19.5596 55.3082L27.1555 57.327V64.3629L13.2197 60.5036" fill="#EBEBEB"/>
<path d="M44.1417 26.1699H27.1255V32.909H43.5136L44.1417 26.1699ZM42.9006 39.8113H27.1255V46.5504H35.499L34.7065 55.3082L27.1255 57.327V64.3332L41.0315 60.5036" fill="white"/>
</svg>
