<svg width="75" height="76" viewBox="0 0 75 76" fill="none" xmlns="http://www.w3.org/2000/svg">
<path d="M74.7732 17.1932C74.8007 17.2945 74.8148 17.399 74.8151 17.5039V33.8171C74.8151 34.0265 74.7594 34.2322 74.6537 34.4134C74.548 34.5945 74.396 34.7448 74.213 34.849L60.4206 42.732V58.3568C60.4206 58.782 60.1929 59.1745 59.8215 59.3886L31.031 75.8416C30.9651 75.8788 30.8932 75.9026 30.8213 75.9278C30.7944 75.9368 30.7689 75.9531 30.7405 75.9605C30.5392 76.0132 30.3277 76.0132 30.1264 75.9605C30.0934 75.9516 30.0635 75.9338 30.032 75.9219C29.9661 75.8981 29.8972 75.8773 29.8343 75.8416L1.04983 59.3886C0.866974 59.2844 0.715036 59.1341 0.609334 58.9529C0.503631 58.7718 0.447899 58.5661 0.447754 58.3568L0.447754 9.41721C0.447754 9.31017 0.462731 9.20609 0.48969 9.10499C0.498676 9.07079 0.519644 9.03957 0.531626 9.00537C0.554091 8.94292 0.575059 8.87899 0.608009 8.82101C0.630475 8.78235 0.663424 8.75113 0.690383 8.71544C0.72483 8.66787 0.756282 8.6188 0.796721 8.57717C0.831168 8.54297 0.876099 8.5177 0.91504 8.48796C0.958473 8.45228 0.997414 8.41362 1.04684 8.38537H1.04834L15.4413 0.158896C15.6236 0.0547913 15.8302 0 16.0404 0C16.2507 0 16.4573 0.0547913 16.6395 0.158896L31.0325 8.38537H31.0355C31.0834 8.41511 31.1239 8.45228 31.1673 8.48648C31.2062 8.51621 31.2497 8.54298 31.2841 8.57568C31.3261 8.6188 31.356 8.66787 31.392 8.71544C31.4174 8.75113 31.4519 8.78235 31.4728 8.82101C31.5073 8.88048 31.5268 8.94292 31.5507 9.00537C31.5627 9.03957 31.5837 9.07079 31.5927 9.10647C31.6202 9.20779 31.6343 9.31226 31.6346 9.41721V39.9844L43.6283 33.1287V17.5024C43.6283 17.3984 43.6432 17.2928 43.6702 17.1932C43.6807 17.1575 43.7001 17.1263 43.7121 17.0921C43.7361 17.0296 43.7571 16.9657 43.79 16.9077C43.8125 16.8691 43.8454 16.8378 43.8709 16.8022C43.9068 16.7546 43.9368 16.7055 43.9787 16.6639C44.0132 16.6297 44.0566 16.6044 44.0955 16.5747C44.1405 16.539 44.1794 16.5003 44.2273 16.4721H44.2288L58.6233 8.24561C58.8055 8.14136 59.0121 8.08649 59.2224 8.08649C59.4327 8.08649 59.6393 8.14136 59.8215 8.24561L74.2145 16.4721C74.2654 16.5018 74.3044 16.539 74.3493 16.5732C74.3867 16.6029 74.4302 16.6297 74.4646 16.6624C74.5066 16.7055 74.5365 16.7546 74.5725 16.8022C74.5994 16.8378 74.6324 16.8691 74.6533 16.9077C74.6878 16.9657 74.7073 17.0296 74.7312 17.0921C74.7447 17.1263 74.7642 17.1575 74.7732 17.1932ZM72.4158 33.1287V19.5632L67.379 22.4416L60.4206 26.4188V39.9844L72.4173 33.1287H72.4158ZM58.0228 57.6684V44.0939L51.1782 47.9745L31.6331 59.0482V72.7505L58.0228 57.6684ZM2.84709 11.4764V57.6684L29.2338 72.749V59.0496L15.4488 51.3049L15.4443 51.3019L15.4383 51.2989C15.3919 51.2722 15.353 51.2335 15.3095 51.2008C15.2721 51.1711 15.2287 51.1473 15.1957 51.1146L15.1927 51.1101C15.1538 51.073 15.1268 51.0269 15.0939 50.9852C15.0639 50.9451 15.028 50.9109 15.004 50.8693L15.0025 50.8648C14.9756 50.8202 14.9591 50.7667 14.9396 50.7161C14.9201 50.6715 14.8947 50.6299 14.8827 50.5823V50.5808C14.8677 50.5243 14.8647 50.4649 14.8587 50.4069C14.8527 50.3623 14.8408 50.3177 14.8408 50.2731V18.3321L7.88389 14.3534L2.84709 11.4779V11.4764ZM16.0419 2.56454L4.04975 9.41721L16.0389 16.2699L28.0296 9.41573L16.0389 2.56454H16.0419ZM22.2784 45.3309L29.2353 41.3552V11.4764L24.1985 14.3549L17.2401 18.3321V48.2109L22.2784 45.3309ZM59.2224 10.6513L47.2318 17.5039L59.2224 24.3566L71.2116 17.5024L59.2224 10.6513ZM58.0228 26.4188L51.0644 22.4416L46.0276 19.5632V33.1287L52.9845 37.1044L58.0228 39.9844V26.4188ZM30.4319 56.9889L48.0195 47.0214L56.8111 42.0406L44.8294 35.1924L31.034 43.0769L18.4607 50.2626L30.4319 56.9889Z" fill="#FF2D20"/>
</svg>
