<svg width="166" height="36" viewBox="0 0 166 36" fill="none" xmlns="http://www.w3.org/2000/svg">
<path d="M121.264 24.5992V11.6351L116.217 24.5992H114.535L109.488 11.6351V24.5992H105.75V6.75H110.984L115.283 18.0232L119.582 6.75H125.002V24.5992H121.264ZM136.217 24.5992V23.284C135.282 24.4113 133.787 24.975 132.105 24.975C130.049 24.975 127.619 23.6598 127.619 20.6536C127.619 17.6474 130.049 16.5201 132.105 16.5201C133.787 16.5201 135.282 17.0838 136.217 18.0232V16.5201C136.217 15.2049 135.095 14.2655 133.413 14.2655C132.105 14.2655 130.796 14.8291 129.675 15.7686L128.366 13.326C129.862 11.8229 131.918 11.2593 133.974 11.2593C136.964 11.2593 139.581 12.3866 139.581 16.1443V24.5992H136.217ZM136.217 21.593V19.9021C135.656 19.1505 134.534 18.7747 133.413 18.7747C132.105 18.7747 130.983 19.5263 130.983 20.6536C130.983 21.9688 132.105 22.5325 133.413 22.5325C134.721 22.7204 135.656 22.3446 136.217 21.593ZM142.946 24.5992V11.6351H146.31V13.326C147.245 12.1987 148.74 11.2593 150.422 11.2593V14.6412C150.235 14.6412 149.861 14.6412 149.487 14.6412C148.366 14.6412 146.871 15.2049 146.31 16.1443V24.7871H142.946V24.5992ZM161.076 24.5992L157.712 19.5263L156.216 21.2173V24.5992H152.852V6.75H156.216V17.4595L161.076 11.6351H165.188L160.141 17.4595L165.375 24.5992H161.076Z" fill="#168A44"/>
<path d="M5.84998 36.0002H0.224976V25.1824L5.84998 21.8252V36.0002Z" fill="#AF7C2B"/>
<path d="M15.525 35.9998H9.90002V18.6566L15.525 15.2998V35.9998Z" fill="#037FA4"/>
<path d="M30.1655 18.1875C30.1655 14.4375 32.976 11.4375 36.9106 11.4375C40.8453 11.4375 43.4684 14.25 43.4684 18.5625V19.3125H33.9128C34.1002 20.8125 35.4117 22.125 37.6601 22.125C38.7843 22.125 40.2832 21.75 41.0326 20.8125L42.5315 23.0625C41.22 24.1875 39.159 24.9375 37.2854 24.9375C33.1634 24.9375 30.1655 22.3125 30.1655 18.1875ZM36.9106 14.0625C34.8496 14.0625 33.9128 15.5625 33.7255 16.875H40.0958C40.0958 15.75 39.159 14.0625 36.9106 14.0625ZM44.9673 18.1875C44.9673 14.25 47.7777 11.4375 51.8997 11.4375C54.5228 11.4375 56.2091 12.5625 56.9585 13.6875L54.7102 15.75C54.1481 14.8125 53.2113 14.4375 51.8997 14.4375C49.8387 14.4375 48.3398 15.9375 48.3398 18.1875C48.3398 20.4375 49.8387 21.9375 51.8997 21.9375C53.0239 21.9375 53.9607 21.375 54.7102 20.4375L56.9585 22.5C56.0217 23.625 54.5228 24.9375 51.8997 24.9375C47.9651 24.9375 44.9673 22.125 44.9673 18.1875ZM68.013 24.5625V16.6875C68.013 14.8125 67.0762 14.25 65.5773 14.25C64.2657 14.25 63.1415 15 62.5794 15.75V24.5625H59.2069V6.75H62.5794V13.3125C63.3289 12.375 65.0152 11.25 67.0762 11.25C69.8866 11.25 71.1982 12.75 71.1982 15.375V24.5625H68.013ZM83.3768 24.5625V16.6875C83.3768 14.8125 82.44 14.25 80.9411 14.25C79.6295 14.25 78.5054 15 77.9433 15.75V24.5625H74.5707V11.625H77.9433V13.3125C78.6927 12.375 80.379 11.25 82.44 11.25C85.2505 11.25 86.7494 12.9375 86.7494 15.375V24.5625H83.3768ZM89.3725 18.1875C89.3725 14.4375 91.9955 11.4375 96.1175 11.4375C100.427 11.4375 103.05 14.625 103.05 18.1875C103.05 21.9375 100.427 24.9375 96.1175 24.9375C91.9955 24.9375 89.3725 21.75 89.3725 18.1875ZM99.4901 18.1875C99.4901 16.125 98.3659 14.4375 96.1175 14.4375C94.0565 14.4375 92.745 16.125 92.745 18.1875C92.745 20.25 93.8692 21.9375 96.1175 21.9375C98.3659 21.9375 99.4901 20.25 99.4901 18.1875ZM25.2941 6.1875L19.6732 9.5625V36H25.2941V6.1875ZM36.9106 4.875V0H0V5.0625H36.9106V4.875Z" fill="#2E2C72"/>
<path d="M32.4361 34.6361H35.0573V35.3674H31.5V29.7002H32.4361V34.6361ZM39.5507 33.3564V33.5393H36.1807C36.1807 34.2705 36.7423 34.8189 37.6785 34.8189C38.0529 34.8189 38.6146 34.6361 38.9891 34.2705L39.3635 34.8189C38.8018 35.1846 38.2401 35.5502 37.6785 35.5502C36.3679 35.5502 35.4318 34.6361 35.4318 33.3564C35.4318 32.2596 36.3679 31.1627 37.4912 31.1627C38.8018 31.1627 39.5507 32.2596 39.5507 33.3564ZM38.8018 32.9908C38.8018 32.4424 38.4274 31.7111 37.4912 31.7111C36.7423 31.7111 36.1807 32.4424 36.1807 32.9908H38.8018ZM41.7974 34.8189C41.6102 34.8189 41.423 34.6361 41.423 34.2705V32.0768H42.3591V31.3455H41.423V30.2486H40.6741V31.3455H39.9252V32.0768H40.6741V34.6361C40.6741 35.1846 41.0485 35.5502 41.6102 35.5502C41.9847 35.5502 42.1719 35.3674 42.3591 35.3674L42.1719 34.6361C42.1719 34.8189 41.9847 34.8189 41.7974 34.8189ZM43.4825 29.7002C43.108 29.7002 42.9208 29.883 42.9208 30.2486C42.9208 30.6143 43.108 30.7971 43.2953 30.7971H43.4825C43.4825 31.1627 43.108 31.3455 42.9208 31.5283L43.2953 31.8939C43.6697 31.5283 44.0442 30.9799 44.0442 30.4314C44.0442 29.883 43.8569 29.7002 43.4825 29.7002ZM46.2909 32.9908C45.7292 32.808 45.3547 32.808 45.3547 32.4424C45.3547 32.0768 45.7292 31.8939 46.2909 31.8939C46.8526 31.8939 47.227 32.0768 47.6015 32.4424L47.9759 31.8939C47.4142 31.5283 46.8526 31.1627 46.1037 31.1627C45.1675 31.1627 44.6058 31.7111 44.6058 32.4424C44.6058 33.3564 45.3547 33.5393 46.1037 33.7221C46.6653 33.9049 47.0398 33.9049 47.0398 34.4533C47.0398 34.8189 46.6653 35.0018 46.1037 35.0018C45.542 35.0018 44.9803 34.6361 44.7931 34.4533L44.4186 34.8189C44.7931 35.1846 45.542 35.5502 46.1037 35.5502C47.227 35.5502 47.7887 35.0018 47.7887 34.2705C47.7887 33.3564 47.0398 33.1736 46.2909 32.9908ZM50.9715 35.3674H51.9077V29.7002H50.9715V35.3674ZM55.2777 31.1627C54.7161 31.1627 54.1544 31.5283 53.7799 31.8939V31.3455H53.031V35.3674H53.7799V32.4424C53.9672 32.0768 54.5288 31.8939 54.9033 31.8939C55.465 31.8939 55.8394 32.0768 55.8394 32.808V35.3674H56.5883V32.6252C56.5883 31.7111 56.2139 31.1627 55.2777 31.1627ZM60.1456 31.1627C59.5839 31.1627 59.0223 31.5283 58.6478 31.8939V31.3455H57.8989V35.3674H58.6478V32.4424C58.835 32.0768 59.3967 31.8939 59.7712 31.8939C60.3328 31.8939 60.7073 32.0768 60.7073 32.808V35.3674H61.4562V32.6252C61.4562 31.7111 60.8945 31.1627 60.1456 31.1627ZM66.5113 33.3564C66.5113 34.4533 65.7624 35.5502 64.4518 35.5502C63.1412 35.5502 62.3923 34.6361 62.3923 33.3564C62.3923 32.2596 63.1412 31.1627 64.4518 31.1627C65.7624 31.1627 66.5113 32.2596 66.5113 33.3564ZM65.7624 33.3564C65.7624 32.6252 65.388 31.8939 64.4518 31.8939C63.7029 31.8939 63.1412 32.6252 63.1412 33.3564C63.1412 34.0877 63.5157 34.8189 64.4518 34.8189C65.388 34.8189 65.7624 34.0877 65.7624 33.3564ZM68.9453 34.4533L67.6347 31.3455H66.8858L68.5708 35.3674H69.3197L71.0047 31.3455H70.2558L68.9453 34.4533ZM75.1237 32.6252V35.3674H74.3748V35.0018C74.0004 35.3674 73.6259 35.5502 73.0642 35.5502C72.3153 35.5502 71.5664 35.1846 71.5664 34.2705C71.5664 33.3564 72.3153 32.9908 73.0642 32.9908C73.6259 32.9908 74.1876 33.1736 74.3748 33.5393V32.6252C74.3748 32.0768 74.0004 31.8939 73.4387 31.8939C72.877 31.8939 72.5026 32.0768 72.1281 32.4424L71.7537 31.8939C72.1281 31.5283 72.6898 31.1627 73.4387 31.1627C74.3748 31.1627 75.1237 31.5283 75.1237 32.6252ZM74.3748 33.7221C74.0004 33.5393 73.6259 33.3564 73.2515 33.3564C72.6898 33.3564 72.3153 33.7221 72.3153 34.0877C72.3153 34.4533 72.6898 34.8189 73.2515 34.8189C73.6259 34.8189 74.0004 34.6361 74.3748 34.2705V33.7221ZM77.5577 34.8189C77.3704 34.8189 77.1832 34.6361 77.1832 34.2705V32.0768H78.1193V31.3455H77.1832V30.2486H76.4343V31.3455H75.6854V32.0768H76.4343V34.6361C76.4343 35.1846 76.8088 35.5502 77.3704 35.5502C77.7449 35.5502 77.9321 35.3674 78.1193 35.3674L77.9321 34.8189C77.9321 34.8189 77.7449 34.8189 77.5577 34.8189ZM82.8 33.5393H79.4299C79.4299 34.2705 79.9916 34.8189 80.9277 34.8189C81.3022 34.8189 81.8639 34.6361 82.2383 34.2705L82.6128 34.8189C82.0511 35.1846 81.4894 35.5502 80.7405 35.5502C79.4299 35.5502 78.681 34.6361 78.681 33.3564C78.681 32.2596 79.6172 31.1627 80.7405 31.1627C82.0511 31.1627 82.8 32.0768 82.8 33.3564V33.5393ZM82.0511 32.9908C82.0511 32.4424 81.6766 31.7111 80.7405 31.7111C79.9916 31.7111 79.4299 32.4424 79.4299 32.9908H82.0511Z" fill="#898989"/>
</svg>
