<svg width="17" height="16" viewBox="0 0 17 16" fill="none" xmlns="http://www.w3.org/2000/svg">
<path d="M16.6473 14.6154C15.8088 13.1692 14.6088 11.9615 13.155 11.1231C12.7473 10.8846 12.3242 10.6846 11.8935 10.5154C13.3165 9.44615 14.2319 7.75385 14.2319 5.84615C14.2319 2.62308 11.6088 0 8.38576 0C5.16268 0 2.53961 2.62308 2.53961 5.84615C2.53961 7.75385 3.45499 9.45385 4.87807 10.5231C2.9473 11.2846 1.2473 12.6846 0.124223 14.6154C-0.129624 15.0538 0.0165302 15.6231 0.462684 15.8769C0.901146 16.1308 1.47038 15.9769 1.72422 15.5385C3.8473 11.8615 8.56269 10.6 12.2396 12.7231C13.4088 13.4 14.3781 14.3692 15.055 15.5385C15.2242 15.8308 15.5396 16 15.855 16C16.0088 16 16.1704 15.9615 16.3165 15.8769C16.755 15.6231 16.9011 15.0538 16.6473 14.6154ZM8.38576 1.84615C10.5935 1.84615 12.3858 3.63846 12.3858 5.84615C12.3858 8.05385 10.5935 9.84615 8.38576 9.84615C6.17807 9.84615 4.38576 8.05385 4.38576 5.84615C4.38576 3.63846 6.17807 1.84615 8.38576 1.84615Z" fill="#138B44"/>
</svg>
