<svg width="97" height="38" viewBox="0 0 97 38" fill="none" xmlns="http://www.w3.org/2000/svg">
<path d="M33.8043 7.76027C37.2672 18.2729 38.5792 37.0266 48.7055 37.0266C49.4766 37.0266 50.2554 36.9517 51.0373 36.8041C41.832 34.6734 40.7411 16.1237 35.1239 6.51758C34.6835 6.91493 34.2462 7.32912 33.8043 7.76027Z" fill="url(#paint0_linear_766_395)"/>
<path d="M35.1243 6.51777C40.7415 16.1239 41.8324 34.6736 51.0377 36.8043C51.7609 36.6724 52.4857 36.4729 53.212 36.2214C44.9493 32.2022 42.6653 14.1895 36.2864 5.51758C35.9 5.83677 35.5122 6.1712 35.1243 6.51777Z" fill="url(#paint1_linear_766_395)"/>
<path d="M43.2173 0.804688C42.4477 0.804688 41.6673 0.879533 40.8839 1.02719C38.8348 1.41069 36.7534 2.28656 34.6549 3.61197C35.2282 4.17342 35.7736 4.81613 36.2866 5.51724C38.4207 3.75923 40.5409 2.45996 42.6533 1.67907C43.446 1.38762 44.2357 1.16831 45.0284 1.02412C44.4566 0.879777 43.854 0.804688 43.2173 0.804688Z" fill="#14559A"/>
<path d="M59.6616 32.5165C60.5068 31.8493 61.3537 31.1114 62.202 30.3061C58.6834 19.8424 57.424 0.820312 47.2266 0.820312C46.4972 0.820312 45.7617 0.887804 45.0276 1.02279C54.3164 3.31624 55.5063 23.3783 59.6616 32.5165Z" fill="url(#paint2_linear_766_395)"/>
<path d="M45.0282 1.02299C44.4565 0.8788 43.8538 0.803711 43.2172 0.803711L47.2272 0.818297C46.4978 0.818297 45.7623 0.885789 45.0282 1.02238" fill="#3092C4"/>
<path d="M59.4838 34.7392C59.0851 34.3619 58.7066 33.9477 58.3341 33.5059C56.6188 34.7116 54.9098 35.6259 53.2115 36.2211C53.8157 36.5142 54.4492 36.732 55.1215 36.867C55.6422 36.9725 56.1816 37.0265 56.7487 37.0265C58.654 37.0265 60.1607 36.8026 61.4432 36.192C60.7371 35.813 60.0896 35.3222 59.4838 34.7392Z" fill="#1969BC"/>
<path d="M42.6528 1.68064C50.9727 6.00046 51.6959 25.5625 58.3345 33.5057C58.7795 33.1944 59.2199 32.8645 59.6603 32.5162C55.505 23.378 54.3167 3.3143 45.0295 1.02246C44.2368 1.16972 43.4456 1.3877 42.6528 1.68064Z" fill="url(#paint3_linear_766_395)"/>
<path d="M36.2861 5.51722C42.6651 14.1892 44.949 32.2018 53.2117 36.221C54.91 35.6258 56.6191 34.7115 58.3343 33.5058C51.6958 25.5625 50.9726 6.00049 42.6527 1.68066C40.5403 2.45994 38.4202 3.75921 36.2861 5.51722Z" fill="url(#paint4_linear_766_395)"/>
<path d="M29.723 7.50734C28.7232 9.75171 27.7018 12.7016 26.4671 16.552C28.9226 13.1173 31.3703 10.1582 33.8041 7.76053C33.4688 6.73727 33.1088 5.79387 32.7209 4.95312C31.7257 5.70945 30.7228 6.5609 29.723 7.50734Z" fill="url(#paint5_linear_766_395)"/>
<path d="M33.6077 4.30566C33.3141 4.51428 33.019 4.72757 32.7223 4.95302C33.1101 5.79368 33.4686 6.73717 33.804 7.76031C34.2458 7.33077 34.6847 6.91509 35.1235 6.51774C34.6523 5.71388 34.1516 4.97141 33.6077 4.30566Z" fill="#2B74B1"/>
<path d="M34.6552 3.6123C34.306 3.83174 33.9584 4.06329 33.6075 4.30567C34.1515 4.97144 34.6521 5.71391 35.125 6.51935C35.5129 6.17107 35.9007 5.83516 36.2871 5.51758C35.774 4.81658 35.2286 4.17376 34.6552 3.6123Z" fill="#125A9E"/>
<path d="M91.4037 0.00422395C86.6982 18.0184 76.8702 32.4874 68.6307 36.1353H68.6151C68.4652 36.2028 68.3168 36.2642 68.1701 36.3239C68.1499 36.3361 68.1315 36.3376 68.1159 36.3449C68.0726 36.3622 68.0325 36.3756 67.9892 36.3928C67.969 36.4049 67.9506 36.4089 67.9321 36.4162C67.8626 36.4408 67.7946 36.4616 67.7266 36.4886C67.6972 36.5007 67.6694 36.5083 67.6415 36.5181C67.6106 36.5302 67.575 36.5415 67.5395 36.5512C67.5086 36.5634 67.4762 36.5722 67.4406 36.5855C67.4112 36.5977 67.3803 36.6029 67.3526 36.615C67.2923 36.6323 67.2368 36.6469 67.1764 36.6678C67.1516 36.6678 67.1286 36.6811 67.1023 36.6875C67.0652 36.6997 67.0234 36.7085 66.9832 36.7194C66.9554 36.7316 66.9323 36.7355 66.9029 36.7416C66.8611 36.7538 66.8147 36.765 66.773 36.7748C66.7174 36.7869 66.668 36.7982 66.6154 36.8091C66.9878 36.9457 67.3757 37.0147 67.7945 37.0147C75.6075 37.0147 83.4852 23.1149 96.5198 0H91.4018L91.4037 0.00422395Z" fill="url(#paint6_linear_766_395)"/>
<path d="M24.7705 1.53561C24.7754 1.53561 24.7815 1.52345 24.7846 1.52345C24.7907 1.52345 24.8002 1.52345 24.8032 1.5113H24.813C24.8563 1.49671 24.8965 1.47939 24.9397 1.46344C24.9508 1.46344 24.9566 1.46344 24.9645 1.45128C24.9756 1.45128 24.9863 1.43913 24.997 1.43761C25.0434 1.42302 25.0898 1.4057 25.133 1.38975H25.1404C25.244 1.35909 25.3397 1.32104 25.4402 1.28545C25.4542 1.28545 25.468 1.2733 25.4849 1.2733C25.5267 1.25993 25.57 1.24504 25.6132 1.23525C25.6334 1.2231 25.6534 1.2231 25.6719 1.21672C25.7166 1.20335 25.7601 1.18846 25.8017 1.17867C25.8204 1.17867 25.8373 1.16652 25.8512 1.1653C25.9949 1.12604 26.137 1.08921 26.2807 1.05484C26.301 1.05484 26.3178 1.04268 26.3395 1.04147C26.3811 1.02931 26.4198 1.02293 26.4646 1.01685C26.4833 1.0047 26.5048 1.0047 26.5265 0.998318C26.5681 0.986162 26.6083 0.984947 26.6532 0.974919H26.6825C26.7691 0.957598 26.8572 0.943011 26.9437 0.927058H26.9963C27.0379 0.914902 27.075 0.913687 27.1168 0.90609C27.1398 0.90609 27.1631 0.893935 27.1848 0.893935C27.2234 0.893935 27.262 0.881779 27.3006 0.876613C27.3208 0.876613 27.3408 0.876613 27.364 0.864458C27.4551 0.852303 27.5495 0.847441 27.6453 0.839844C27.3748 0.814014 27.0967 0.796875 26.8139 0.796875C18.015 0.796875 5.89221 17.0039 0.431152 37.9926H1.4835C3.23122 34.8985 4.80124 31.9715 6.23681 29.224C10.0614 14.3577 17.8512 4.21924 24.771 1.53321" fill="url(#paint7_linear_766_395)"/>
<path d="M29.7233 7.50705C30.7231 6.56062 31.726 5.70917 32.7211 4.95296C32.494 4.45901 32.2591 4.00185 32.0072 3.58301C31.2021 4.55251 30.4666 5.83191 29.7233 7.50705Z" fill="#0D82CA"/>
<path d="M30.4461 1.65827C31.021 2.13688 31.5355 2.79502 32.0068 3.58354C32.1552 3.40251 32.3051 3.23526 32.4612 3.07879C31.8076 2.47288 31.1013 1.97585 30.3348 1.60156C30.3658 1.61858 30.3966 1.63225 30.4288 1.64575C30.4288 1.64575 30.441 1.6579 30.4462 1.6579" fill="#0D82CA"/>
<path d="M6.23639 29.2261C14.2595 13.878 18.061 4.16449 24.7706 1.53516C17.8523 4.22289 10.061 14.3613 6.23639 29.2261Z" fill="url(#paint8_linear_766_395)"/>
<path d="M32.4608 3.0791C32.3048 3.23718 32.1564 3.40286 32.0065 3.58388C32.2584 4.0026 32.4932 4.45827 32.722 4.95371C33.0187 4.72826 33.3138 4.51497 33.6074 4.30636C33.2443 3.86147 32.8611 3.44886 32.4608 3.0791Z" fill="#127BCA"/>
<path d="M9.87881 37.9257C9.82936 37.9378 9.77991 37.9378 9.73355 37.943H9.70572C9.66394 37.943 9.62067 37.9552 9.5821 37.9552H9.56196C9.46158 37.9673 9.36262 37.9673 9.26681 37.9749H9.2359C17.3564 37.7493 21.0682 33.7132 22.9102 27.8594C24.3102 23.4215 25.4599 19.683 26.4675 16.5459C23.0663 21.2984 19.6496 26.9635 16.2144 33.3098C14.5579 36.3687 12.0391 37.6465 9.87874 37.9197" fill="url(#paint9_linear_766_395)"/>
<path d="M9.87866 37.9224C12.039 37.6492 14.5578 36.3729 16.2144 33.3125C19.6495 26.9678 23.0677 21.301 26.4658 16.5486C27.702 12.6966 28.7219 9.74828 29.7233 7.50391C22.9503 13.9039 16.151 24.5456 9.87866 37.9193" fill="url(#paint10_linear_766_395)"/>
<path d="M6.23623 29.2266C4.80071 31.9741 3.2307 34.901 1.48291 37.9951H4.54419C4.94906 34.9224 5.52391 31.9924 6.23623 29.228" fill="#05A1E6"/>
<path d="M27.3636 0.872732C27.3388 0.872732 27.3203 0.884887 27.2987 0.884887C27.2616 0.897042 27.2229 0.897042 27.1844 0.900993C27.1614 0.900993 27.1396 0.900993 27.1164 0.913148C27.0746 0.925303 27.036 0.926519 26.9958 0.934116C26.9772 0.934116 26.9588 0.934116 26.9433 0.946271C26.8551 0.960857 26.7687 0.976963 26.6821 0.991671H26.6527C26.608 1.00383 26.5677 1.01021 26.526 1.01629C26.5043 1.02844 26.4828 1.02844 26.4626 1.0333C26.421 1.04546 26.3792 1.05062 26.339 1.05792C26.3173 1.07007 26.3004 1.07007 26.2803 1.07129C26.1366 1.10566 25.9944 1.14249 25.8507 1.18175C25.8354 1.18175 25.8198 1.1939 25.8012 1.19633C25.758 1.20849 25.7162 1.22095 25.6714 1.23438C25.6528 1.24654 25.6312 1.24654 25.6127 1.2514C25.5694 1.26355 25.5262 1.27601 25.4844 1.28944C25.4676 1.28944 25.4536 1.3016 25.4381 1.3016C25.3392 1.3384 25.2418 1.37523 25.1399 1.40592C25.0966 1.41929 25.0502 1.43658 25.0039 1.45254C24.9852 1.46469 24.9683 1.46743 24.9468 1.47594C24.9035 1.48931 24.8602 1.50663 24.82 1.52258C24.8047 1.53474 24.7891 1.53595 24.7784 1.54233C18.0687 4.17166 14.2673 13.8852 6.24416 29.2333C5.53178 31.9976 4.95538 34.9276 4.55206 38.0002H4.98165C6.19162 38.0002 6.53313 37.9881 7.92543 37.9881H7.99651H8.20358H8.27467H8.29481H8.36589H8.40607H8.43389H8.48952H8.6626H8.83567H8.98093H9.0195H9.27447C9.37028 37.9759 9.46918 37.9759 9.56962 37.9683H9.58817C9.62996 37.9683 9.67162 37.9562 9.7118 37.9562H9.74109C9.78584 37.9562 9.8369 37.944 9.88635 37.9389C16.1587 24.5652 22.958 13.9235 29.731 7.52347C30.4758 5.84833 31.2098 4.56893 32.0134 3.60101C31.5436 2.81253 31.029 2.15289 30.4542 1.67416C30.4542 1.67416 30.4386 1.67416 30.4373 1.662C30.4048 1.64863 30.3741 1.63253 30.3416 1.6166C30.309 1.59928 30.2812 1.58591 30.2473 1.56874C30.2179 1.55659 30.1839 1.54048 30.1546 1.52456C30.1145 1.5124 30.0819 1.49508 30.0465 1.47913C30.0171 1.46697 29.9908 1.45451 29.9614 1.44233C29.9011 1.41893 29.8409 1.39447 29.7837 1.3687C29.7574 1.35654 29.7328 1.35016 29.7079 1.34044C29.6662 1.32555 29.6183 1.30607 29.575 1.28765C29.5533 1.2755 29.5287 1.27306 29.5039 1.26425C29.4406 1.24328 29.3788 1.22131 29.32 1.20165H29.3047C29.2336 1.17825 29.1641 1.16118 29.0915 1.14151C29.0746 1.12936 29.0605 1.12936 29.0436 1.12693C28.9802 1.10961 28.9246 1.09256 28.8644 1.07661C28.8491 1.07661 28.835 1.06445 28.8227 1.06445C28.6775 1.0264 28.5275 0.995743 28.3761 0.967512C28.3605 0.967512 28.3452 0.955357 28.3298 0.955357C28.2649 0.943202 28.2015 0.931958 28.1366 0.924665C28.121 0.91251 28.1118 0.91251 28.098 0.91251C28.0208 0.900355 27.945 0.891542 27.8693 0.883033H27.8292C27.7674 0.870878 27.7102 0.869663 27.653 0.863281C27.5556 0.875436 27.4629 0.880602 27.3717 0.889111" fill="url(#paint11_linear_766_395)"/>
<path d="M73.0239 9.97675C71.4802 14.8857 70.23 18.9355 69.1422 22.2675C73.3778 16.4811 77.5501 9.202 81.5231 0.801758C76.8887 2.24668 74.4162 5.55418 73.0239 9.97675Z" fill="url(#paint12_linear_766_395)"/>
<path d="M69.2768 35.8282C69.0605 35.9374 68.8441 36.0414 68.6309 36.135C76.8703 32.4871 86.6984 18.018 91.4039 0.00390625H90.4504C79.6395 19.1747 76.1626 32.0084 69.2768 35.8282Z" fill="url(#paint13_linear_766_395)"/>
<path d="M63.8965 34.2177C65.689 32.0455 67.1493 28.3532 69.1428 22.2676C66.8433 25.4031 64.5286 28.0985 62.2121 30.2967C62.2121 30.3089 62.2121 30.3089 62.1999 30.3165C62.7053 31.8198 63.26 33.1467 63.892 34.2174" fill="#079AE1"/>
<path d="M63.8961 34.2178C63.2857 34.9572 62.6399 35.5202 61.9212 35.9375C61.7636 36.0283 61.6045 36.1139 61.4422 36.1921C62.201 36.5986 63.0292 36.8702 63.9563 36.979C64.0922 36.9924 64.2267 37.0049 64.3674 37.0146H64.3922C64.4552 37.0146 64.522 37.0146 64.59 37.0268H64.6172H64.8197H65.0377H65.1057H65.2602C65.285 37.0268 65.3109 37.0268 65.3356 37.0146C65.3838 37.0146 65.4345 37.0146 65.484 37.0025H65.5014H65.557C65.6077 37.0025 65.6633 36.9903 65.7177 36.9852H65.73C65.7462 36.9852 65.7634 36.973 65.7794 36.973C65.8363 36.9608 65.8957 36.9557 65.951 36.9472H66.0017C66.0648 36.935 66.1299 36.9274 66.1948 36.9153H66.2071H66.2257C66.3556 36.8906 66.4823 36.8662 66.6105 36.8343C65.5473 36.4477 64.6572 35.5365 63.8908 34.2387" fill="#1969BC"/>
<path d="M48.7059 37.0271C49.4771 37.0271 50.2559 36.9523 51.0378 36.8032C51.761 36.6728 52.4857 36.4733 53.212 36.2217C53.8163 36.5147 54.4498 36.7326 55.1205 36.8676C55.6412 36.9731 56.182 37.0271 56.7492 37.0271H48.7059Z" fill="#1E5CB3"/>
<path d="M56.7492 37.0269C58.653 37.0269 60.1612 36.8029 61.4423 36.1924C62.201 36.5989 63.0293 36.8704 63.9564 36.9794C64.0925 36.9928 64.227 37.0052 64.3675 37.015H64.3923C64.4554 37.015 64.5221 37.015 64.5901 37.0271H64.6186H64.8211H56.7438L56.7492 37.0269Z" fill="#1E5CB3"/>
<path d="M64.8259 37.0274H65.0454H65.1134H65.2664C65.2924 37.0274 65.3171 37.0274 65.3418 37.0152C65.39 37.0152 65.4407 37.0152 65.4918 37.0031H65.508H65.5649C65.6155 37.0031 65.6712 36.9909 65.7241 36.986H65.7376C65.7538 36.986 65.7697 36.9739 65.7858 36.9739C65.8426 36.9617 65.902 36.9569 65.9573 36.9481C65.9759 36.9481 65.9906 36.9481 66.0104 36.9359C66.0735 36.9237 66.1387 36.9174 66.2036 36.9052H66.2159H66.2346C66.3644 36.8806 66.4911 36.8561 66.6193 36.8242C66.9916 36.9607 67.3796 37.0298 67.7983 37.0298L64.8282 37.042L64.8259 37.0274Z" fill="#1D60B5"/>
<path d="M62.2048 30.3168V30.3047C61.3565 31.11 60.5097 31.8479 59.6644 32.5152C59.2224 32.8635 58.7821 33.1932 58.337 33.5047C58.7094 33.9465 59.0881 34.3607 59.4867 34.7381C60.0925 35.3209 60.7399 35.8119 61.4461 36.1907C61.6069 36.1122 61.7676 36.0265 61.9236 35.9361C62.6437 35.5188 63.2896 34.9559 63.9001 34.2165C63.268 33.1457 62.7133 31.8187 62.2079 30.3154" fill="#175FAB"/>
<path d="M87.4307 0.00390625H83.4222H83.0235H82.6465H82.6318C82.3722 0.0160615 82.1204 0.024874 81.8715 0.0407366C81.7541 0.290861 81.6335 0.540955 81.5176 0.792538C77.5447 9.19278 73.3724 16.4719 69.1368 22.2582C67.1449 28.3437 65.6831 32.0362 63.8905 34.2084C64.657 35.5062 65.5486 36.4188 66.6087 36.8054C66.6396 36.7933 66.6643 36.7933 66.6921 36.7869H66.7093C66.7279 36.7869 66.7478 36.7748 66.768 36.7748C66.8113 36.7626 66.8576 36.755 66.9009 36.7416C66.9287 36.7295 66.9518 36.7283 66.9798 36.7194C67.0199 36.7073 67.0616 36.6985 67.0987 36.6888C67.1235 36.6766 67.1481 36.6726 67.1729 36.6678C67.2347 36.648 67.2903 36.6334 67.349 36.615C67.3769 36.6028 67.4063 36.5928 67.4372 36.5855C67.4712 36.5734 67.5051 36.5646 67.5361 36.5499C67.5717 36.5378 67.6071 36.5314 67.6381 36.518C67.6659 36.5059 67.6952 36.4983 67.7215 36.4873C67.791 36.4627 67.859 36.4419 67.9286 36.4149C67.9472 36.4149 67.9657 36.3979 67.9858 36.394C68.0275 36.3766 68.0708 36.3633 68.1125 36.3449C68.1278 36.3327 68.1465 36.3315 68.1665 36.3251C68.3118 36.265 68.4617 36.2036 68.6116 36.1365H68.6272C68.8404 36.0432 69.0568 35.9385 69.2716 35.8297C76.159 32.0099 79.6359 19.1762 90.4468 0.00539527H87.4273L87.4307 0.00390625Z" fill="url(#paint14_linear_766_395)"/>
<path d="M27.645 0.846547C27.6622 0.846547 27.6775 0.846547 27.6945 0.858702C27.7361 0.858702 27.7779 0.858702 27.8196 0.872073H27.8614C27.9371 0.884228 28.0128 0.89061 28.0901 0.90155C28.1042 0.90155 28.1164 0.90155 28.1287 0.913705C28.192 0.92586 28.2569 0.935888 28.3218 0.945612C28.3359 0.945612 28.3544 0.957768 28.3698 0.957768C28.5182 0.987244 28.6696 1.01791 28.8149 1.05595C28.8286 1.05595 28.8427 1.06811 28.855 1.06811C28.9168 1.08269 28.9725 1.10123 29.0343 1.1184C29.0529 1.1184 29.0667 1.13055 29.0837 1.13329C29.1564 1.15183 29.2244 1.17012 29.2954 1.19343C29.2985 1.19343 29.3028 1.19343 29.3111 1.20558C29.3712 1.22382 29.4331 1.24731 29.4965 1.26815C29.5213 1.28031 29.5443 1.28547 29.5675 1.29155C29.6108 1.31009 29.6588 1.32835 29.7005 1.34555C29.7253 1.34555 29.7499 1.36257 29.7761 1.37138C29.8332 1.39721 29.8936 1.42046 29.9523 1.44501C29.9832 1.45717 30.0094 1.47084 30.0388 1.48181C30.0728 1.49913 30.1083 1.51496 30.1454 1.52724C30.1763 1.54183 30.2103 1.5579 30.2396 1.57139C30.2721 1.58872 30.3029 1.60209 30.3339 1.61926C31.1004 1.99358 31.8066 2.49218 32.4602 3.0966C32.7013 2.84502 32.9532 2.61945 33.2143 2.41697C31.7849 1.41064 30.1655 0.836914 28.2972 0.836914C28.0809 0.836914 27.8645 0.849069 27.6451 0.865175" fill="#7DCBEC"/>
<path d="M32.4608 3.07904C32.8611 3.44868 33.2443 3.86142 33.6074 4.3063C33.9582 4.06392 34.3059 3.83072 34.6551 3.6129C34.1977 3.15881 33.7156 2.75076 33.2134 2.39941C32.9522 2.60043 32.7019 2.82746 32.4608 3.07904Z" fill="#5EC5ED"/>
<path d="M27.6447 0.84697C27.8641 0.828562 28.0804 0.820891 28.2968 0.820891C30.165 0.820891 31.7845 1.39462 33.2139 2.39941C34.7221 1.21821 36.5455 0.805551 39.0783 0.805551H26.8133C27.0961 0.805551 27.3727 0.822425 27.6447 0.84697Z" fill="url(#paint15_linear_766_395)"/>
<path d="M39.0785 0.805019C36.5458 0.805019 34.7223 1.21767 33.2141 2.39888C33.7148 2.75018 34.1969 3.15823 34.6543 3.6123C36.7544 2.2869 38.8343 1.40943 40.8849 1.02592C41.6668 0.880187 42.4472 0.805019 43.2168 0.805019H39.0785Z" fill="url(#paint16_linear_766_395)"/>
<path d="M69.1421 22.2704C70.2315 18.9354 71.4786 14.8871 73.0254 9.9766C74.4193 5.55245 76.8871 2.24507 81.5214 0.801606C81.6438 0.554551 81.7594 0.299899 81.8785 0.0498047C74.3235 0.499336 70.7925 4.31441 69.0154 9.96435C65.9078 19.8282 64.0256 26.222 62.213 30.2965C64.5279 28.0997 66.8427 25.4029 69.1421 22.2704Z" fill="url(#paint17_linear_766_395)"/>
<path d="M80.2256 34.3994H79.3695V37.041H79.0203V34.3994H78.1611V34.085H80.2256V34.3994Z" fill="black"/>
<path d="M83.7312 37.041H83.3836V35.0559C83.3836 34.8995 83.3959 34.7078 83.4121 34.4822C83.3762 34.6172 83.3465 34.7108 83.3194 34.7706L82.3056 37.041H82.1357L81.1188 34.7875C81.0891 34.7249 81.0595 34.6233 81.0274 34.4822H81.0151C81.0274 34.6013 81.0314 34.7937 81.0314 35.0606V37.041H80.6976V34.085H81.1581L82.0713 36.1482C82.1405 36.3032 82.1838 36.4228 82.2058 36.5026H82.2192C82.2798 36.34 82.3293 36.2187 82.363 36.139L83.2948 34.085H83.7336V37.041H83.7312Z" fill="black"/>
<defs>
<linearGradient id="paint0_linear_766_395" x1="42.4203" y1="0.563424" x2="42.4203" y2="46.0649" gradientUnits="userSpaceOnUse">
<stop stop-color="#0994DC"/>
<stop offset="0.350006" stop-color="#66CEF5"/>
<stop offset="0.846161" stop-color="#127BCA"/>
<stop offset="1" stop-color="#127BCA"/>
</linearGradient>
<linearGradient id="paint1_linear_766_395" x1="44.1683" y1="-0.588395" x2="44.1683" y2="46.0727" gradientUnits="userSpaceOnUse">
<stop stop-color="#0E76BC"/>
<stop offset="0.360001" stop-color="#36AEE8"/>
<stop offset="0.846161" stop-color="#00ADEF"/>
<stop offset="1" stop-color="#00ADEF"/>
</linearGradient>
<linearGradient id="paint2_linear_766_395" x1="53.6147" y1="35.9783" x2="53.6147" y2="-1.14928" gradientUnits="userSpaceOnUse">
<stop stop-color="#1C63B7"/>
<stop offset="0.5" stop-color="#33BDF2"/>
<stop offset="1" stop-color="#33BDF2" stop-opacity="0.419608"/>
</linearGradient>
<linearGradient id="paint3_linear_766_395" x1="51.1567" y1="-5.31665" x2="51.1567" y2="43.1297" gradientUnits="userSpaceOnUse">
<stop stop-color="#166AB8"/>
<stop offset="0.399994" stop-color="#36AEE8"/>
<stop offset="0.846161" stop-color="#0798DD"/>
<stop offset="1" stop-color="#0798DD"/>
</linearGradient>
<linearGradient id="paint4_linear_766_395" x1="47.3099" y1="-5.062" x2="47.3099" y2="46.4542" gradientUnits="userSpaceOnUse">
<stop stop-color="#124379"/>
<stop offset="0.389999" stop-color="#1487CB"/>
<stop offset="0.780228" stop-color="#165197"/>
<stop offset="1" stop-color="#165197"/>
</linearGradient>
<linearGradient id="paint5_linear_766_395" x1="26.4671" y1="10.7526" x2="33.8042" y2="10.7526" gradientUnits="userSpaceOnUse">
<stop stop-color="#33BDF2" stop-opacity="0.698039"/>
<stop offset="1" stop-color="#1DACD8"/>
</linearGradient>
<linearGradient id="paint6_linear_766_395" x1="81.5705" y1="35.0479" x2="81.5705" y2="-1.11954" gradientUnits="userSpaceOnUse">
<stop stop-color="#136AB4"/>
<stop offset="0.6" stop-color="#59CAF5" stop-opacity="0.54902"/>
<stop offset="1" stop-color="#59CAF5" stop-opacity="0.235294"/>
</linearGradient>
<linearGradient id="paint7_linear_766_395" x1="0.430945" y1="19.3946" x2="27.6451" y2="19.3946" gradientUnits="userSpaceOnUse">
<stop stop-color="#05A1E6" stop-opacity="0.247059"/>
<stop offset="1" stop-color="#05A1E6"/>
</linearGradient>
<linearGradient id="paint8_linear_766_395" x1="15.5032" y1="35.9588" x2="15.5032" y2="-1.07371" gradientUnits="userSpaceOnUse">
<stop stop-color="#318ED5"/>
<stop offset="1" stop-color="#38A7E4"/>
</linearGradient>
<linearGradient id="paint9_linear_766_395" x1="17.8514" y1="36.0892" x2="17.8514" y2="0.0915385" gradientUnits="userSpaceOnUse">
<stop stop-color="#05A1E6"/>
<stop offset="1" stop-color="#05A1E6" stop-opacity="0.54902"/>
</linearGradient>
<linearGradient id="paint10_linear_766_395" x1="19.801" y1="37.9256" x2="19.801" y2="7.50701" gradientUnits="userSpaceOnUse">
<stop stop-color="#1959A6"/>
<stop offset="0.5" stop-color="#05A1E6"/>
<stop offset="0.917587" stop-color="#7EC5EA"/>
<stop offset="1" stop-color="#7EC5EA"/>
</linearGradient>
<linearGradient id="paint11_linear_766_395" x1="20.9751" y1="35.9829" x2="10.7247" y2="4.42726" gradientUnits="userSpaceOnUse">
<stop stop-color="#165096"/>
<stop offset="1" stop-color="#0D82CA"/>
</linearGradient>
<linearGradient id="paint12_linear_766_395" x1="75.3319" y1="17.3299" x2="75.3319" y2="0.0936179" gradientUnits="userSpaceOnUse">
<stop stop-color="#05A1E6"/>
<stop offset="0.873627" stop-color="#0495D6"/>
<stop offset="1" stop-color="#0495D6"/>
</linearGradient>
<linearGradient id="paint13_linear_766_395" x1="83.4932" y1="-1.49967" x2="67.5069" y2="34.2552" gradientUnits="userSpaceOnUse">
<stop stop-color="#38A7E4" stop-opacity="0.329412"/>
<stop offset="0.961533" stop-color="#0E88D3"/>
<stop offset="1" stop-color="#0E88D3"/>
</linearGradient>
<linearGradient id="paint14_linear_766_395" x1="77.1731" y1="-0.104944" x2="77.1731" y2="37.498" gradientUnits="userSpaceOnUse">
<stop stop-color="#168CD4"/>
<stop offset="0.5" stop-color="#1C87CC"/>
<stop offset="1" stop-color="#154B8D"/>
</linearGradient>
<linearGradient id="paint15_linear_766_395" x1="28.8583" y1="-0.87701" x2="29.0201" y2="3.0668" gradientUnits="userSpaceOnUse">
<stop stop-color="#97D6EE"/>
<stop offset="0.703293" stop-color="#55C1EA"/>
<stop offset="1" stop-color="#55C1EA"/>
</linearGradient>
<linearGradient id="paint16_linear_766_395" x1="33.9033" y1="3.43543" x2="34.6348" y2="-0.743868" gradientUnits="userSpaceOnUse">
<stop stop-color="#7ACCEC"/>
<stop offset="1" stop-color="#3FB7ED"/>
</linearGradient>
<linearGradient id="paint17_linear_766_395" x1="72.0451" y1="1.97434" x2="72.0451" y2="38.7538" gradientUnits="userSpaceOnUse">
<stop stop-color="#1DA7E7"/>
<stop offset="1" stop-color="#37ABE7" stop-opacity="0"/>
</linearGradient>
</defs>
</svg>
