<svg width="69" height="76" viewBox="0 0 69 76" fill="none" xmlns="http://www.w3.org/2000/svg">
<path fill-rule="evenodd" clip-rule="evenodd" d="M31.5778 75.2193C32.4767 75.733 33.4949 76 34.5201 76L34.5173 75.9854C35.5566 75.9854 36.5748 75.7205 37.4736 75.2046L65.5199 59.1226C67.3317 58.0769 68.4622 56.132 68.4622 54.0477V21.9115C68.4622 19.8202 67.3317 17.8753 65.5199 16.8366L37.4736 0.747637C35.711 -0.249212 33.3516 -0.249212 31.575 0.747637L3.49354 16.8297C1.67481 17.8614 0.55127 19.8132 0.55127 21.9045V54.0407C0.55127 56.1251 1.67481 58.0769 3.49354 59.1226L10.8527 63.333C14.42 65.0758 15.698 65.0758 17.3201 65.0758C22.5937 65.0758 25.6273 61.904 25.6273 56.383V24.6511C25.6273 24.198 25.2621 23.8494 24.8197 23.8494H21.2665C20.8101 23.8494 20.452 24.198 20.452 24.6511V56.369C20.452 58.8228 17.9029 61.2627 13.7318 59.1923L6.04959 54.7866C5.78275 54.6402 5.61422 54.3475 5.61422 54.0407V21.9045C5.61422 21.5978 5.78697 21.2981 6.05872 21.1447L34.0953 5.08358C34.3551 4.93022 34.6992 4.93022 34.959 5.08358L63.0011 21.1447C63.2665 21.305 63.4351 21.5909 63.4351 21.9115V54.0477C63.4351 54.3544 63.2665 54.6542 63.0067 54.8006L34.9534 70.8756C34.7125 71.0151 34.3438 71.0151 34.084 70.8756L26.8891 66.6373C26.675 66.5118 26.4011 66.47 26.1919 66.5885C24.2011 67.7108 23.8226 67.8572 21.9575 68.5055C21.4962 68.6637 20.8136 68.9384 22.2124 69.715L31.5778 75.2193ZM28.337 43.5712C28.337 48.2626 30.9106 53.8561 43.1853 53.8561L43.1446 53.8889C52.0346 53.8889 57.1326 50.4104 57.1326 44.3456C57.1326 38.3297 53.0387 36.7263 44.4156 35.5901C35.7082 34.4468 34.8234 33.8543 34.8234 31.8258C34.8234 30.1527 35.5747 27.922 42.0281 27.922C47.7932 27.922 49.9139 29.1559 50.7917 33.0108C50.8689 33.3733 51.1989 33.6382 51.5781 33.6382H55.2226C55.4473 33.6382 55.665 33.5406 55.8195 33.3803C55.974 33.213 56.0583 32.9899 56.0372 32.7599C55.4754 26.1096 51.0234 23.0144 42.0421 23.0144C34.0439 23.0144 29.2689 26.3605 29.2689 31.9791C29.2689 38.0787 34.0158 39.7587 41.698 40.5116C50.883 41.4039 51.5992 42.7353 51.5992 44.5269C51.5992 47.6394 49.0853 48.9653 43.1727 48.9653C35.7503 48.9653 34.1212 47.1166 33.5734 43.4513C33.5102 43.0588 33.1732 42.7695 32.7729 42.7695H29.1495C28.6994 42.7695 28.337 43.125 28.337 43.5712Z" fill="#689F63"/>
</svg>
