<svg width="16" height="22" viewBox="0 0 16 22" fill="none" xmlns="http://www.w3.org/2000/svg">
<path d="M12.1 0H3.3C1.43 0 0 1.43 0 3.3V18.7C0 20.57 1.43 22 3.3 22H12.1C13.97 22 15.4 20.57 15.4 18.7V3.3C15.4 1.43 13.97 0 12.1 0ZM7.7 20.35C7.04 20.35 6.6 19.91 6.6 19.25C6.6 18.59 7.04 18.15 7.7 18.15C8.36 18.15 8.8 18.59 8.8 19.25C8.8 19.91 8.36 20.35 7.7 20.35ZM13.2 14.85C13.2 15.73 12.43 16.5 11.55 16.5H3.85C2.97 16.5 2.2 15.73 2.2 14.85V3.85C2.2 2.97 2.97 2.2 3.85 2.2H11.55C12.43 2.2 13.2 2.97 13.2 3.85V14.85Z" fill="white"/>
</svg>
