<svg width="97" height="50" viewBox="0 0 97 50" fill="none" xmlns="http://www.w3.org/2000/svg">
<path d="M0.614258 25C0.614258 38.807 22.0485 50 48.488 50C74.9275 50 96.362 38.807 96.362 25C96.362 11.1932 74.9275 0 48.488 0C22.0485 0 0.614258 11.1932 0.614258 25Z" fill="url(#paint0_radial_766_384)"/>
<path d="M48.488 48.1426C73.8948 48.1426 94.4917 37.7807 94.4917 24.9987C94.4917 12.2169 73.8948 1.85478 48.488 1.85478C23.0812 1.85478 2.48425 12.2169 2.48425 24.9987C2.48425 37.7807 23.0812 48.1426 48.488 48.1426Z" fill="#777BB3"/>
<path d="M26.6245 27.8689C28.7136 27.8689 30.2732 27.4864 31.26 26.7325C32.2363 25.9863 32.9105 24.6935 33.264 22.8902C33.5935 21.2046 33.4679 20.0276 32.891 19.3925C32.301 18.7437 31.0256 18.4147 29.1001 18.4147H25.7615L23.9107 27.8689H26.6245ZM15.7049 39.5146C15.5499 39.5146 15.4027 39.4459 15.3042 39.3269C15.2055 39.2082 15.1655 39.0517 15.1951 38.9006L20.1002 13.847C20.1477 13.6048 20.3615 13.4298 20.6102 13.4298H31.1819C34.5044 13.4298 36.9774 14.3254 38.5318 16.0919C40.0946 17.8678 40.5771 20.3501 39.9661 23.4698C39.7174 24.7408 39.2897 25.9211 38.6949 26.9779C38.0995 28.036 37.3125 29.0149 36.3555 29.8881C35.2099 30.9525 33.9133 31.7243 32.5052 32.1784C31.1194 32.6265 29.3398 32.8538 27.2157 32.8538H22.9349L21.7125 39.0973C21.665 39.3397 21.4513 39.5146 21.2027 39.5146H15.7049Z" fill="black"/>
<path d="M26.1901 18.9304H29.1004C31.4243 18.9304 32.2316 19.4366 32.5059 19.7383C32.9609 20.2392 33.0468 21.2953 32.7543 22.7923C32.4257 24.4682 31.8165 25.6565 30.9435 26.3238C30.0497 27.0069 28.5966 27.3531 26.6248 27.3531H24.5411L26.1901 18.9304ZM31.1823 12.9141H20.6103C20.113 12.9141 19.6855 13.2641 19.5906 13.7486L14.6855 38.8023C14.6263 39.1046 14.7063 39.4173 14.9035 39.655C15.1009 39.8928 15.3949 40.0303 15.7052 40.0303H21.2029C21.7003 40.0303 22.1278 39.6803 22.2227 39.1957L23.3635 33.3694H27.216C29.3946 33.3694 31.2287 33.1336 32.6667 32.6686C34.1456 32.1916 35.5063 31.3828 36.7106 30.2648C37.7066 29.3552 38.527 28.3341 39.1486 27.2297C39.7704 26.125 40.2171 24.893 40.4763 23.568C41.1196 20.2842 40.597 17.6546 38.9233 15.7527C37.2659 13.8691 34.6613 12.9141 31.1823 12.9141ZM23.2807 28.3845H26.6248C28.8414 28.3845 30.4924 27.9701 31.5772 27.141C32.6622 26.3118 33.394 24.9279 33.7742 22.9886C34.138 21.1266 33.9723 19.8127 33.2771 19.0472C32.581 18.2818 31.189 17.899 29.1004 17.899H25.3336L23.2807 28.3845ZM31.1823 13.9454C34.3626 13.9454 36.6827 14.774 38.141 16.4312C39.5991 18.0884 40.0383 20.4016 39.4565 23.3714C39.217 24.5948 38.812 25.7133 38.2418 26.7266C37.6709 27.7406 36.9255 28.6678 36.0043 29.5085C34.9065 30.5283 33.687 31.2551 32.345 31.6879C31.0031 32.122 29.2938 32.338 27.216 32.338H22.5069L21.2029 38.9989H15.7052L20.6103 13.9454H31.1823Z" fill="white"/>
<path d="M52.5719 32.8525C52.4167 32.8525 52.2697 32.7838 52.1712 32.6648C52.0723 32.5461 52.0323 32.3898 52.0619 32.2385L54.2317 21.1533C54.4381 20.0991 54.3872 19.3424 54.0885 19.0227C53.9057 18.8272 53.3564 18.4994 51.7324 18.4994H47.8015L45.0734 32.4352C45.026 32.6776 44.8121 32.8525 44.5635 32.8525H39.1091C38.9539 32.8525 38.8069 32.7838 38.7082 32.6648C38.6095 32.5461 38.5695 32.3896 38.5992 32.2385L43.5043 7.1849C43.5517 6.9427 43.7656 6.76772 44.0142 6.76772H49.4686C49.6237 6.76772 49.7707 6.83647 49.8694 6.95525C49.9681 7.0742 50.0081 7.23045 49.9785 7.38172L48.7948 13.4286H53.0236C56.2452 13.4286 58.4297 13.9924 59.702 15.1523C60.9989 16.3356 61.4036 18.2277 60.9049 20.7765L58.6227 32.4352C58.5753 32.6776 58.3616 32.8525 58.1128 32.8525H52.5719Z" fill="black"/>
<path d="M49.4684 6.25393H44.0141C43.5166 6.25393 43.0891 6.60391 42.9942 7.08847L38.0891 32.1421C38.0298 32.4445 38.1098 32.7571 38.3072 32.9949C38.5046 33.2326 38.7986 33.3701 39.1089 33.3701H44.5633C45.0606 33.3701 45.4883 33.0201 45.5832 32.5356L48.2295 19.017H51.7322C53.3535 19.017 53.6937 19.3608 53.7074 19.3756C53.8058 19.4806 53.9351 19.9671 53.7216 21.0569L51.5518 32.1421C51.4926 32.4445 51.5726 32.7571 51.77 32.9949C51.9674 33.2326 52.2614 33.3701 52.5717 33.3701H58.1126C58.6099 33.3701 59.0376 33.0201 59.1325 32.5356L61.4145 20.8769C61.9501 18.1402 61.4919 16.0873 60.0534 14.7747C58.6806 13.5231 56.3811 12.9148 53.0235 12.9148H49.4246L50.4883 7.48211C50.5474 7.17975 50.4675 6.86691 50.2701 6.62935C50.0727 6.39162 49.7787 6.25393 49.4684 6.25393ZM49.4684 7.28529L48.1644 13.9462H53.0235C56.0809 13.9462 58.1897 14.4759 59.3504 15.5341C60.511 16.593 60.8587 18.3086 60.3948 20.6803L58.1126 32.3388H52.5717L54.7415 21.2537C54.9884 19.9927 54.8977 19.1325 54.469 18.6739C54.0401 18.2153 53.1277 17.9857 51.7322 17.9857H47.3729L44.5633 32.3388H39.1089L44.0141 7.28529H49.4684Z" fill="white"/>
<path d="M69.5349 27.8689C71.624 27.8689 73.1836 27.4864 74.1704 26.7325C75.1467 25.9865 75.8209 24.6937 76.1745 22.8902C76.504 21.2046 76.3785 20.0276 75.8014 19.3925C75.2114 18.7437 73.936 18.4147 72.0105 18.4147H68.6719L66.821 27.8689H69.5349ZM58.6154 39.5146C58.4604 39.5146 58.3133 39.4459 58.2147 39.3269C58.116 39.2082 58.0759 39.0517 58.1055 38.9006L63.0106 13.847C63.0582 13.6048 63.2719 13.4298 63.5207 13.4298H74.0923C77.415 13.4298 79.8878 14.3254 81.4424 16.0919C83.0051 17.8676 83.4875 20.3499 82.8766 23.4698C82.6276 24.7408 82.2001 25.9211 81.6053 26.9779C81.0098 28.036 80.2229 29.0149 79.2658 29.8881C78.1202 30.9525 76.8237 31.7243 75.4156 32.1784C74.0298 32.6265 72.2501 32.8538 70.126 32.8538H65.8451L64.6232 39.0973C64.5756 39.3397 64.3619 39.5146 64.1131 39.5146H58.6154Z" fill="black"/>
<path d="M69.1002 18.9304H72.0105C74.3345 18.9304 75.1417 19.4366 75.416 19.7383C75.8712 20.2392 75.9571 21.2953 75.6645 22.7921C75.3358 24.4682 74.7265 25.6565 73.8536 26.3238C72.9598 27.0069 71.5067 27.3531 69.535 27.3531H67.4514L69.1002 18.9304ZM74.0924 12.9141H63.5206C63.0233 12.9141 62.5958 13.2641 62.5009 13.7486L57.5958 38.8023C57.5366 39.1046 57.6165 39.4173 57.8138 39.655C58.0112 39.8928 58.3052 40.0303 58.6155 40.0303H64.1131C64.6104 40.0303 65.0381 39.6803 65.133 39.1957L66.2736 33.3694H70.1261C72.3047 33.3694 74.1388 33.1336 75.5768 32.6686C77.0557 32.1916 78.4167 31.3827 79.621 30.2645C80.617 29.355 81.4371 28.3341 82.0587 27.2297C82.6805 26.125 83.1272 24.893 83.3865 23.568C84.0297 20.284 83.5071 17.6544 81.8334 15.7526C80.176 13.8691 77.5716 12.9141 74.0924 12.9141ZM66.191 28.3845H69.535C71.7515 28.3845 73.4025 27.9701 74.4873 27.141C75.5725 26.3118 76.3041 24.9279 76.6843 22.9886C77.0483 21.1266 76.8826 19.8127 76.1872 19.0472C75.4911 18.2818 74.0991 17.899 72.0105 17.899H68.2437L66.191 28.3845ZM74.0924 13.9454C77.2727 13.9454 79.5928 14.774 81.0511 16.4312C82.5094 18.0884 82.9484 20.4016 82.3666 23.3714C82.1271 24.5948 81.7221 25.7133 81.1519 26.7266C80.581 27.7406 79.8356 28.6678 78.9144 29.5085C77.8166 30.5283 76.5971 31.2551 75.2551 31.6879C73.9132 32.122 72.204 32.338 70.1261 32.338H65.417L64.1131 38.9989H58.6155L63.5206 13.9454H74.0924Z" fill="white"/>
<defs>
<radialGradient id="paint0_radial_766_384" cx="0" cy="0" r="1" gradientUnits="userSpaceOnUse" gradientTransform="translate(29.3579 8.78923) scale(62.8651 62.4072)">
<stop stop-color="#AEB2D5"/>
<stop offset="0.3" stop-color="#AEB2D5"/>
<stop offset="0.75" stop-color="#484C89"/>
<stop offset="1" stop-color="#484C89"/>
</radialGradient>
</defs>
</svg>
