<svg width="24" height="24" viewBox="0 0 24 24" fill="none" xmlns="http://www.w3.org/2000/svg">
<path opacity="0.1" fill-rule="evenodd" clip-rule="evenodd" d="M0 12C0 5.37258 5.37258 0 12 0C18.6274 0 24 5.37258 24 12C24 18.6274 18.6274 24 12 24C5.37258 24 0 18.6274 0 12Z" fill="white"/>
<path d="M9.52 17.2H7.14V9.71H9.52V17.2ZM8.33 8.66C7.56 8.66 7 8.1 7 7.33C7 6.56 7.63 6 8.33 6C9.1 6 9.66 6.56 9.66 7.33C9.66 8.1 9.1 8.66 8.33 8.66ZM18.2 17.2H15.82V13.14C15.82 11.95 15.33 11.6 14.63 11.6C13.93 11.6 13.23 12.16 13.23 13.21V17.2H10.85V9.71H13.09V10.76C13.3 10.27 14.14 9.5 15.33 9.5C16.66 9.5 18.06 10.27 18.06 12.58V17.2H18.2Z" fill="white"/>
</svg>
