<svg width="54" height="52" viewBox="0 0 54 52" fill="none" xmlns="http://www.w3.org/2000/svg">
<g filter="url(#filter0_d_742_4917)">
<path d="M1 5.64551H28.871" stroke="#1C2034" stroke-width="2" stroke-miterlimit="10" stroke-linejoin="round"/>
<path d="M1 44.3545H28.871" stroke="#1C2034" stroke-width="2" stroke-miterlimit="10" stroke-linejoin="round"/>
<path d="M1 45.129C1 47.2968 2.70323 49 4.87097 49H25C27.1677 49 28.871 47.2968 28.871 45.129V4.87097C28.871 2.70323 27.1677 1 25 1H4.87097C2.70323 1 1 2.70323 1 4.87097V45.129Z" stroke="#1C2034" stroke-width="2" stroke-miterlimit="10" stroke-linejoin="round"/>
<path d="M9.5159 35.0645H6.41913V38.1612H9.5159V35.0645Z" fill="#1C2034"/>
<path d="M16.4839 35.0645H13.3871V38.1612H16.4839V35.0645Z" fill="#1C2034"/>
<path d="M23.4517 35.0645H20.3549V38.1612H23.4517V35.0645Z" fill="#1C2034"/>
<path d="M9.5159 27.4004H6.41913V30.4972H9.5159V27.4004Z" fill="#1C2034"/>
<path d="M16.4839 27.4004H13.3871V30.4972H16.4839V27.4004Z" fill="#1C2034"/>
<path d="M23.4517 27.4004H20.3549V30.4972H23.4517V27.4004Z" fill="#1C2034"/>
<path d="M14.9355 21.1292C17.501 21.1292 19.5807 19.0495 19.5807 16.484C19.5807 13.9186 17.501 11.8389 14.9355 11.8389C12.3701 11.8389 10.2903 13.9186 10.2903 16.484C10.2903 19.0495 12.3701 21.1292 14.9355 21.1292Z" stroke="#138B44" stroke-width="2" stroke-miterlimit="10" stroke-linejoin="round"/>
<path d="M33.5161 5.64551H52.8709" stroke="#1C2034" stroke-width="2" stroke-miterlimit="10" stroke-linejoin="round"/>
<path d="M33.5161 44.3545H52.8709" stroke="#1C2034" stroke-width="2" stroke-miterlimit="10" stroke-linejoin="round"/>
<path d="M33.5161 49H48.9999C51.1677 49 52.8709 47.2968 52.8709 45.129V4.87097C52.8709 2.70323 51.1677 1 48.9999 1H33.5161" stroke="#1C2034" stroke-width="2" stroke-miterlimit="10" stroke-linejoin="round"/>
<path d="M37.484 35.0645H34.3872V38.1612H37.484V35.0645Z" fill="#1C2034"/>
<path d="M44.4515 35.0645H41.3547V38.1612H44.4515V35.0645Z" fill="#1C2034"/>
<path d="M37.484 27.4004H34.3872V30.4972H37.484V27.4004Z" fill="#1C2034"/>
<path d="M44.4515 27.4004H41.3547V30.4972H44.4515V27.4004Z" fill="#1C2034"/>
<path d="M38.9354 21.1292C41.5008 21.1292 43.5805 19.0495 43.5805 16.484C43.5805 13.9186 41.5008 11.8389 38.9354 11.8389C36.3699 11.8389 34.2902 13.9186 34.2902 16.484C34.2902 19.0495 36.3699 21.1292 38.9354 21.1292Z" stroke="#C79939" stroke-width="2" stroke-miterlimit="10" stroke-linejoin="round"/>
</g>
<defs>
<filter id="filter0_d_742_4917" x="-4" y="0" width="61.8709" height="58" filterUnits="userSpaceOnUse" color-interpolation-filters="sRGB">
<feFlood flood-opacity="0" result="BackgroundImageFix"/>
<feColorMatrix in="SourceAlpha" type="matrix" values="0 0 0 0 0 0 0 0 0 0 0 0 0 0 0 0 0 0 127 0" result="hardAlpha"/>
<feOffset dy="4"/>
<feGaussianBlur stdDeviation="2"/>
<feComposite in2="hardAlpha" operator="out"/>
<feColorMatrix type="matrix" values="0 0 0 0 0 0 0 0 0 0 0 0 0 0 0 0 0 0 0.25 0"/>
<feBlend mode="normal" in2="BackgroundImageFix" result="effect1_dropShadow_742_4917"/>
<feBlend mode="normal" in="SourceGraphic" in2="effect1_dropShadow_742_4917" result="shape"/>
</filter>
</defs>
</svg>
