<svg width="52" height="49" viewBox="0 0 52 49" fill="none" xmlns="http://www.w3.org/2000/svg">
<path fill-rule="evenodd" clip-rule="evenodd" d="M6.10352e-05 0H1.00006H50.176H51.176V1V47.0033V48.0033H50.176H1.00006H6.10352e-05V47.0033V1V0ZM2.00006 2V6.34532H12.6906V2H2.00006ZM14.6906 2V6.34532H49.176V2H14.6906ZM2.00006 46.0033V8.34532H49.176V46.0033H2.00006Z" fill="#1C2034"/>
<path d="M44.624 13.6904H6.55231V24.7947H44.624V13.6904Z" stroke="#138B44" stroke-width="2" stroke-miterlimit="10"/>
<path fill-rule="evenodd" clip-rule="evenodd" d="M5.55237 29.7432H6.55237H16.0703H17.0703V30.7432V40.2611V41.2611H16.0703H6.55237H5.55237V40.2611V30.7432V29.7432ZM7.55237 31.7432V39.2611H15.0703V31.7432H7.55237ZM19.8291 29.7432H20.8291H30.347H31.347V30.7432V40.2611V41.2611H30.347H20.8291H19.8291V40.2611V30.7432V29.7432ZM21.8291 31.7432V39.2611H29.347V31.7432H21.8291ZM35.1061 29.7432H34.1061V30.7432V40.2611V41.2611H35.1061H44.624H45.624V40.2611V30.7432V29.7432H44.624H35.1061ZM36.1061 39.2611V31.7432H43.624V39.2611H36.1061Z" fill="#C79939"/>
</svg>
