<svg width="54" height="54" viewBox="0 0 54 54" fill="none" xmlns="http://www.w3.org/2000/svg">
<path d="M39.9434 45.5664H22.7358" stroke="#1C2034" stroke-width="2" stroke-miterlimit="10" stroke-linejoin="round"/>
<path d="M11.868 13.8684V31.9816V11.5137H52.8945L46.4643 34.3363C46.102 35.5137 45.1058 36.3288 43.8379 36.3288H10.7813C8.42654 36.3288 6.34352 38.0495 6.07182 40.4042C5.80013 43.1212 7.97371 45.3854 10.6001 45.3854H12.4114" stroke="#1C2034" stroke-width="2" stroke-miterlimit="10" stroke-linejoin="round"/>
<path d="M45.3776 50.9998C48.3787 50.9998 50.8115 48.5669 50.8115 45.5658C50.8115 42.5647 48.3787 40.1318 45.3776 40.1318C42.3765 40.1318 39.9436 42.5647 39.9436 45.5658C39.9436 48.5669 42.3765 50.9998 45.3776 50.9998Z" stroke="#C79939" stroke-width="2" stroke-miterlimit="10" stroke-linejoin="round"/>
<path d="M17.3019 50.9998C20.303 50.9998 22.7358 48.5669 22.7358 45.5658C22.7358 42.5647 20.303 40.1318 17.3019 40.1318C14.3008 40.1318 11.8679 42.5647 11.8679 45.5658C11.8679 48.5669 14.3008 50.9998 17.3019 50.9998Z" stroke="#138B44" stroke-width="2" stroke-miterlimit="10" stroke-linejoin="round"/>
<path d="M9.15088 3C10.6905 3 11.8679 4.17736 11.8679 5.71698V13.8679" stroke="#1C2034" stroke-width="2" stroke-miterlimit="10" stroke-linejoin="round"/>
<path d="M1 3H9.15094" stroke="#1C2034" stroke-width="2" stroke-miterlimit="10" stroke-linejoin="round"/>
</svg>
