<svg width="182" height="180" viewBox="0 0 182 180" fill="none" xmlns="http://www.w3.org/2000/svg">
<path d="M180.452 74.5537H180.194H1.16092H0.902952H0.709473V180H180.645V74.5537H180.452Z" fill="#FFD05B"/>
<path d="M107.704 129.631L107.446 129.438L90.6774 142.143L74.1026 129.631L73.9091 129.438L0 180H181.355L107.704 129.631Z" fill="#F9B54C"/>
<path d="M90.8709 0H90.6775L0.451538 74.5541L90.4195 142.788H90.6775L180.645 74.812L180.903 74.5541L90.8709 0Z" fill="#F9B54C"/>
<path d="M126.471 17.6719H29.0219V96.0955L90.4193 142.789H90.6773L152.075 96.3535L152.333 96.0955V41.7278L126.471 17.6719Z" fill="white"/>
<path d="M126.471 41.7278H152.333L126.471 17.6719V41.7278Z" fill="#ACB3BA"/>
<path d="M139.37 50.1094H103.576V54.6239H139.37V50.1094Z" fill="#CED5E0"/>
<path d="M139.37 65.0723H103.576V69.5868H139.37V65.0723Z" fill="#CED5E0"/>
<path d="M139.37 79.7773H40.1147V84.2919H139.37V79.7773Z" fill="#CED5E0"/>
<path d="M139.37 94.5459H40.1147V99.0604H139.37V94.5459Z" fill="#CED5E0"/>
<path d="M94.2889 50.1748H40.0502V71.393H94.2889V50.1748Z" fill="#CED5E0"/>
</svg>
